<svg width="1068" height="750" viewBox="0 0 1068 750" fill="none" xmlns="http://www.w3.org/2000/svg">
<g clip-path="url(#clip0_4025_7777)">
<path d="M123.955 427.565C26.3042 429.65 0.0692195 490.178 20.1048 543.667C44.5928 609.042 134.647 665.504 247.711 684.215C347.356 700.706 426.605 711.817 532.55 699.426C602.835 691.206 734.127 650.571 836.066 586.467C919.5 534 980.5 458 1016 367.5C1052.81 273.671 1074 162.5 1004 87.5C934 12.4999 799.365 46.261 702.499 194C632.999 300 481.499 381.402 438.999 400C310.762 456.118 232.665 425.245 123.955 427.565Z" fill="#EFF6FF"/>
<path d="M283.122 541.436C287.926 539.738 304.641 531.456 315.63 515.205L338.438 552.976C338.438 552.976 306.993 571.61 305.498 572.491C302.051 574.52 298.774 574.758 296.553 575.845C293.798 577.194 286.927 578.509 282.812 578.474C278.697 578.44 274.778 576.631 275.307 573.61C276.028 569.5 286.299 571.644 285.642 568.209C285.665 565.465 282.492 567.496 280.846 567.483C278.788 567.465 276.725 568.134 275.359 567.437C273.993 566.739 272.638 564.67 274.033 561.938C275.031 559.983 285.019 560.658 284.356 557.909C284.373 555.851 279.416 557.182 278.189 557.171C276.131 557.154 273.572 556.81 272.719 555.068C272.044 553.69 270.968 550.667 273.462 548.214C276.229 545.494 280.378 542.406 283.122 541.436Z" fill="#F5C19C"/>
<path d="M283.123 541.436C284.783 539.803 288.406 538.508 290.725 534.64L310.323 569.787C310.323 569.787 306.994 571.61 305.499 572.491C302.052 574.519 298.774 574.758 296.553 575.845C293.798 577.194 286.928 578.508 282.812 578.474C278.697 578.44 274.778 576.631 275.308 573.61C276.028 569.5 286.299 571.644 285.642 568.209C285.665 565.465 282.493 567.496 280.847 567.483C278.789 567.465 276.726 568.134 275.36 567.437C273.993 566.739 272.639 564.67 274.034 561.938C275.032 559.983 285.019 560.658 284.357 557.909C284.374 555.851 279.416 557.181 278.189 557.171C276.132 557.154 273.572 556.81 272.719 555.068C272.045 553.69 270.969 550.667 273.463 548.214C276.229 545.494 281.048 543.476 283.123 541.436Z" fill="#D49B7B"/>
<path fill-rule="evenodd" clip-rule="evenodd" d="M315.68 513.433C314.35 512.979 312.904 513.69 312.451 515.02C310.044 522.081 304.742 526.893 298.675 530.583C295.646 532.425 292.484 533.954 289.468 535.335C288.719 535.678 287.97 536.016 287.232 536.349C285.062 537.328 282.983 538.265 281.249 539.18C278.848 540.447 275.674 542.262 273.164 544.558C270.708 546.804 268.368 549.997 268.832 553.979C269.139 556.615 270.195 558.443 271.471 559.657C271.37 559.797 271.273 559.941 271.181 560.091C270.303 561.527 270.108 563.106 270.095 564.649C270.081 566.303 270.642 567.68 271.56 568.73C272.192 569.453 272.938 569.961 273.65 570.32C273.3 571.249 273.155 572.231 273.199 573.197C273.307 575.561 274.548 577.919 276.695 579.232C279.068 580.683 281.761 580.846 284.111 580.678C285.756 580.56 287.529 580.244 289.079 579.968C289.682 579.861 290.251 579.759 290.765 579.678C295.242 578.97 301.316 576.591 307.466 574.181C308.037 573.958 308.608 573.734 309.178 573.511C312.523 572.206 316.503 570.182 319.591 568.522C321.147 567.685 322.5 566.927 323.465 566.378C323.948 566.104 324.334 565.881 324.6 565.727C324.734 565.649 324.837 565.589 324.908 565.548L324.989 565.5L325.018 565.483C325.018 565.483 325.019 565.482 323.727 563.291L325.018 565.483C326.228 564.769 326.631 563.209 325.918 561.999C325.204 560.789 323.645 560.386 322.434 561.1C322.434 561.1 322.434 561.1 322.434 561.1L322.412 561.113L322.338 561.156C322.273 561.195 322.175 561.252 322.047 561.326C321.792 561.474 321.419 561.689 320.95 561.956C320.012 562.489 318.694 563.227 317.181 564.041C314.13 565.682 310.373 567.584 307.328 568.772C306.822 568.97 306.321 569.166 305.824 569.36C299.417 571.866 293.867 574.037 289.971 574.653C289.244 574.768 288.552 574.891 287.882 575.011C286.448 575.267 285.114 575.505 283.748 575.603C281.808 575.742 280.388 575.527 279.349 574.892C278.767 574.536 278.319 573.793 278.282 572.966C278.254 572.364 278.444 571.773 278.987 571.304L285.188 570.736C286.587 570.608 287.617 569.37 287.489 567.971C287.361 566.572 286.123 565.542 284.724 565.67L278.024 566.283C278.02 566.283 278.016 566.283 278.013 566.282C277.914 566.276 277.76 566.264 277.571 566.238C277.18 566.186 276.704 566.089 276.265 565.92C275.815 565.747 275.539 565.551 275.391 565.382C275.29 565.267 275.179 565.095 275.182 564.691C275.192 563.491 275.357 563.015 275.522 562.745C275.663 562.514 275.967 562.171 276.836 561.7L283.21 561.116C284.609 560.988 285.64 559.75 285.512 558.351C285.384 556.952 284.146 555.922 282.747 556.05L276.209 556.648C276.188 556.643 276.165 556.637 276.141 556.63C275.936 556.573 275.652 556.466 275.36 556.275C274.865 555.949 274.1 555.232 273.885 553.39C273.709 551.878 274.539 550.195 276.597 548.312C278.601 546.479 281.287 544.913 283.623 543.68C285.206 542.845 287.072 542.003 289.191 541.047C289.957 540.702 290.756 540.341 291.587 539.961C294.653 538.556 298.032 536.929 301.319 534.93C307.885 530.936 314.316 525.316 317.267 516.661C317.72 515.332 317.009 513.886 315.68 513.433Z" fill="#825451"/>
<path d="M469.27 530.586L399.298 545.078C411.555 554.506 437.65 574.375 443.977 578.424C451.887 583.485 462.966 588.785 466.867 587.803C470.768 586.822 480.877 562.712 478.532 559.984C476.656 557.802 471.576 539.476 469.27 530.586Z" fill="#F5C19C"/>
<path d="M481.739 561.723C480.284 560.374 477.165 559.36 475.094 556.123L459.272 586.551C459.272 586.551 462.153 588.021 463.448 588.734C466.435 590.377 469.233 590.499 471.152 591.37C473.533 592.45 479.418 593.399 482.923 593.268C486.428 593.136 489.722 591.498 489.195 588.938C488.48 585.455 479.783 587.536 480.258 584.593C480.17 582.257 482.923 583.908 484.325 583.856C486.077 583.79 487.852 584.308 488.998 583.68C490.144 583.052 491.247 581.256 489.991 578.963C489.092 577.322 480.601 578.145 481.097 575.787C481.031 574.034 485.288 575.045 486.332 575.005C488.085 574.94 490.257 574.583 490.94 573.077C491.48 571.887 492.322 569.285 490.137 567.258C487.712 565.009 483.557 563.41 481.739 561.723Z" fill="#D49B7B"/>
<path fill-rule="evenodd" clip-rule="evenodd" d="M469.611 529.83C470.988 529.557 472.328 530.452 472.601 531.83C472.825 532.956 473.04 534.053 473.249 535.122C474.41 541.057 475.397 546.102 476.799 550.209C478.442 555.021 480.471 557.957 483.445 559.418C485.527 560.44 488.312 561.924 490.546 563.851C492.724 565.729 494.911 568.5 494.599 572.086C494.409 574.273 493.618 575.868 492.605 576.987C492.634 577.029 492.662 577.071 492.69 577.113C493.529 578.399 493.739 579.821 493.789 581.16C493.846 582.661 493.371 583.939 492.557 584.927C492.083 585.502 491.533 585.934 490.991 586.261C491.25 587 491.37 587.774 491.357 588.54C491.323 590.67 490.269 592.831 488.358 594.077C486.276 595.435 483.893 595.639 481.856 595.553C480.431 595.493 478.877 595.262 477.544 595.065C477.034 594.989 476.556 594.918 476.13 594.864C472.255 594.367 466.982 592.476 461.698 590.581C461.203 590.403 460.707 590.226 460.213 590.049C454.487 588.004 444.133 583.07 434.485 576.024C430.503 573.116 425.835 569.372 421.168 565.629C419.081 563.955 416.995 562.281 414.97 560.682C411.664 558.073 408.509 555.651 405.714 553.688C402.883 551.699 400.565 550.286 398.905 549.594C397.608 549.053 396.995 547.564 397.535 546.267C398.076 544.97 399.565 544.357 400.862 544.898C403.065 545.816 405.762 547.505 408.638 549.525C411.552 551.571 414.796 554.063 418.122 556.689C420.227 558.351 422.36 560.062 424.47 561.755C429.087 565.458 433.598 569.077 437.486 571.916C446.721 578.661 456.639 583.37 461.924 585.258C462.353 585.411 462.778 585.563 463.198 585.713C468.742 587.697 473.486 589.395 476.778 589.818C477.418 589.9 478.019 589.989 478.596 590.075C479.813 590.256 480.924 590.421 482.071 590.47C483.696 590.539 484.806 590.319 485.579 589.815C485.953 589.572 486.261 589.048 486.27 588.457C486.276 588.084 486.166 587.727 485.853 587.432L480.684 587.11C479.282 587.023 478.216 585.815 478.303 584.413C478.39 583.011 479.598 581.945 481 582.032L486.694 582.387C486.771 582.379 486.885 582.366 487.024 582.343C487.338 582.292 487.71 582.203 488.044 582.064C488.388 581.919 488.56 581.776 488.63 581.692C488.631 581.691 488.632 581.689 488.633 581.688C488.66 581.656 488.714 581.591 488.705 581.351C488.668 580.354 488.521 580.034 488.428 579.892C488.354 579.778 488.16 579.543 487.496 579.2L482.13 578.866C480.727 578.779 479.661 577.571 479.749 576.169C479.836 574.767 481.043 573.701 482.446 573.788L487.963 574.132C488.107 574.086 488.305 574.003 488.505 573.863C488.829 573.637 489.403 573.107 489.531 571.645C489.627 570.536 488.993 569.23 487.223 567.703C485.509 566.225 483.219 564.975 481.202 563.985C476.429 561.641 473.792 557.148 471.984 551.852C470.46 547.387 469.395 541.934 468.24 536.024C468.035 534.97 467.826 533.901 467.611 532.821C467.337 531.443 468.233 530.104 469.611 529.83Z" fill="#825451"/>
<path d="M272.121 362.495C268.941 368.827 264.858 381.019 263.795 387.722C270.807 392.756 289.099 397.468 289.099 397.468C289.099 397.468 293.26 392.679 295.664 387.146C300.732 375.48 303.485 372.121 301.312 359.784C299.671 350.473 292.656 347.148 288.396 347.377C282.934 347.672 276.237 354.298 272.121 362.495Z" fill="#F5C19C"/>
<path d="M262.735 387.146C263.691 381.967 266.908 370.101 270.27 363.1C275.293 352.64 282.164 347.998 286.109 347.216C292.999 345.85 299.433 351.34 302.417 359.155C305.401 366.969 301.285 375.166 299.542 379.817C297.233 385.975 294.904 390.953 292.653 394.713" stroke="#825451" stroke-width="4" stroke-linecap="round"/>
<path d="M198.675 489.127C216.464 494.906 244.904 493.211 262.077 492.471C263.547 492.476 272.715 495.564 275.842 498.716C279.75 502.655 280.715 507.567 282.651 515.428C284.586 523.288 287.016 529.677 296.28 544.924C305.543 560.171 315.156 559.772 326.9 565.209C338.645 570.646 358.034 574.21 373.297 574.258C395.555 574.328 422.02 570.898 435.019 563.641C442.532 559.445 456.041 552.259 456.041 552.259C466.844 554.837 491.632 559.367 491.632 559.367C494.828 554.289 505.097 524.431 501.29 521.875C490.835 514.858 484.221 489.388 468.856 463.265C456.186 441.725 445.393 441.569 408.525 436.002C378.97 431.54 362.723 439.991 348.109 435.813C329.014 430.353 325.82 415.652 323.398 406.809C320.975 397.965 314.283 377.767 296.348 371.145C244.233 351.902 212.352 386.78 186.888 394.968C161.423 403.155 159.87 421.789 162.4 438.772C166.759 468.04 177.083 482.112 198.675 489.127Z" fill="#F5C19C"/>
<path d="M198.043 429.159C198.779 411.609 187.115 396.649 182.24 398.583C177.282 399.887 171.629 405.039 168.168 409.18C161.53 417.124 157.37 429.532 163.932 449.525C172.459 475.504 192.96 486.38 192.96 486.38C192.96 486.38 197.123 451.096 198.043 429.159Z" fill="#D49B7B"/>
<path d="M286.263 486.222C293.27 482.428 296.462 478.623 300.29 474.819C300.258 484.994 297.248 489.564 294.686 495.152C292.125 500.741 289.619 507.219 288.901 514.849C288.183 522.478 287.413 525.019 287.405 527.563C286.136 526.711 282.093 517.88 281.086 514.824C279.826 511.004 279.206 505.915 277.312 501.457C275.797 497.891 271.613 493.596 269.71 491.894C271.621 491.052 278.335 490.514 286.263 486.222Z" fill="#D49B7B"/>
<path fill-rule="evenodd" clip-rule="evenodd" d="M207.762 387.076C200.597 391.292 193.709 395.24 187.03 397.387C174.93 401.278 168.36 408.032 165.129 415.594C161.853 423.261 161.88 432.067 163.609 440.143C169.74 468.776 183.381 483.188 200.091 488.617C208.604 491.383 219.253 492.252 230.07 492.306C238.13 492.345 246.118 491.936 253.258 491.57C255.694 491.446 258.032 491.326 260.239 491.231C272.582 490.699 281.502 487.382 287.286 483.607C290.185 481.716 292.269 479.728 293.615 477.945C295.001 476.109 295.459 474.689 295.483 473.909C295.525 472.505 296.698 471.401 298.102 471.443C299.506 471.486 300.61 472.658 300.568 474.063C300.5 476.31 299.389 478.739 297.676 481.01C295.923 483.332 293.378 485.707 290.066 487.868C285.99 490.528 280.71 492.893 274.196 494.453C274.754 494.808 275.28 495.214 275.744 495.681C279.887 499.858 281.147 505.053 282.765 511.722C282.911 512.328 283.061 512.946 283.217 513.576C285.07 521.103 287.368 527.248 296.55 542.36C305.25 556.679 320.25 561.534 331.401 564.68C343.647 568.136 369.053 571.688 382.089 571.109C396.528 570.467 411.595 568.157 424.588 564.382C437.667 560.582 448.297 555.396 454.208 549.227L457.881 552.747C451.032 559.894 439.353 565.39 426.007 569.267C412.576 573.17 397.102 575.534 382.315 576.191C368.638 576.8 342.684 573.151 330.019 569.577C318.885 566.435 302.029 561.176 292.202 545.002C282.857 529.62 280.294 522.987 278.277 514.793C278.16 514.319 278.047 513.858 277.937 513.411C276.164 506.174 275.237 502.395 272.132 499.265C271.718 498.847 270.956 498.382 269.802 497.945C268.683 497.521 267.376 497.191 266.052 496.943C263.465 496.456 261.066 496.325 260.394 496.317C258.279 496.408 256.014 496.524 253.634 496.646C246.465 497.013 238.262 497.434 230.045 497.393C219.081 497.339 207.795 496.47 198.519 493.456C179.652 487.326 165.039 471.124 158.634 441.209C156.769 432.494 156.629 422.539 160.45 413.595C164.316 404.547 172.109 396.841 185.473 392.544C191.526 390.598 197.934 386.956 205.181 382.691C205.758 382.352 206.34 382.009 206.926 381.663C213.624 377.712 220.95 373.391 229.001 369.805C246.643 361.948 267.866 357.575 294.689 367.479C313.6 374.461 326.456 393.577 329.078 409.623C330.345 417.375 331.282 421.856 332.829 424.759C334.192 427.317 336.088 428.739 340.1 429.887C345.469 431.422 352.757 432.002 362.64 432.183C368.394 432.288 374.899 432.258 382.299 432.224C387.599 432.2 393.36 432.174 399.633 432.194C414.847 432.241 430.671 434.944 444.088 440.537C457.481 446.119 468.731 454.695 474.325 466.648C480.764 480.406 484.144 488.897 486.624 495.216C486.744 495.521 486.861 495.82 486.977 496.115C489.253 501.922 490.753 505.746 493.367 510.428C494.052 511.654 493.613 513.204 492.386 513.889C491.16 514.574 489.61 514.135 488.925 512.908C486.138 507.918 484.522 503.795 482.277 498.065C482.149 497.74 482.02 497.41 481.888 497.074C479.432 490.817 476.096 482.434 469.717 468.805C464.85 458.404 454.847 450.533 442.13 445.233C429.437 439.942 414.293 437.327 399.618 437.281C393.45 437.262 387.721 437.288 382.421 437.312C374.955 437.345 368.339 437.375 362.547 437.269C352.649 437.088 344.77 436.513 338.701 434.778C333.818 433.382 330.545 431.29 328.339 427.152C326.318 423.359 325.286 417.963 324.057 410.444C321.688 395.948 309.887 378.514 292.927 372.251C267.636 362.913 247.812 366.996 231.071 374.453C223.298 377.915 216.213 382.093 209.48 386.064C208.904 386.403 208.332 386.741 207.762 387.076Z" fill="#825451"/>
<path d="M299.375 360.979C293.467 364.891 283.861 373.437 279.605 378.724C283.184 386.578 296.71 399.764 296.71 399.764C296.71 399.764 302.701 397.679 307.539 394.074C317.738 386.475 321.797 384.93 326.047 373.146C329.255 364.252 324.823 357.879 321.014 355.959C316.128 353.497 307.023 355.915 299.375 360.979Z" fill="#F5C19C"/>
<path d="M278.972 377.696C282.376 373.679 291.07 364.985 297.469 360.583C307.029 354.007 315.298 353.397 319.11 354.681C325.767 356.924 328.617 364.887 327.319 373.15C326.021 381.413 318.374 386.477 314.548 389.645C309.483 393.839 304.986 397 301.163 399.142" stroke="#825451" stroke-width="4" stroke-linecap="round"/>
<path fill-rule="evenodd" clip-rule="evenodd" d="M252.803 399.058C253.271 400.383 252.577 401.836 251.252 402.304C250.989 402.397 250.155 402.777 248.798 403.44C247.508 404.071 245.887 404.887 244.153 405.772C242.382 406.676 240.501 407.647 238.75 408.558L251.152 414.583C252.416 415.197 252.943 416.719 252.329 417.983C251.715 419.247 250.193 419.773 248.929 419.159L231.989 410.929C231.127 410.51 230.573 409.641 230.557 408.682C230.542 407.723 231.067 406.837 231.916 406.39C234.446 405.058 238.349 403.022 241.841 401.24C243.585 400.35 245.236 399.519 246.564 398.87C247.826 398.253 248.956 397.72 249.557 397.507C250.882 397.039 252.335 397.733 252.803 399.058Z" fill="#825451"/>
<path fill-rule="evenodd" clip-rule="evenodd" d="M240.434 384.91C240.817 383.559 242.223 382.773 243.575 383.157L259.46 387.658C260.811 388.041 261.597 389.447 261.214 390.799C260.83 392.151 259.424 392.936 258.072 392.553L242.188 388.051C240.836 387.668 240.051 386.262 240.434 384.91Z" fill="#825451"/>
<path fill-rule="evenodd" clip-rule="evenodd" d="M173.079 413.646C169.094 414.118 166.617 415.27 162.816 417.962C161.669 418.774 161.398 420.362 162.21 421.509C163.022 422.655 164.61 422.926 165.756 422.114C169.1 419.746 170.783 419.041 173.677 418.699C175.072 418.534 176.069 417.269 175.904 415.874C175.739 414.478 174.474 413.481 173.079 413.646Z" fill="#825451"/>
<path fill-rule="evenodd" clip-rule="evenodd" d="M174.225 472.322C172.928 471.781 172.316 470.291 172.857 468.994C176.526 460.206 174.583 455.264 172.868 453.789C172.066 453.099 171.295 453.046 170.627 453.353C169.866 453.702 168.723 454.777 168.005 457.372C167.63 458.726 166.228 459.52 164.874 459.145C163.521 458.77 162.727 457.369 163.102 456.015C164.069 452.521 165.937 449.909 168.503 448.73C171.162 447.507 174.035 448.082 176.186 449.932C180.376 453.537 181.572 461.325 177.552 470.954C177.011 472.251 175.521 472.863 174.225 472.322Z" fill="#825451"/>
<path d="M309.756 381.809C305.022 386.896 298.774 389.216 295.918 386.558C289.982 381.033 296.199 378.42 300.933 373.333C305.668 368.246 311.155 366.362 313.063 368.137C314.97 369.912 314.491 376.722 309.756 381.809Z" fill="#D49B7B"/>
<path d="M505.761 524.899C503.792 524.013 500.225 524.05 496.965 521.432L491.216 558.297C491.216 558.297 494.697 558.812 496.28 559.097C499.93 559.754 502.857 558.909 505.138 559.14C507.967 559.428 514.365 558.363 517.933 557.011C521.501 555.658 524.328 552.826 522.896 550.369C520.949 547.026 512.705 552.191 512.173 548.993C511.271 546.614 514.683 547.361 516.11 546.82C517.894 546.144 519.904 546.062 520.868 545.017C521.832 543.971 522.345 541.736 520.254 539.809C518.757 538.429 510.288 542.226 509.981 539.622C509.305 537.838 514.044 537.402 515.108 536.998C516.892 536.322 519.007 535.201 519.189 533.411C519.333 531.996 519.297 529.021 516.34 527.69C513.06 526.213 508.221 526.006 505.761 524.899Z" fill="#D49B7B"/>
<path fill-rule="evenodd" clip-rule="evenodd" d="M484.454 497.231C485.744 496.675 487.241 497.27 487.797 498.56C490.954 505.884 493.746 511.591 496.809 515.609C499.818 519.557 502.916 521.652 506.69 522.151C509.188 522.482 512.551 523.042 515.495 524.242C518.371 525.414 521.503 527.471 522.4 531.171C522.972 533.529 522.674 535.453 521.985 536.938C522.077 537.003 522.167 537.07 522.256 537.14C523.52 538.138 524.213 539.485 524.724 540.835C525.284 542.311 525.238 543.736 524.761 544.987C524.457 545.784 524.004 546.445 523.528 546.979C524.093 547.665 524.511 548.45 524.775 549.276C525.458 551.42 525.13 553.935 523.643 555.819C522.01 557.889 519.676 558.91 517.564 559.523C516.086 559.952 514.425 560.25 512.985 560.509C512.429 560.608 511.907 560.702 511.44 560.796C507.298 561.623 501.23 561.505 495.115 561.386C494.545 561.375 493.974 561.363 493.405 561.353C486.813 561.233 474.445 559.744 462.074 555.836C456.963 554.221 450.859 551.985 444.751 549.747C442.017 548.745 439.282 547.743 436.635 546.796C432.32 545.252 428.221 543.849 424.652 542.794C421.04 541.726 418.139 541.067 416.162 540.928C414.761 540.83 413.704 539.614 413.803 538.213C413.901 536.811 415.117 535.755 416.518 535.853C419.083 536.033 422.431 536.832 426.095 537.915C429.803 539.011 434.009 540.453 438.348 542.005C441.091 542.986 443.881 544.009 446.644 545.021C452.692 547.238 458.608 549.406 463.606 550.984C475.492 554.739 487.373 556.155 493.498 556.266C493.998 556.275 494.493 556.285 494.983 556.294C501.373 556.415 506.878 556.519 510.443 555.806C511.121 555.671 511.767 555.555 512.39 555.444C513.714 555.207 514.935 554.988 516.146 554.637C517.862 554.138 518.984 553.51 519.649 552.668C519.999 552.224 520.143 551.499 519.927 550.821C519.779 550.355 519.478 549.958 518.945 549.741L513.429 551.224C512.072 551.588 510.677 550.784 510.312 549.427C509.947 548.071 510.751 546.675 512.108 546.31L518.119 544.694C518.2 544.659 518.324 544.601 518.473 544.522C518.789 544.355 519.158 544.125 519.471 543.849C519.793 543.567 519.948 543.331 520.007 543.174C520.042 543.083 520.083 542.945 519.967 542.638C519.577 541.609 519.296 541.285 519.104 541.134C518.944 541.008 518.612 540.818 517.752 540.691L512.057 542.222C510.701 542.587 509.305 541.783 508.94 540.426C508.575 539.069 509.38 537.674 510.736 537.309L516.583 535.737C516.591 535.731 516.599 535.726 516.607 535.72C516.755 535.613 516.953 535.441 517.132 535.199C517.426 534.801 517.848 533.988 517.456 532.37C517.145 531.087 515.953 529.922 513.576 528.954C511.267 528.013 508.448 527.516 506.022 527.195C500.488 526.462 496.295 523.328 492.762 518.693C489.282 514.127 486.281 507.897 483.125 500.574C482.569 499.284 483.164 497.787 484.454 497.231ZM518.024 544.735L518.024 544.735L518.024 544.735Z" fill="#825451"/>
<path fill-rule="evenodd" clip-rule="evenodd" d="M221.119 387.468C217.541 382.926 214.588 380.183 210.985 378.196C209.755 377.517 209.308 375.97 209.986 374.74C210.665 373.51 212.212 373.063 213.442 373.741C217.853 376.174 221.299 379.475 225.116 384.32C225.985 385.423 225.795 387.023 224.692 387.892C223.588 388.762 221.989 388.572 221.119 387.468Z" fill="#825451"/>
<path fill-rule="evenodd" clip-rule="evenodd" d="M292.061 410.525L272.966 407.272L273.675 402.258L292.771 405.511C294.162 405.748 295.131 407.063 294.935 408.448C294.739 409.832 293.453 410.762 292.061 410.525Z" fill="#825451"/>
<path fill-rule="evenodd" clip-rule="evenodd" d="M216.15 401.884C216.248 399.517 216.645 397.141 217.362 394.807L249.602 387.22L251.117 393.656L216.15 401.884Z" fill="white" fill-opacity="0.15"/>
<path d="M271.793 414.742C266.39 428.258 250.543 434.677 236.273 428.792C222.002 422.907 215.045 407.084 220.447 393.567C225.85 380.05 241.697 373.631 255.967 379.516C270.238 385.401 277.195 401.225 271.793 414.742Z" fill="url(#paint0_linear_4025_7777)" fill-opacity="0.3" stroke="#825451" stroke-width="5"/>
<path fill-rule="evenodd" clip-rule="evenodd" d="M288.51 432.644C289.308 432.096 290.399 432.3 290.947 433.098L296.401 441.05C296.948 441.848 296.745 442.94 295.947 443.487C295.148 444.035 294.057 443.832 293.509 443.033L288.056 435.081C287.508 434.283 287.711 433.192 288.51 432.644Z" fill="#D49B7B"/>
<path fill-rule="evenodd" clip-rule="evenodd" d="M350.859 476.852C351.646 476.289 352.741 476.471 353.305 477.258L358.915 485.1C359.479 485.888 359.297 486.983 358.509 487.546C357.722 488.109 356.627 487.928 356.064 487.14L350.453 479.298C349.89 478.511 350.071 477.416 350.859 476.852Z" fill="#D49B7B"/>
<path fill-rule="evenodd" clip-rule="evenodd" d="M429.402 463.35C430.06 462.639 431.169 462.596 431.88 463.253L438.958 469.801C439.669 470.459 439.712 471.568 439.054 472.279C438.397 472.99 437.287 473.033 436.577 472.375L429.499 465.827C428.788 465.17 428.745 464.06 429.402 463.35Z" fill="#D49B7B"/>
<path fill-rule="evenodd" clip-rule="evenodd" d="M394.835 487.113C395.443 486.359 396.547 486.242 397.3 486.851L404.8 492.912C405.553 493.52 405.67 494.624 405.061 495.377C404.453 496.13 403.349 496.247 402.596 495.639L395.096 489.578C394.343 488.969 394.226 487.866 394.835 487.113Z" fill="#D49B7B"/>
<path fill-rule="evenodd" clip-rule="evenodd" d="M435.52 492.328C436.128 491.575 437.232 491.458 437.985 492.066L445.485 498.127C446.238 498.735 446.355 499.839 445.747 500.592C445.138 501.345 444.034 501.463 443.281 500.854L435.782 494.793C435.028 494.185 434.911 493.081 435.52 492.328Z" fill="#D49B7B"/>
<path fill-rule="evenodd" clip-rule="evenodd" d="M459.782 520.497C460.39 519.743 461.494 519.626 462.247 520.235L469.747 526.296C470.5 526.904 470.617 528.008 470.008 528.761C469.4 529.514 468.296 529.631 467.543 529.023L460.043 522.962C459.29 522.353 459.173 521.25 459.782 520.497Z" fill="#D49B7B"/>
<path fill-rule="evenodd" clip-rule="evenodd" d="M328.648 502.168C329.256 501.415 330.36 501.297 331.113 501.906L338.613 507.967C339.366 508.575 339.483 509.679 338.874 510.432C338.266 511.185 337.162 511.302 336.409 510.694L328.909 504.633C328.156 504.025 328.039 502.921 328.648 502.168Z" fill="#D49B7B"/>
<path fill-rule="evenodd" clip-rule="evenodd" d="M429.069 521.562C429.677 520.809 430.781 520.692 431.534 521.3L439.034 527.361C439.787 527.969 439.904 529.073 439.295 529.826C438.687 530.579 437.583 530.696 436.83 530.088L429.33 524.027C428.577 523.419 428.46 522.315 429.069 521.562Z" fill="#D49B7B"/>
<path fill-rule="evenodd" clip-rule="evenodd" d="M294.297 432.726C295.028 432.082 296.143 432.151 296.788 432.882L302.887 439.797C303.532 440.528 303.462 441.643 302.731 442.288C302 442.932 300.885 442.862 300.241 442.132L294.141 435.217C293.497 434.486 293.567 433.371 294.297 432.726Z" fill="#D49B7B"/>
<path fill-rule="evenodd" clip-rule="evenodd" d="M355.14 476.491C355.656 475.664 356.745 475.412 357.571 475.928L365.393 480.811C366.22 481.327 366.472 482.415 365.956 483.242C365.44 484.068 364.351 484.32 363.525 483.804L355.703 478.922C354.876 478.406 354.624 477.317 355.14 476.491Z" fill="#D49B7B"/>
<path fill-rule="evenodd" clip-rule="evenodd" d="M434.822 461.478C435.338 460.651 436.426 460.4 437.253 460.916L445.075 465.798C445.902 466.314 446.153 467.402 445.637 468.229C445.121 469.056 444.033 469.307 443.206 468.792L435.384 463.909C434.558 463.393 434.306 462.305 434.822 461.478Z" fill="#D49B7B"/>
<path fill-rule="evenodd" clip-rule="evenodd" d="M401.96 483.832C402.737 483.243 403.843 483.396 404.432 484.172L410.003 491.52C410.591 492.296 410.439 493.403 409.663 493.992C408.886 494.581 407.779 494.428 407.191 493.652L401.62 486.304C401.031 485.527 401.184 484.421 401.96 483.832Z" fill="#D49B7B"/>
<path fill-rule="evenodd" clip-rule="evenodd" d="M442.983 488.809C443.796 488.272 444.89 488.495 445.428 489.308L450.511 497.001C451.048 497.814 450.824 498.909 450.011 499.446C449.198 499.983 448.104 499.76 447.567 498.947L442.483 491.254C441.946 490.441 442.17 489.346 442.983 488.809Z" fill="#D49B7B"/>
<path fill-rule="evenodd" clip-rule="evenodd" d="M467.134 517.052C467.935 516.498 469.034 516.698 469.588 517.5L474.831 525.085C475.385 525.887 475.185 526.986 474.383 527.54C473.582 528.094 472.483 527.893 471.928 527.092L466.685 519.507C466.131 518.705 466.332 517.606 467.134 517.052Z" fill="#D49B7B"/>
<path fill-rule="evenodd" clip-rule="evenodd" d="M335.255 499.325C335.965 498.657 337.082 498.691 337.75 499.401L344.07 506.115C344.737 506.824 344.704 507.941 343.994 508.609C343.285 509.277 342.168 509.243 341.5 508.534L335.18 501.819C334.512 501.11 334.546 499.993 335.255 499.325Z" fill="#D49B7B"/>
<path fill-rule="evenodd" clip-rule="evenodd" d="M434.638 519.986C435.154 519.159 436.243 518.907 437.069 519.423L444.891 524.306C445.718 524.822 445.97 525.91 445.454 526.737C444.938 527.563 443.849 527.815 443.023 527.299L435.201 522.417C434.374 521.901 434.122 520.812 434.638 519.986Z" fill="#D49B7B"/>
<path d="M392.427 432.405C389.359 435.997 379.783 450.4 378.501 468.544L342.669 448.805C342.669 448.805 359.266 419.258 360.058 417.857C361.883 414.63 364.404 412.918 365.682 411.014C367.268 408.653 372.173 404.411 375.493 402.529C378.813 400.648 382.797 400.281 383.774 402.952C385.102 406.586 375.863 409.63 377.984 412.083C379.238 414.296 380.842 411.193 382.17 410.441C383.83 409.5 385.176 408.006 386.596 407.932C388.017 407.858 390.064 408.89 390.212 411.731C390.318 413.763 381.987 417.855 383.794 419.754C384.735 421.414 388.098 418.046 389.087 417.485C390.747 416.544 392.961 415.633 394.454 416.636C395.635 417.429 397.901 419.357 397.037 422.482C396.078 425.95 394.18 430.354 392.427 432.405Z" fill="#F5C19C"/>
<path d="M392.427 432.405C391.852 434.486 389.544 437.207 389.477 441.388L357.439 422.266C357.439 422.266 359.266 419.258 360.058 417.857C361.883 414.63 364.403 412.918 365.682 411.014C367.268 408.653 372.173 404.411 375.493 402.529C378.812 400.648 382.797 400.281 383.774 402.953C385.102 406.586 375.862 409.63 377.984 412.083C379.238 414.296 380.842 411.193 382.17 410.441C383.83 409.5 385.176 408.006 386.596 407.932C388.016 407.858 390.064 408.891 390.212 411.731C390.317 413.763 381.987 417.855 383.794 419.754C384.735 421.414 388.097 418.046 389.087 417.485C390.747 416.544 392.961 415.633 394.454 416.636C395.634 417.429 397.901 419.357 397.037 422.482C396.078 425.95 393.146 429.805 392.427 432.405Z" fill="#D49B7B"/>
<path fill-rule="evenodd" clip-rule="evenodd" d="M379.319 470.171C380.698 469.898 381.594 468.56 381.321 467.181C379.989 460.456 381.992 454.18 385.14 448.422C386.711 445.547 388.536 442.86 390.315 440.354C390.755 439.734 391.198 439.117 391.635 438.508C392.925 436.714 394.164 434.99 395.134 433.446C396.475 431.312 398.192 428.367 399.15 425.335C400.085 422.374 400.502 418.65 398.228 415.596C396.779 413.65 395.109 412.651 393.526 412.232C393.535 412.121 393.541 412.008 393.543 411.895C393.583 410.285 392.989 408.892 392.277 407.636C391.498 406.262 390.372 405.387 389.105 404.956C388.298 404.68 387.5 404.607 386.785 404.632C386.618 403.759 386.281 402.936 385.814 402.206C384.601 400.31 382.456 398.957 380.056 398.898C377.421 398.832 375.145 399.976 373.324 401.21C372.05 402.073 370.759 403.16 369.641 404.103C369.209 404.467 368.803 404.809 368.433 405.109C365.151 407.767 361.366 412.512 357.552 417.293C357.197 417.739 356.841 418.185 356.485 418.629C352.29 423.875 345.956 435.52 341.121 447.39C340.591 448.691 341.216 450.175 342.517 450.705C343.818 451.236 345.303 450.61 345.833 449.309C350.594 437.62 356.71 426.494 360.459 421.807C360.771 421.417 361.08 421.029 361.386 420.646C365.375 415.652 368.81 411.351 371.636 409.062C372.173 408.627 372.674 408.204 373.158 407.796C374.186 406.929 375.134 406.129 376.178 405.421C377.658 404.419 378.858 403.957 379.93 403.984C380.496 403.998 381.146 404.35 381.529 404.949C381.793 405.361 381.906 405.846 381.733 406.395L377.069 409.692C375.922 410.503 375.649 412.09 376.46 413.237C377.271 414.385 378.858 414.657 380.006 413.846L385.088 410.254C385.167 410.214 385.291 410.156 385.447 410.091C385.777 409.955 386.19 409.818 386.602 409.753C387.025 409.686 387.305 409.717 387.464 409.771C387.556 409.803 387.689 409.859 387.851 410.145C388.394 411.102 388.463 411.526 388.457 411.769C388.452 411.973 388.386 412.349 387.934 413.093L383.119 416.497C381.972 417.308 381.699 418.895 382.51 420.042C383.321 421.189 384.909 421.462 386.056 420.651L391 417.156C391.009 417.154 391.019 417.151 391.029 417.149C391.205 417.103 391.464 417.06 391.764 417.078C392.258 417.106 393.154 417.3 394.148 418.635C394.936 419.694 395.071 421.355 394.298 423.803C393.547 426.18 392.129 428.666 390.827 430.738C389.947 432.138 388.845 433.672 387.589 435.42C387.134 436.054 386.658 436.716 386.166 437.409C384.355 439.961 382.392 442.841 380.676 445.981C377.247 452.252 374.671 459.793 376.33 468.17C376.603 469.548 377.941 470.444 379.319 470.171ZM384.997 410.301L384.997 410.301L384.997 410.301Z" fill="#825451"/>
<path d="M783.925 240.401C775.459 280.844 619.554 243.72 510.418 220.857C401.283 197.995 249.428 152.726 257.894 112.283C263.952 95.6769 313.668 92.9402 385.115 102.345C421.55 102.347 432.727 42.4224 542.796 69.5657C631.363 84.4177 643.466 163.418 687.166 177.63C757.343 200.453 789.143 215.477 783.925 240.401Z" fill="#825451"/>
<path d="M611.123 135.543C534.114 105.66 505.185 98 434.266 98C450.076 100.869 487.143 102.074 523.075 110.029C572.644 121.002 620.305 139.106 611.123 135.543Z" fill="#FAFAFA"/>
<path d="M507.037 134.203C642.162 161.003 784.047 236.444 774.841 232.878L773.22 232.25C723.582 213.021 608.274 168.351 480.561 137.251C423.255 123.296 359.214 109.51 299.21 107.539C296.967 107.322 320.27 114.729 321.574 118.916C306.899 119.512 294.751 119.227 286.797 123.535C281.609 126.345 283.097 130.558 290.645 135.433C299.924 141.427 413.847 191.573 413.483 193.145C412.693 196.548 299.21 149.338 280.131 137.251C269.698 129.598 265.462 124.914 263.319 122.742C259.42 117.344 260.004 107.539 274.624 104.442C364.526 92.7806 471.013 126.242 507.037 134.203Z" fill="#FAFAFA"/>
<path d="M737.602 225.073C623.996 171.819 426.709 132.835 342.266 120C397.132 137.525 485.451 147.903 551.523 167.968C651.418 195.705 816.408 262.015 737.602 225.073Z" fill="#FAFAFA"/>
<path d="M590.249 237.707C590.147 238.192 589.769 238.83 588.674 239.539C587.573 240.251 585.923 240.913 583.68 241.463C579.202 242.56 572.811 243.107 564.902 243.051C549.119 242.941 527.716 240.437 504.459 235.543C481.202 230.649 460.604 224.313 446.114 218.052C438.853 214.916 433.224 211.839 429.568 209.03C427.736 207.623 426.493 206.352 425.772 205.257C425.055 204.167 424.967 203.43 425.069 202.945C425.171 202.46 425.549 201.821 426.644 201.112C427.744 200.4 429.394 199.738 431.638 199.189C436.115 198.091 442.506 197.545 450.415 197.6C466.199 197.711 487.602 200.214 510.859 205.108C534.116 210.003 554.713 216.338 569.203 222.599C576.464 225.736 582.093 228.812 585.749 231.621C587.581 233.029 588.825 234.299 589.545 235.395C590.262 236.485 590.351 237.221 590.249 237.707Z" fill="#FAFAFA" stroke="#825451" stroke-width="4"/>
<path d="M590.11 91.313C617.786 103.046 638.412 134.66 645.266 149C637.094 137.386 632.793 126.955 615.757 110.929C591.218 87.845 543.63 78.2344 538.763 80.3872C533.897 82.54 536.047 89.0316 527.561 97.1795C520.773 103.698 474.709 82.6216 428.341 98.3215C456.191 101.798 515.829 110.672 522.878 113.801C531.69 117.712 524.837 126.512 517.33 126.512C509.824 126.512 471.965 117.386 454.015 113.801C436.064 110.216 391.678 104.676 393.31 104.024C394.942 103.372 409.483 101.581 417.316 98.3215C431.344 92.4849 424.315 85.1207 468.375 74.0396C512.434 62.9585 555.515 76.6469 590.11 91.313Z" fill="#FAFAFA"/>
<ellipse cx="40.353" cy="8.87562" rx="40.353" ry="8.87562" transform="matrix(0.974141 0.225942 -0.225784 0.974177 464.407 209.711)" fill="#825451"/>
<line x1="489.406" y1="236.834" x2="437.505" y2="406.759" stroke="#825451" stroke-width="3" stroke-dasharray="6 6"/>
<line x1="461.588" y1="228.389" x2="343.558" y2="381.84" stroke="#825451" stroke-width="3" stroke-dasharray="6 6"/>
<line x1="514.534" y1="245.215" x2="518.136" y2="471.976" stroke="#825451" stroke-width="3" stroke-dasharray="6 6"/>
<path d="M145.086 185.962L83.3084 221.154C85.234 222.229 89.2631 224.451 89.9744 224.741C90.8634 225.103 96.76 228.742 101.071 232.755C105.383 236.767 109.473 243.128 110.706 244.656C111.938 246.184 122.121 265.879 127.228 276.15C132.336 286.421 137.79 292.262 144.906 298.278C152.023 304.293 154.756 304.502 159.36 303.238C163.964 301.974 165.134 298.126 166.022 296.759C166.909 295.392 203.529 245.153 206.405 240.527C209.281 235.901 207.09 233.461 202.356 229.929C198.569 227.104 194.03 220.888 192.234 218.133L179.843 230.403C177.162 225.199 170.317 212.273 164.394 202.196C158.471 192.118 149.054 187.174 145.086 185.962Z" fill="#825451" stroke="#FAFAFA"/>
<path d="M148.957 196.664L105.178 224.513L107.906 228.259L151.437 199.021L148.957 196.664Z" fill="#825451" stroke="#FAFAFA"/>
<path d="M156.082 204.314L113.352 234.617L116.079 238.363L158.572 207.805L156.082 204.314Z" fill="#825451" stroke="#FAFAFA"/>
<path d="M162.276 213.213L121.367 246.392L124.033 250.481L163.553 217.549L162.276 213.213Z" fill="#825451" stroke="#FAFAFA"/>
<path d="M180.01 230.412L142.488 269.579C145.034 273.812 151.308 282.872 156.036 285.249C161.946 288.22 164.814 290.787 165.008 293.655C165.164 295.949 164.243 299.513 163.763 301.009" stroke="#FAFAFA"/>
<path d="M727.846 501.647L683.968 460.198C683.573 462.028 682.769 465.851 682.71 466.5C682.636 467.312 681.144 473.003 678.956 477.498C676.768 481.994 672.62 486.892 671.685 488.271C670.75 489.651 657.29 502.8 650.219 509.493C643.149 516.186 639.761 522.063 636.643 529.333C633.525 536.603 634.033 538.874 636.2 542.3C638.367 545.725 641.78 545.723 643.11 546.104C644.44 546.486 694.293 563.777 698.761 564.966C703.229 566.155 704.666 563.771 706.359 559.052C707.713 555.276 711.633 550.049 713.424 547.908L700.393 540.886C703.952 537.419 712.746 528.658 719.457 521.35C726.168 514.043 727.846 505.17 727.846 501.647Z" fill="#825451" stroke="#FAFAFA"/>
<path d="M720.115 507.447L686.663 478.794L684.299 481.938L718.817 510.045L720.115 507.447Z" fill="#825451" stroke="#FAFAFA"/>
<path d="M715.672 515.13L680.488 487.936L678.124 491.08L713.456 518.018L715.672 515.13Z" fill="#825451" stroke="#FAFAFA"/>
<path d="M709.985 522.366L672.919 497.364L670.261 500.543L706.783 524.478L709.985 522.366Z" fill="#825451" stroke="#FAFAFA"/>
<path d="M700.423 541.032L659.336 520.265C656.532 523.382 650.734 530.723 649.977 535.152C649.031 540.688 647.658 543.654 645.379 544.522C643.556 545.217 640.434 545.353 639.102 545.333" stroke="#FAFAFA"/>
</g>
<defs>
<linearGradient id="paint0_linear_4025_7777" x1="256.895" y1="377.195" x2="249.808" y2="439.144" gradientUnits="userSpaceOnUse">
<stop stop-color="white"/>
<stop offset="1" stop-color="#C0C8FE" stop-opacity="0"/>
</linearGradient>
<clipPath id="clip0_4025_7777">
<rect width="1068" height="750" fill="white"/>
</clipPath>
</defs>
</svg>
