<svg viewBox="0 0 295 288" fill="none" xmlns="http://www.w3.org/2000/svg">
<g clip-path="url(#clip0_4219_37472)">
<path d="M193.127 206.869C178.335 213.812 149.803 224.238 118.084 221.557C98.3562 219.89 60.3703 203.158 47.6825 206.869C31.8228 211.508 27.1811 235.859 34.1439 252.867C41.1066 269.874 62.3817 272.58 92.5537 272.193C122.726 271.807 174.56 276.445 227.168 272.193C279.775 267.941 286.351 238.951 284.804 212.667C283.086 183.488 265.305 185.582 258.627 186.368L258.5 186.383C251.924 187.156 218.658 194.887 193.127 206.869Z" fill="#EFF6FF"/>
<path d="M140.464 227.095C143.964 226.595 145.964 226.595 148.964 225.595L153.464 245.595C153.464 245.595 151.053 246.791 149.964 247.095C147.453 247.797 146.254 247.239 143.964 247.095C141.954 246.969 140.155 247.197 137.464 246.595C134.773 245.994 133.447 245.585 134.172 243.891C135.158 241.586 140.965 242.699 140.964 240.595C141.322 238.992 137.04 240.836 135.964 240.595C134.618 240.295 133.271 240.696 132.464 240.095C131.656 239.494 131.77 237.371 132.464 236.595C133.362 235.591 137.817 236.799 137.727 235.095C137.996 233.893 134.833 233.913 133.797 233.848C132.421 233.762 132.804 233.736 132.464 232.595C132.194 231.693 132.053 228.341 134.172 227.672C136.823 226.836 138.633 227.357 140.464 227.095Z" fill="#D49B7B"/>
<path d="M154.37 217.001L156.347 217.298L154.37 217.001ZM141.964 226.596L141.703 224.613L141.964 226.596ZM133.237 230.096L135.173 230.595L133.237 230.096ZM140.202 232.113C141.297 231.968 142.302 232.739 142.447 233.834C142.592 234.929 141.822 235.934 140.727 236.079L140.202 232.113ZM133.464 239.596L134.964 238.273L133.464 239.596ZM141.265 238.606C142.364 238.496 143.345 239.298 143.454 240.397C143.564 241.496 142.762 242.476 141.663 242.586L141.265 238.606ZM157.004 247.319L157.063 245.32L157.004 247.319ZM198.389 238.931C199.308 238.319 200.55 238.568 201.162 239.488C201.774 240.407 201.525 241.649 200.605 242.261L198.389 238.931ZM197.239 190.395C197.879 191.296 197.667 192.544 196.766 193.184C195.865 193.823 194.617 193.611 193.978 192.71L197.239 190.395ZM160.497 189.923L161.91 191.339L161.909 191.339L160.497 189.923ZM156.347 217.298C155.597 222.303 154.439 225.39 151.601 226.909C150.3 227.605 148.823 227.863 147.361 228.036C145.699 228.232 144.341 228.3 142.226 228.579L141.703 224.613C143.658 224.355 145.699 224.205 146.892 224.064C148.285 223.899 149.119 223.701 149.714 223.382C150.669 222.871 151.643 221.698 152.392 216.705L156.347 217.298ZM142.226 228.579C140.223 228.843 138.582 228.899 137.092 229.287C135.677 229.655 135.297 230.114 135.173 230.595L131.3 229.598C131.977 226.964 134.212 225.903 136.085 225.416C137.883 224.948 140.206 224.811 141.703 224.613L142.226 228.579ZM135.173 230.595C134.966 231.399 135.189 231.993 135.503 232.453C135.668 232.695 135.852 232.886 135.995 233.015C136.065 233.078 136.12 233.122 136.151 233.146C136.166 233.157 136.174 233.163 136.175 233.164C136.176 233.164 136.174 233.163 136.171 233.161C136.169 233.16 136.166 233.158 136.163 233.156C136.162 233.155 136.16 233.154 136.159 233.153C136.158 233.152 136.157 233.151 136.156 233.151C136.155 233.151 136.155 233.15 136.154 233.15C136.154 233.149 136.153 233.149 135.045 234.814C133.936 236.479 133.936 236.478 133.935 236.478C133.935 236.477 133.934 236.477 133.933 236.476C133.932 236.476 133.931 236.475 133.93 236.474C133.927 236.473 133.925 236.471 133.922 236.469C133.917 236.465 133.911 236.461 133.904 236.457C133.891 236.447 133.875 236.436 133.856 236.423C133.82 236.397 133.774 236.364 133.72 236.322C133.613 236.24 133.472 236.127 133.312 235.982C132.995 235.695 132.582 235.269 132.199 234.707C131.416 233.558 130.735 231.793 131.3 229.598L135.173 230.595ZM134.782 232.831L140.202 232.113L140.727 236.079L135.307 236.796L134.782 232.831ZM135.625 236.728C134.902 236.947 134.747 237.29 134.707 237.438C134.653 237.638 134.685 237.957 134.964 238.273L131.965 240.919C130.879 239.689 130.412 238.008 130.844 236.4C131.29 234.738 132.607 233.463 134.464 232.9L135.625 236.728ZM134.964 238.273C135.39 238.756 135.807 238.948 136.077 239.03C136.218 239.074 136.327 239.089 136.383 239.094C136.411 239.097 136.424 239.097 136.42 239.097C136.418 239.097 136.412 239.097 136.4 239.097C136.395 239.097 136.388 239.098 136.38 239.098C136.376 239.098 136.371 239.098 136.366 239.098C136.364 239.099 136.362 239.099 136.359 239.099C136.358 239.099 136.356 239.099 136.355 239.099C136.354 239.099 136.353 239.099 136.353 239.099C136.352 239.099 136.351 239.099 136.464 241.096C136.578 243.093 136.577 243.093 136.576 243.093C136.575 243.093 136.574 243.093 136.573 243.093C136.572 243.093 136.571 243.093 136.569 243.093C136.566 243.093 136.563 243.094 136.56 243.094C136.554 243.094 136.547 243.094 136.54 243.095C136.526 243.095 136.509 243.096 136.492 243.096C136.456 243.097 136.414 243.097 136.366 243.097C136.269 243.095 136.147 243.09 136.003 243.076C135.716 243.049 135.338 242.988 134.904 242.855C134.025 242.585 132.942 242.027 131.965 240.919L134.964 238.273ZM136.265 239.106L141.265 238.606L141.663 242.586L136.663 243.086L136.265 239.106ZM137.468 242.826C137.159 243.005 137.132 243.153 137.124 243.204C137.109 243.299 137.118 243.54 137.352 243.876C137.807 244.527 139.057 245.366 141.23 245.11L141.699 249.082C138.319 249.481 135.509 248.225 134.072 246.165C133.36 245.145 132.966 243.876 133.174 242.574C133.388 241.228 134.21 240.091 135.461 239.366L137.468 242.826ZM141.23 245.11C146.971 244.432 149.829 245.106 157.063 245.32L156.945 249.318C149.1 249.086 147.063 248.449 141.699 249.082L141.23 245.11ZM157.063 245.32C161.407 245.448 170.284 244.864 178.919 243.697C183.224 243.116 187.419 242.397 190.917 241.564C194.498 240.711 197.089 239.796 198.389 238.931L200.605 242.261C198.655 243.559 195.434 244.6 191.844 245.455C188.171 246.329 183.836 247.07 179.454 247.661C170.717 248.841 161.598 249.455 156.945 249.318L157.063 245.32ZM152.392 216.705C152.537 215.735 152.508 214.181 152.476 211.96C152.446 209.835 152.422 207.276 152.642 204.589C153.079 199.253 154.5 193.079 159.085 188.507L161.909 191.339C158.328 194.911 157.038 199.923 156.629 204.915C156.426 207.392 156.445 209.781 156.476 211.902C156.505 213.927 156.555 215.916 156.347 217.298L152.392 216.705ZM159.085 188.507C169.8 177.822 187.766 177.051 197.239 190.395L193.978 192.71C186.229 181.795 171.249 182.025 161.91 191.339L159.085 188.507Z" fill="#825451"/>
<path d="M151.412 29.8643C148.967 34.8705 145.863 44.4907 145.086 49.7696C150.642 53.6664 165.064 57.2118 165.064 57.2118C165.064 57.2118 168.293 53.411 170.135 49.0399C174.018 39.8245 176.153 37.1596 174.337 27.4796C172.967 20.1739 167.423 17.6209 164.076 17.8383C159.784 18.117 154.577 23.3846 151.412 29.8643Z" fill="#F5C19C"/>
<path d="M144.248 49.3261C144.955 45.2469 147.381 35.8895 149.963 30.3567C153.821 22.0898 159.183 18.3806 162.278 17.7316C167.683 16.598 172.788 20.8586 175.202 26.976C177.616 33.0935 174.451 39.5731 173.121 43.2447C171.36 48.1062 169.572 52.0404 167.835 55.0158" stroke="#825451" stroke-width="4" stroke-linecap="round"/>
<path d="M77.7398 112.034C90.098 120.004 103.799 124.109 117 127C118.117 127.3 121.927 134.058 122.5 137.5C123 140.5 124.953 144.411 121.864 149.976C117.862 157.186 110.668 171.976 112.168 179.976C114.181 190.709 114.709 198.684 116.668 202.976C119.864 209.976 124.866 217.645 127 219.5C138.5 229.5 143 232 150.5 234C158.713 236.191 159.5 235.5 159.5 235.5L163.5 252.5L186.5 253.5L210 249.976C210 249.976 221 246.001 226.5 240C232 234 238.542 229.164 238.5 210C238.458 190.353 232.5 173 228 163.5C223.5 154 195.132 133.788 192.668 121.833C189.091 104.476 189.154 81.7577 189.091 74.5488C189.028 67.3399 188.004 50.6425 175.703 42.0021C139.963 16.8964 108.717 36.9943 87.716 38.0963C66.7152 39.1983 61.787 53.0485 60.2945 66.4658C57.7224 89.5879 62.7389 102.359 77.7398 112.034Z" fill="#F5C19C"/>
<path d="M101.864 71.4754C105.953 58.2844 99.3642 37.9761 91.8641 37.9761C87.833 37.9697 74.0922 42.6829 70.6295 45.1344C63.9864 49.8375 59.2964 58.4032 59.2964 74.9473C59.2965 100 79.0007 114 79.0007 114C79.0007 114 96.7532 87.9642 101.864 71.4754Z" fill="#D49B7B"/>
<path fill-rule="evenodd" clip-rule="evenodd" d="M76.6033 79.6614C76.1181 80.6274 74.2411 80.3527 74.0354 79.2915C73.395 75.9862 72.1303 71.5313 69.668 67.9746C64.8236 60.9772 63.7511 59.6326 64.9113 54.8433C65.9253 50.6579 69.7191 49.6391 73.168 50.4746C74.8398 50.8796 77.4885 52.3094 79.5664 53.8347C80.3825 54.4338 81.4213 54.6688 82.4112 54.4572C84.9541 53.9136 88.2578 53.5396 89.9219 53.9428C93.8635 54.8977 96.459 57.1026 95.2988 61.8919C94.1385 66.6812 90.1133 66.7563 83.5384 70.6157C80.7425 72.2569 78.2335 76.416 76.6033 79.6614Z" fill="#F5C19C"/>
<path d="M138.802 127.035C145.501 127.035 153.327 127.622 157.001 125.501C151.501 130.501 144.001 134.501 140.001 138.001C136.001 141.501 132.735 146.268 127.501 150.501C122.267 154.734 118.727 157.796 117.501 160.001C116.707 159.098 120.242 150.511 121.363 148.244C123.623 143.673 124.044 140.27 123.501 136.501C123.066 133.485 118.878 128.71 117.774 127.034C119.396 126.779 131.714 127.035 138.802 127.035Z" fill="#D49B7B"/>
<path d="M156.633 126.821C157.652 126.396 158.135 125.225 157.71 124.206C157.285 123.186 156.114 122.704 155.094 123.129L156.633 126.821ZM115 126L115.208 124.01L115 126ZM58.9393 67.6552L56.9416 67.5598L58.9393 67.6552ZM87.2321 37.9663L87.3369 39.9635L87.2321 37.9663ZM174.029 40.518L175.179 38.8814L174.029 40.518ZM192.668 120.975L190.838 121.782L192.668 120.975ZM121.5 135L119.767 135.998L121.5 135ZM210.585 249.043C209.504 249.272 208.814 250.334 209.044 251.415C209.273 252.495 210.334 253.185 211.415 252.956L210.585 249.043ZM155.094 123.129C152.464 124.225 147.37 124.985 140.32 125.179C133.358 125.371 124.732 125.008 115.208 124.01L114.792 127.989C124.451 129 133.257 129.375 140.431 129.177C147.517 128.982 153.263 128.225 156.633 126.821L155.094 123.129ZM115.208 124.01C101.988 122.626 90.9446 119.687 78.9174 111.931L76.7495 115.292C89.4388 123.476 101.13 126.558 114.792 127.989L115.208 124.01ZM78.9174 111.931C67.3084 104.444 59.8384 90.7462 60.9371 67.7507L56.9416 67.5598C55.7938 91.5851 63.642 106.839 76.7495 115.292L78.9174 111.931ZM60.9371 67.7507C61.2469 61.2644 62.9973 54.5657 67.0289 49.3974C71.0059 44.2992 77.3573 40.4872 87.3369 39.9635L87.1273 35.969C76.106 36.5474 68.6331 40.8376 63.875 46.9371C59.1716 52.9666 57.276 60.5614 56.9416 67.5598L60.9371 67.7507ZM87.3369 39.9635C92.8453 39.6745 98.8745 38.059 105.168 36.2954C111.532 34.5117 118.255 32.5479 125.423 31.3886C139.647 29.0879 155.535 29.9707 172.88 42.1546L175.179 38.8814C156.783 25.9595 139.773 25.0155 124.784 27.4399C117.345 28.643 110.382 30.6798 104.088 32.4438C97.7224 34.2278 92.1192 35.7071 87.1273 35.969L87.3369 39.9635ZM172.88 42.1546C184.425 50.2644 188.352 63.8488 188.852 77.7087L192.849 77.5644C192.331 63.1989 188.234 48.0524 175.179 38.8814L172.88 42.1546ZM188.852 77.7087C189.106 84.7308 188.825 93.7552 188.849 102.108C188.861 106.242 188.949 110.191 189.223 113.544C189.493 116.828 189.956 119.784 190.838 121.782L194.498 120.168C193.911 118.838 193.477 116.478 193.21 113.217C192.949 110.025 192.861 106.201 192.849 102.097C192.826 93.9723 193.105 84.6549 192.849 77.5644L188.852 77.7087ZM190.838 121.782C192.85 126.342 196.085 130.384 199.815 134.409C201.685 136.426 203.712 138.473 205.798 140.589C207.892 142.713 210.056 144.916 212.239 147.281C220.938 156.705 229.932 168.686 235.07 187.526L238.93 186.473C233.568 166.813 224.146 154.282 215.178 144.568C212.945 142.149 210.74 139.904 208.646 137.781C206.545 135.65 204.567 133.651 202.749 131.69C199.105 127.757 196.236 124.108 194.498 120.168L190.838 121.782ZM125.288 213.802C120.159 206.72 117.691 201.193 116.344 196.032C114.977 190.796 114.741 185.902 114.159 179.785L110.177 180.165C110.737 186.048 111.001 191.404 112.474 197.043C113.966 202.757 116.676 208.73 122.048 216.148L125.288 213.802ZM114.159 179.785C113.626 174.191 114.901 168.332 116.796 163.15C118.687 157.981 121.146 153.621 122.833 151.082L119.502 148.868C117.667 151.63 115.054 156.27 113.04 161.776C111.031 167.268 109.567 173.759 110.177 180.165L114.159 179.785ZM122.833 151.082C126.882 144.99 125.684 138.255 123.233 134.001L119.767 135.998C121.672 139.305 122.498 144.359 119.502 148.868L122.833 151.082ZM123.233 134.001C122.339 132.449 120.964 130.227 119.661 128.341C119.012 127.402 118.355 126.509 117.769 125.815C117.478 125.471 117.173 125.139 116.87 124.865C116.636 124.653 116.154 124.238 115.518 124.068L114.482 127.931C114.125 127.836 114.001 127.663 114.187 127.831C114.304 127.937 114.48 128.121 114.714 128.398C115.179 128.948 115.751 129.719 116.37 130.615C117.602 132.397 118.919 134.526 119.767 135.998L123.233 134.001ZM122.048 216.148C127.64 223.87 136.913 228.801 144.542 231.787C148.392 233.294 151.902 234.336 154.451 235.001C155.726 235.334 156.764 235.574 157.488 235.731C157.85 235.81 158.133 235.868 158.328 235.907C158.426 235.926 158.502 235.941 158.555 235.951C158.581 235.956 158.601 235.96 158.616 235.962C158.623 235.964 158.629 235.965 158.633 235.966C158.635 235.966 158.637 235.966 158.638 235.967C158.639 235.967 158.64 235.967 158.64 235.967C158.641 235.967 158.642 235.967 159 234C159.358 232.032 159.359 232.032 159.359 232.032C159.359 232.032 159.359 232.032 159.359 232.032C159.359 232.032 159.359 232.032 159.358 232.032C159.356 232.031 159.353 232.031 159.348 232.03C159.339 232.028 159.323 232.025 159.302 232.021C159.26 232.013 159.195 232.001 159.109 231.984C158.935 231.949 158.675 231.896 158.337 231.822C157.662 231.676 156.678 231.449 155.461 231.131C153.025 230.495 149.671 229.499 146 228.062C138.588 225.161 130.196 220.58 125.288 213.802L122.048 216.148ZM235.07 187.526C245.327 225.134 225.751 245.826 210.585 249.043L211.415 252.956C229.249 249.173 249.673 225.865 238.93 186.473L235.07 187.526Z" fill="#825451"/>
<path d="M180.047 34.8827C174.769 36.6681 165.75 41.232 161.451 44.3939C162.592 51.0838 170.221 63.8259 170.221 63.8259C170.221 63.8259 175.194 63.4461 179.596 61.6791C188.876 57.9539 192.272 57.5959 197.872 49.4941C202.099 43.3795 200.012 37.6442 197.503 35.4189C194.285 32.5653 186.878 32.5719 180.047 34.8827Z" fill="#F5C19C"/>
<path d="M161.179 43.487C164.574 41.1184 172.93 36.2584 178.679 34.1999C187.267 31.1242 193.675 32.3236 196.314 34.066C200.923 37.1089 201.488 43.7345 198.84 49.7542C196.192 55.7739 189.361 58.0847 185.816 59.7231C181.122 61.8924 177.069 63.3903 173.733 64.2499" stroke="#825451" stroke-width="4" stroke-linecap="round"/>
<path d="M83.7125 59.4888C86.9691 58.3741 88.7438 58.1358 91.4282 58.5929" stroke="#825451" stroke-width="4" stroke-linecap="round" stroke-linejoin="round"/>
<path d="M75.1672 57.4751C72.1727 55.778 71.5173 55.5368 68.7946 55.49" stroke="#825451" stroke-width="4" stroke-linecap="round" stroke-linejoin="round"/>
<path d="M85.4666 84.457C82.5595 91.4429 66.0124 88.3814 65.9264 80.5087" stroke="#825451" stroke-width="4" stroke-linecap="round" stroke-linejoin="round"/>
<path d="M183.748 52.8038C179.126 55.718 173.911 56.2249 172.275 53.6302C168.874 48.237 174.125 47.501 178.747 44.5868C183.368 41.6726 187.918 41.3438 189.011 43.0768C190.103 44.8098 188.369 49.8895 183.748 52.8038Z" fill="#D49B7B"/>
<path fill-rule="evenodd" clip-rule="evenodd" d="M157.378 87.168C158.095 86.9123 158.884 87.2863 159.14 88.0033L161.686 95.144C161.941 95.861 161.567 96.6495 160.85 96.9052C160.133 97.1608 159.345 96.7868 159.089 96.0698L156.543 88.9292C156.287 88.2121 156.661 87.4236 157.378 87.168Z" fill="#D49B7B"/>
<path fill-rule="evenodd" clip-rule="evenodd" d="M182.957 127.465C183.669 127.195 184.464 127.553 184.734 128.265L187.421 135.354C187.691 136.065 187.333 136.861 186.621 137.131C185.909 137.401 185.114 137.043 184.844 136.331L182.157 129.242C181.887 128.53 182.245 127.734 182.957 127.465Z" fill="#D49B7B"/>
<path fill-rule="evenodd" clip-rule="evenodd" d="M209.789 164.488C210.501 164.218 211.296 164.576 211.566 165.288L214.253 172.377C214.523 173.089 214.165 173.885 213.453 174.154C212.741 174.424 211.946 174.066 211.676 173.354L208.989 166.265C208.719 165.554 209.077 164.758 209.789 164.488Z" fill="#D49B7B"/>
<path fill-rule="evenodd" clip-rule="evenodd" d="M172.957 165.465C173.669 165.195 174.464 165.553 174.734 166.265L177.421 173.354C177.691 174.065 177.333 174.861 176.621 175.131C175.909 175.401 175.114 175.043 174.844 174.331L172.157 167.242C171.887 166.53 172.245 165.734 172.957 165.465Z" fill="#D49B7B"/>
<path fill-rule="evenodd" clip-rule="evenodd" d="M181.612 151.492C182.226 151.042 183.088 151.175 183.538 151.789L188.02 157.903C188.47 158.517 188.337 159.38 187.723 159.83C187.109 160.28 186.246 160.147 185.796 159.533L181.315 153.418C180.865 152.804 180.998 151.942 181.612 151.492Z" fill="#D49B7B"/>
<path fill-rule="evenodd" clip-rule="evenodd" d="M182.698 206.199C183.449 206.322 183.959 207.031 183.836 207.782L182.611 215.263C182.488 216.015 181.779 216.524 181.028 216.401C180.277 216.278 179.768 215.569 179.891 214.818L181.115 207.337C181.238 206.586 181.947 206.076 182.698 206.199Z" fill="#D49B7B"/>
<path fill-rule="evenodd" clip-rule="evenodd" d="M191.26 225.053C191.963 225.346 192.294 226.153 192.001 226.856L189.079 233.851C188.786 234.554 187.978 234.885 187.276 234.592C186.574 234.298 186.242 233.491 186.535 232.789L189.457 225.793C189.75 225.091 190.558 224.759 191.26 225.053Z" fill="#D49B7B"/>
<path fill-rule="evenodd" clip-rule="evenodd" d="M161.76 88.3946C162.445 88.0516 163.278 88.329 163.621 89.014L166.867 95.4965C167.21 96.1816 166.932 97.015 166.247 97.3579C165.562 97.7009 164.729 97.4236 164.386 96.7385L161.141 90.256C160.798 89.571 161.075 88.7376 161.76 88.3946Z" fill="#D49B7B"/>
<path fill-rule="evenodd" clip-rule="evenodd" d="M186.283 128.05C186.841 127.526 187.719 127.553 188.243 128.112L193.207 133.396C193.731 133.954 193.704 134.832 193.145 135.356C192.587 135.881 191.709 135.853 191.185 135.295L186.221 130.011C185.697 129.453 185.724 128.575 186.283 128.05Z" fill="#D49B7B"/>
<path fill-rule="evenodd" clip-rule="evenodd" d="M213.115 165.074C213.673 164.549 214.551 164.577 215.075 165.135L220.039 170.419C220.563 170.977 220.536 171.855 219.977 172.38C219.419 172.904 218.541 172.877 218.017 172.318L213.053 167.035C212.529 166.476 212.556 165.598 213.115 165.074Z" fill="#D49B7B"/>
<path fill-rule="evenodd" clip-rule="evenodd" d="M176.283 166.05C176.841 165.526 177.719 165.553 178.243 166.112L183.207 171.396C183.731 171.954 183.704 172.832 183.145 173.356C182.587 173.881 181.709 173.853 181.185 173.295L176.221 168.011C175.697 167.453 175.724 166.575 176.283 166.05Z" fill="#D49B7B"/>
<path fill-rule="evenodd" clip-rule="evenodd" d="M187.204 150.661C187.878 150.296 188.72 150.547 189.085 151.22L192.538 157.594C192.903 158.268 192.653 159.11 191.979 159.475C191.305 159.84 190.464 159.59 190.099 158.916L186.645 152.542C186.28 151.868 186.53 151.026 187.204 150.661Z" fill="#D49B7B"/>
<path fill-rule="evenodd" clip-rule="evenodd" d="M187.209 209.609C187.941 209.834 188.352 210.61 188.127 211.342L185.997 218.272C185.772 219.004 184.996 219.415 184.264 219.19C183.532 218.965 183.12 218.189 183.345 217.457L185.475 210.527C185.7 209.795 186.476 209.384 187.209 209.609Z" fill="#D49B7B"/>
<path fill-rule="evenodd" clip-rule="evenodd" d="M194.86 229.412C195.52 229.801 195.741 230.651 195.352 231.311L191.678 237.56C191.289 238.221 190.439 238.441 189.779 238.053C189.118 237.664 188.898 236.814 189.286 236.154L192.961 229.905C193.349 229.244 194.199 229.024 194.86 229.412Z" fill="#D49B7B"/>
<path d="M137.77 42.9746L148.938 49.5906" stroke="#825451" stroke-width="4" stroke-linecap="round" stroke-linejoin="round"/>
<path d="M127.291 59.5389C129.35 56.6267 133.228 52.9373 137.262 53.7872C141.297 54.6372 143.688 57.5809 144.28 60.0606C144.755 62.0443 144.185 67.0936 143.32 68.8969" stroke="#825451" stroke-width="4" stroke-linecap="round"/>
<path d="M122.701 39.7774C120.835 35.4664 119.01 32.5263 116.409 30.0406" stroke="#825451" stroke-width="4" stroke-linecap="round"/>
<path d="M170.434 72.7854C171.512 73.0741 172.596 72.4472 172.856 71.3851C173.116 70.323 172.453 69.2279 171.375 68.9392L170.434 72.7854ZM155.918 68.8958L170.434 72.7854L171.375 68.9392L156.859 65.0495L155.918 68.8958Z" fill="#825451"/>
<path fill-rule="evenodd" clip-rule="evenodd" d="M113.183 57.6874L148.142 58.6506L147.96 65.2597L114.263 64.3312C113.589 62.1669 113.225 59.9276 113.183 57.6874Z" fill="white" fill-opacity="0.15"/>
<path d="M153.868 71.4727C147.055 80.6435 133.741 82.3342 124.092 75.002C114.443 67.6699 112.342 54.2654 119.155 45.0946C125.967 35.9237 139.281 34.233 148.93 41.5652C158.579 48.8974 160.68 62.3018 153.868 71.4727Z" fill="url(#paint0_linear_4219_37472)" fill-opacity="0.3" stroke="#825451" stroke-width="4"/>
<path d="M151.464 234.095C154.964 233.595 156.964 233.595 159.964 232.595L164.464 252.595C164.464 252.595 162.053 253.791 160.964 254.095C158.453 254.797 157.254 254.239 154.964 254.095C152.954 253.969 151.155 254.197 148.464 253.595C145.773 252.994 144.447 252.585 145.172 250.891C146.158 248.586 151.965 249.699 151.964 247.595C152.322 245.992 148.04 247.836 146.964 247.595C145.618 247.295 144.271 247.696 143.464 247.095C142.656 246.494 142.77 244.371 143.464 243.595C144.362 242.591 148.817 243.799 148.727 242.095C148.996 240.893 145.833 240.913 144.797 240.848C143.421 240.762 143.804 240.736 143.464 239.595C143.194 238.693 143.053 235.341 145.172 234.672C147.823 233.836 149.633 234.357 151.464 234.095Z" fill="#D49B7B"/>
<path d="M165.369 224.001L167.347 224.297L165.369 224.001ZM152.964 233.596L152.702 231.613L152.964 233.596ZM144.236 237.096L146.173 237.594L144.236 237.096ZM151.202 239.113C152.297 238.968 153.302 239.738 153.447 240.833C153.592 241.928 152.822 242.933 151.727 243.078L151.202 239.113ZM144.464 246.596L145.964 245.272L144.464 246.596ZM152.265 245.606C153.364 245.496 154.344 246.298 154.454 247.397C154.564 248.496 153.762 249.476 152.663 249.586L152.265 245.606ZM168.004 254.318L167.954 252.319L168.004 254.318ZM210.819 249.008C211.919 248.908 212.892 249.718 212.992 250.818C213.092 251.918 212.281 252.891 211.181 252.991L210.819 249.008ZM208.239 197.395C208.878 198.295 208.666 199.544 207.766 200.183C206.865 200.823 205.617 200.611 204.977 199.71L208.239 197.395ZM171.497 196.923L172.909 198.339L172.909 198.339L171.497 196.923ZM167.347 224.297C166.597 229.303 165.439 232.39 162.601 233.909C161.3 234.604 159.823 234.863 158.361 235.036C156.699 235.232 155.341 235.299 153.226 235.579L152.702 231.613C154.658 231.355 156.699 231.204 157.891 231.063C159.284 230.899 160.118 230.7 160.714 230.382C161.669 229.871 162.643 228.698 163.391 223.704L167.347 224.297ZM153.226 235.579C151.223 235.843 149.582 235.899 148.092 236.287C146.676 236.655 146.297 237.114 146.173 237.594L142.299 236.597C142.977 233.964 145.211 232.903 147.084 232.416C148.883 231.948 151.206 231.811 152.702 231.613L153.226 235.579ZM146.173 237.594C145.966 238.399 146.189 238.992 146.503 239.453C146.668 239.695 146.852 239.886 146.995 240.015C147.065 240.078 147.12 240.122 147.15 240.145C147.165 240.157 147.174 240.163 147.175 240.164C147.176 240.164 147.174 240.163 147.17 240.161C147.168 240.159 147.166 240.158 147.163 240.156C147.162 240.155 147.16 240.154 147.158 240.152C147.157 240.152 147.157 240.151 147.156 240.151C147.155 240.15 147.154 240.15 147.154 240.15C147.153 240.149 147.153 240.149 146.044 241.813C144.936 243.478 144.935 243.478 144.935 243.477C144.934 243.477 144.933 243.477 144.933 243.476C144.932 243.475 144.931 243.475 144.929 243.474C144.927 243.472 144.925 243.471 144.922 243.469C144.916 243.465 144.91 243.461 144.904 243.456C144.89 243.447 144.874 243.436 144.856 243.423C144.82 243.397 144.774 243.363 144.72 243.322C144.612 243.24 144.472 243.126 144.312 242.981C143.995 242.695 143.582 242.269 143.198 241.706C142.415 240.558 141.734 238.793 142.299 236.597L146.173 237.594ZM145.782 239.831L151.202 239.113L151.727 243.078L146.307 243.796L145.782 239.831ZM146.625 243.727C145.901 243.947 145.746 244.29 145.707 244.437C145.653 244.638 145.685 244.957 145.964 245.272L142.964 247.919C141.879 246.689 141.411 245.008 141.844 243.399C142.29 241.738 143.607 240.463 145.464 239.899L146.625 243.727ZM145.964 245.272C146.39 245.755 146.807 245.947 147.077 246.03C147.218 246.073 147.326 246.089 147.383 246.094C147.41 246.097 147.424 246.097 147.42 246.097C147.418 246.097 147.411 246.097 147.4 246.097C147.394 246.097 147.388 246.097 147.379 246.098C147.375 246.098 147.371 246.098 147.366 246.098C147.364 246.098 147.361 246.098 147.359 246.099C147.357 246.099 147.356 246.099 147.355 246.099C147.354 246.099 147.353 246.099 147.353 246.099C147.352 246.099 147.351 246.099 147.464 248.096C147.577 250.093 147.576 250.093 147.575 250.093C147.575 250.093 147.574 250.093 147.573 250.093C147.572 250.093 147.57 250.093 147.569 250.093C147.566 250.093 147.563 250.093 147.56 250.094C147.553 250.094 147.547 250.094 147.54 250.094C147.525 250.095 147.509 250.095 147.491 250.096C147.456 250.097 147.414 250.097 147.366 250.096C147.269 250.095 147.147 250.09 147.003 250.076C146.716 250.049 146.338 249.987 145.904 249.854C145.025 249.585 143.942 249.027 142.964 247.919L145.964 245.272ZM147.265 246.106L152.265 245.606L152.663 249.586L147.663 250.086L147.265 246.106ZM148.467 249.826C148.159 250.005 148.131 250.153 148.123 250.203C148.108 250.299 148.118 250.54 148.352 250.876C148.807 251.527 150.057 252.366 152.23 252.11L152.698 256.082C149.319 256.481 146.509 255.224 145.072 253.164C144.36 252.144 143.966 250.875 144.173 249.574C144.388 248.228 145.21 247.091 146.461 246.366L148.467 249.826ZM152.23 252.11C155.193 251.76 157.34 251.872 159.631 252.036C161.89 252.198 164.294 252.41 167.954 252.319L168.053 256.318C164.173 256.414 161.583 256.186 159.346 256.026C157.14 255.868 155.288 255.776 152.698 256.082L152.23 252.11ZM167.954 252.319C176.866 252.098 199.775 250.012 210.819 249.008L211.181 252.991C200.225 253.987 177.134 256.093 168.053 256.318L167.954 252.319ZM163.391 223.704C163.537 222.735 163.508 221.181 163.476 218.959C163.446 216.835 163.422 214.275 163.642 211.588C164.079 206.253 165.5 200.079 170.085 195.507L172.909 198.339C169.328 201.91 168.037 206.923 167.629 211.915C167.426 214.392 167.445 216.781 167.476 218.902C167.505 220.926 167.554 222.915 167.347 224.297L163.391 223.704ZM170.085 195.507C180.8 184.821 198.766 184.05 208.239 197.395L204.977 199.71C197.229 188.795 182.249 189.025 172.909 198.339L170.085 195.507Z" fill="#825451"/>
<path d="M74.8633 86.9746L75.8633 67.9746" stroke="#825451" stroke-width="4" stroke-linecap="round" stroke-linejoin="round"/>
<path d="M130.536 137.436C122.536 139.036 115.869 148.436 113.536 152.936C110.536 149.436 105.163 141.717 96.0393 138.524C86.0393 135.024 77.0392 139.025 72.0393 149.024C68.2891 156.524 71.8824 169.246 77.5392 177.024C85.5393 188.024 113.536 212.436 115.536 212.436C117.536 212.436 147.036 180.436 150.036 173.936C153.036 167.436 155.539 157.524 153.039 149.024C150.539 140.524 140.536 135.436 130.536 137.436Z" fill="#FAAF9D"/>
<path d="M113.536 152.936L112.018 154.238C112.45 154.743 113.105 154.999 113.766 154.923C114.426 154.847 115.006 154.447 115.312 153.857L113.536 152.936ZM130.536 137.436L130.144 135.475L130.536 137.436ZM153.039 149.024L151.121 149.588L153.039 149.024ZM77.5392 177.024L75.9218 178.201L77.5392 177.024ZM72.0393 149.024L73.8281 149.918L72.0393 149.024ZM96.0393 138.524L95.3786 140.412H95.3786L96.0393 138.524ZM115.312 153.857C116.402 151.754 118.547 148.437 121.361 145.477C124.205 142.485 127.521 140.079 130.928 139.397L130.144 135.475C125.552 136.393 121.534 139.488 118.461 142.721C115.359 145.985 113.004 149.618 111.761 152.016L115.312 153.857ZM130.928 139.397C140.169 137.549 148.981 142.314 151.121 149.588L154.958 148.46C152.097 138.734 140.904 133.323 130.144 135.475L130.928 139.397ZM151.121 149.588C153.424 157.421 151.128 166.798 148.22 173.098L151.852 174.774C154.944 168.075 157.654 157.627 154.958 148.46L151.121 149.588ZM148.22 173.098C147.937 173.711 147.257 174.781 146.162 176.274C145.094 177.73 143.713 179.482 142.116 181.424C138.925 185.305 134.916 189.889 130.93 194.279C126.944 198.671 122.998 202.849 119.933 205.922C118.397 207.462 117.103 208.704 116.145 209.55C115.662 209.978 115.297 210.275 115.049 210.454C114.99 210.497 114.944 210.528 114.91 210.55C114.875 210.573 114.861 210.58 114.866 210.577C114.866 210.577 114.913 210.552 114.995 210.523C115.062 210.5 115.26 210.436 115.536 210.436V214.436C116.127 214.436 116.593 214.189 116.739 214.111C116.969 213.99 117.192 213.841 117.391 213.697C117.796 213.404 118.274 213.007 118.795 212.547C119.845 211.618 121.207 210.309 122.765 208.747C125.887 205.617 129.878 201.39 133.892 196.968C137.906 192.546 141.96 187.911 145.206 183.964C146.828 181.992 148.26 180.178 149.387 178.639C150.488 177.139 151.385 175.786 151.852 174.774L148.22 173.098ZM115.536 210.436C115.741 210.436 115.889 210.473 115.943 210.487C115.977 210.496 116.002 210.505 116.017 210.51C116.032 210.515 116.04 210.519 116.042 210.519C116.043 210.52 116.029 210.514 115.995 210.497C115.962 210.48 115.918 210.456 115.862 210.424C115.625 210.289 115.278 210.063 114.813 209.734C113.893 209.082 112.642 208.116 111.141 206.897C108.145 204.465 104.236 201.095 100.131 197.373C91.8698 189.885 83.0191 181.159 79.1567 175.848L75.9218 178.201C80.0594 183.89 89.2071 192.87 97.4444 200.337C101.588 204.094 105.554 207.514 108.62 210.003C110.149 211.244 111.477 212.272 112.501 212.998C113.009 213.358 113.476 213.667 113.874 213.895C114.071 214.008 114.287 214.121 114.506 214.213C114.669 214.28 115.061 214.436 115.536 214.436V210.436ZM79.1567 175.848C76.4958 172.189 74.293 167.318 73.2135 162.484C72.1231 157.601 72.2475 153.08 73.8281 149.918L70.2505 148.13C68.0809 152.468 68.1268 158.058 69.3097 163.356C70.5035 168.702 72.9258 174.081 75.9218 178.201L79.1567 175.848ZM73.8281 149.918C76.1612 145.252 79.3497 142.133 82.9688 140.543C86.5744 138.958 90.7958 138.808 95.3786 140.412L96.7 136.636C91.2828 134.74 86.0041 134.84 81.3597 136.881C76.7288 138.916 72.9173 142.796 70.2505 148.13L73.8281 149.918ZM95.3786 140.412C103.869 143.383 108.848 150.54 112.018 154.238L115.055 151.635C112.224 148.333 106.457 140.051 96.7 136.636L95.3786 140.412Z" fill="#F37457"/>
<path d="M88.6351 144.958C90.7571 142.784 95.2003 143.681 98.5593 146.96C101.918 150.24 102.921 154.66 100.799 156.834C98.6769 159.007 95.9802 156.322 92.6212 153.042C89.2623 149.763 86.5131 147.131 88.6351 144.958Z" fill="#FACBC0"/>
<path d="M146.171 189.161C148.667 187.148 158.231 180.563 170.568 180.042L173.473 154.08C173.473 154.08 138.624 169.428 137.659 169.939C135.434 171.115 133.374 171.588 132.057 172.419C130.425 173.45 127.452 176.697 126.111 178.913C124.77 181.129 124.445 183.826 126.239 184.54C128.679 185.512 130.922 179.301 132.546 180.787C134.023 181.681 131.887 182.71 131.351 183.596C130.681 184.705 129.641 185.589 129.563 186.551C129.486 187.514 130.147 188.923 132.072 189.078C133.449 189.189 136.385 183.614 137.64 184.878C138.748 185.548 136.398 187.765 135.998 188.426C135.328 189.534 134.667 191.018 135.319 192.051C135.834 192.867 137.33 192.656 139.467 192.13C141.839 191.546 144.745 190.311 146.171 189.161Z" fill="#F5C19C"/>
<path d="M144.145 190.107C146.839 187.546 149.03 185.284 151.868 185.319L137.929 169.894C137.929 169.894 136.608 170.396 135.643 170.906C133.418 172.083 133.38 172.182 132.064 173.013C130.431 174.043 127.458 177.29 126.117 179.507C124.776 181.723 124.451 184.42 126.245 185.134C128.685 186.105 130.928 179.894 132.552 181.381C134.029 182.275 131.893 183.303 131.357 184.19C130.687 185.298 129.647 186.183 129.569 187.145C129.492 188.107 130.153 189.516 132.078 189.671C133.455 189.782 136.391 184.208 137.646 185.471C138.754 186.142 136.404 188.358 136.004 189.019C135.334 190.127 134.741 190.539 135.393 191.571C135.908 192.387 137.32 193.452 138.691 192.845C140.924 191.856 142.818 191.37 144.145 190.107Z" fill="#D49B7B"/>
<path d="M181.424 180.22C182.199 179.434 182.19 178.167 181.404 177.392C180.617 176.617 179.351 176.626 178.575 177.412L181.424 180.22ZM144.687 189.097L144.018 187.212L144.687 189.097ZM135.138 192.232L136.21 190.543L135.138 192.232ZM138.412 187.394C139.295 186.73 139.472 185.476 138.808 184.593C138.143 183.711 136.89 183.534 136.007 184.198L138.412 187.394ZM134.838 182.49C135.757 181.878 136.007 180.637 135.396 179.717C134.784 178.797 133.543 178.548 132.623 179.159L134.838 182.49ZM125.917 178.817L124.051 178.096L125.917 178.817ZM130.289 173.053L131.388 174.724L130.289 173.053ZM154 164.5L154.613 166.403L154 164.5ZM179.802 149.018C180.64 148.299 180.737 147.036 180.019 146.198C179.3 145.359 178.037 145.262 177.198 145.981L179.802 149.018ZM178.575 177.412C177.127 178.882 174.946 180.078 172.166 181.07C169.404 182.056 166.203 182.787 162.843 183.416C159.432 184.054 156.103 184.545 152.802 185.127C149.594 185.692 146.517 186.327 144.018 187.212L145.355 190.982C147.513 190.217 150.304 189.629 153.496 189.066C156.595 188.52 160.2 187.98 163.578 187.348C167.007 186.706 170.451 185.93 173.511 184.838C176.553 183.752 179.372 182.301 181.424 180.22L178.575 177.412ZM144.018 187.212C141.891 187.966 139.668 189.148 138.219 189.796C137.415 190.154 136.83 190.366 136.405 190.449C135.968 190.535 136.019 190.422 136.21 190.543L134.066 193.92C135.127 194.594 136.297 194.547 137.175 194.375C138.066 194.2 138.994 193.83 139.849 193.448C141.718 192.614 143.4 191.675 145.355 190.982L144.018 187.212ZM136.21 190.543C136.103 190.476 135.869 190.186 135.688 189.518C135.612 189.235 135.567 188.966 135.542 188.765C135.53 188.667 135.523 188.59 135.52 188.542C135.518 188.519 135.517 188.503 135.517 188.495C135.517 188.492 135.517 188.49 135.517 188.491C135.517 188.492 135.517 188.493 135.517 188.494C135.517 188.495 135.517 188.496 135.517 188.497C135.517 188.498 135.517 188.499 135.517 188.499C135.517 188.499 135.517 188.5 135.517 188.5C135.517 188.501 135.517 188.501 133.518 188.574C131.52 188.647 131.52 188.647 131.52 188.648C131.52 188.648 131.52 188.649 131.52 188.649C131.52 188.65 131.52 188.651 131.52 188.652C131.52 188.653 131.52 188.655 131.52 188.658C131.52 188.662 131.52 188.667 131.521 188.672C131.521 188.683 131.522 188.697 131.523 188.714C131.525 188.746 131.527 188.789 131.531 188.841C131.539 188.944 131.552 189.085 131.572 189.254C131.614 189.588 131.689 190.052 131.827 190.563C132.076 191.482 132.651 193.021 134.066 193.92L136.21 190.543ZM134.721 190.172L138.412 187.394L136.007 184.198L132.316 186.976L134.721 190.172ZM133.518 188.574C132.421 186.902 132.421 186.902 132.422 186.901C132.422 186.901 132.422 186.901 132.423 186.901C132.424 186.9 132.424 186.9 132.425 186.899C132.426 186.899 132.427 186.898 132.428 186.897C132.431 186.896 132.432 186.895 132.434 186.894C132.436 186.892 132.438 186.891 132.437 186.891C132.437 186.892 132.43 186.896 132.418 186.903C132.394 186.917 132.349 186.943 132.289 186.974C132.164 187.037 131.994 187.113 131.808 187.169C131.378 187.3 131.213 187.23 131.183 187.212L129.113 190.634C130.56 191.51 132.081 191.266 132.966 190.998C133.438 190.855 133.834 190.676 134.11 190.535C134.25 190.463 134.365 190.398 134.45 190.348C134.493 190.323 134.528 190.301 134.556 190.284C134.57 190.275 134.582 190.268 134.592 190.261C134.597 190.258 134.601 190.255 134.605 190.253C134.607 190.251 134.609 190.25 134.611 190.249C134.612 190.249 134.613 190.248 134.614 190.247C134.614 190.247 134.615 190.247 134.615 190.247C134.615 190.246 134.616 190.246 133.518 188.574ZM131.183 187.212C130.916 187.051 130.686 186.683 130.641 185.895C130.621 185.539 130.648 185.196 130.684 184.934C130.701 184.807 130.719 184.707 130.732 184.644C130.738 184.613 130.742 184.591 130.745 184.581C130.746 184.576 130.746 184.574 130.746 184.575C130.746 184.575 130.746 184.576 130.745 184.578C130.745 184.579 130.745 184.58 130.745 184.582C130.744 184.582 130.744 184.583 130.744 184.584C130.744 184.584 130.744 184.585 130.744 184.585C130.744 184.586 130.743 184.586 128.803 184.101C126.863 183.615 126.863 183.615 126.863 183.616C126.863 183.616 126.863 183.617 126.862 183.618C126.862 183.619 126.862 183.62 126.862 183.621C126.861 183.623 126.861 183.625 126.86 183.628C126.859 183.633 126.857 183.639 126.855 183.646C126.852 183.66 126.848 183.678 126.843 183.699C126.834 183.74 126.822 183.795 126.809 183.862C126.782 183.995 126.75 184.177 126.72 184.397C126.661 184.83 126.609 185.441 126.648 186.123C126.721 187.411 127.163 189.455 129.113 190.634L131.183 187.212ZM129.911 185.766L134.838 182.49L132.623 179.159L127.696 182.435L129.911 185.766ZM129.313 182.167C128.457 181.941 128.074 181.457 127.879 180.94C127.641 180.31 127.719 179.702 127.782 179.537L124.051 178.096C123.605 179.25 123.579 180.876 124.137 182.354C124.739 183.945 126.053 185.443 128.293 186.034L129.313 182.167ZM127.782 179.537C128.591 177.442 129.647 175.869 131.388 174.724L129.19 171.382C126.543 173.124 125.055 175.494 124.051 178.096L127.782 179.537ZM131.388 174.724C131.831 174.432 132.867 173.943 134.499 173.29C136.074 172.66 138.054 171.935 140.265 171.162C144.685 169.617 149.956 167.903 154.613 166.403L153.387 162.596C148.731 164.096 143.417 165.823 138.945 167.386C136.71 168.168 134.667 168.914 133.013 169.576C131.416 170.215 130.017 170.838 129.19 171.382L131.388 174.724ZM154.613 166.403C165.52 162.89 173.033 154.82 179.802 149.018L177.198 145.981C169.967 152.179 163.3 159.403 153.387 162.596L154.613 166.403Z" fill="#825451"/>
<path d="M67.5 84.5C67.5 87 68.9711 91.2851 70 93C71.5 95.5 74 96 75.5 96C78 96 80.8675 93.2649 81.5 92C82.5 90 83.1667 88.3333 83.5 87" stroke="#825451" stroke-width="4"/>
<path d="M63.5005 157C64.0005 153 66.5005 150.499 69.0005 149.5C71.5005 148.5 76.0005 148.051 76.0005 148.051L81.5596 148.051C84.6345 148.051 86.0744 148.934 86.9774 149.818C87.8803 150.702 87.8803 154.236 84.8055 155.072C83.8212 155.34 74.873 156.398 74.873 156.398C74.873 156.398 79.6946 156.5 81.5005 156.5C83.7579 156.5 86.3099 157.717 86.6114 159.537C86.9774 161.746 85.6229 163.116 83.817 164C82.4464 164.67 74.4215 165.722 74.4215 165.722H77.4963C79.3023 165.722 82.9141 165.28 83.817 167.489C84.72 169.698 83.1812 171.454 81.0005 172C79.0005 172.5 75.2352 172.319 73.0005 172C69.5005 171.5 66.4684 169.936 65.0005 167.489C63.5006 164.989 62.9946 161.047 63.5005 157Z" fill="#D49B7B"/>
<path d="M69.0005 149.5L69.7432 151.356L69.0005 149.5ZM63.5005 157L61.516 156.752L63.5005 157ZM65.0005 167.489L63.2855 168.518H63.2855L65.0005 167.489ZM73.0005 172L72.7176 173.979L73.0005 172ZM74.4215 165.722L74.1615 163.739C73.1164 163.876 72.3571 164.801 72.4257 165.853C72.4944 166.904 73.3675 167.722 74.4215 167.722V165.722ZM83.817 164L84.696 165.796L83.817 164ZM86.6114 159.537L88.5845 159.21L88.5845 159.21L86.6114 159.537ZM74.873 156.398L74.6382 154.411C73.5947 154.535 72.8246 155.444 72.8753 156.494C72.926 157.544 73.7802 158.375 74.8307 158.397L74.873 156.398ZM84.8055 155.072L84.2806 153.142H84.2806L84.8055 155.072ZM86.9774 149.818L85.5786 151.248L86.9774 149.818ZM81.5596 148.051L81.5596 150.051H81.5596V148.051ZM76.0005 148.051L76.0006 146.051C75.9343 146.051 75.868 146.054 75.8021 146.061L76.0005 148.051ZM68.2577 147.643C65.1326 148.893 62.1128 151.976 61.516 156.752L65.4851 157.248C65.8882 154.023 67.8684 152.106 69.7432 151.356L68.2577 147.643ZM61.516 156.752C60.9815 161.027 61.4644 165.483 63.2855 168.518L66.7155 166.46C65.5369 164.496 65.0077 161.066 65.4851 157.248L61.516 156.752ZM63.2855 168.518C65.178 171.673 68.8846 173.432 72.7176 173.979L73.2833 170.02C70.1164 169.567 67.7587 168.199 66.7155 166.46L63.2855 168.518ZM72.7176 173.979C73.9223 174.152 75.5066 174.283 77.0578 174.306C78.5689 174.33 80.2238 174.255 81.4856 173.94L80.5154 170.059C79.7771 170.244 78.5494 170.329 77.1192 170.307C75.7291 170.286 74.3134 170.167 73.2833 170.02L72.7176 173.979ZM81.4856 173.94C82.9262 173.58 84.3237 172.781 85.2074 171.51C86.1453 170.16 86.3717 168.453 85.6683 166.733L81.9657 168.246C82.1653 168.734 82.0738 169.01 81.9229 169.227C81.7177 169.522 81.2555 169.874 80.5154 170.059L81.4856 173.94ZM85.6683 166.733C84.7868 164.576 82.6632 163.982 81.2598 163.795C79.8453 163.606 78.1589 163.722 77.4963 163.722V167.722C78.6397 167.722 79.6622 167.617 80.7308 167.76C81.8105 167.904 81.9443 168.194 81.9657 168.246L85.6683 166.733ZM77.4963 163.722H74.4215V167.722H77.4963V163.722ZM74.4215 165.722C74.6815 167.705 74.6816 167.705 74.6817 167.705C74.6818 167.705 74.6819 167.705 74.6821 167.705C74.6824 167.705 74.6828 167.705 74.6834 167.705C74.6845 167.705 74.6862 167.705 74.6882 167.704C74.6924 167.704 74.6985 167.703 74.7065 167.702C74.7223 167.7 74.7456 167.697 74.7759 167.693C74.8364 167.685 74.9248 167.673 75.0374 167.658C75.2626 167.627 75.5851 167.583 75.9761 167.528C76.7572 167.418 77.8156 167.263 78.9199 167.087C80.0202 166.912 81.1844 166.713 82.1708 166.511C82.663 166.411 83.1301 166.306 83.5323 166.199C83.8978 166.102 84.336 165.972 84.696 165.796L82.9381 162.203C82.9554 162.195 82.843 162.244 82.5073 162.333C82.2083 162.412 81.8236 162.5 81.3707 162.592C80.467 162.777 79.3679 162.966 78.2907 163.137C77.2174 163.308 76.1839 163.459 75.4175 163.567C75.0347 163.621 74.7196 163.664 74.5006 163.694C74.3911 163.709 74.3057 163.72 74.248 163.728C74.2191 163.732 74.1972 163.734 74.1826 163.736C74.1754 163.737 74.1699 163.738 74.1664 163.739C74.1646 163.739 74.1633 163.739 74.1625 163.739C74.1621 163.739 74.1618 163.739 74.1616 163.739C74.1615 163.739 74.1615 163.739 74.1615 163.739C74.1615 163.739 74.1615 163.739 74.4215 165.722ZM84.696 165.796C85.7613 165.275 86.8741 164.527 87.6584 163.425C88.4865 162.261 88.853 160.831 88.5845 159.21L84.6383 159.864C84.7358 160.453 84.6081 160.812 84.399 161.106C84.1461 161.462 83.6787 161.841 82.9381 162.203L84.696 165.796ZM88.5845 159.21C88.2929 157.451 86.9846 156.267 85.7604 155.587C84.4943 154.884 82.9559 154.5 81.5005 154.5V158.5C82.3025 158.5 83.1688 158.724 83.8184 159.084C84.5099 159.468 84.6283 159.804 84.6383 159.864L88.5845 159.21ZM81.5005 154.5C80.6186 154.5 78.98 154.474 77.5451 154.449C76.8313 154.436 76.1736 154.423 75.6944 154.414C75.4548 154.409 75.2598 154.405 75.1249 154.402C75.0574 154.401 75.0049 154.4 74.9693 154.399C74.9515 154.399 74.938 154.398 74.9289 154.398C74.9243 154.398 74.9209 154.398 74.9186 154.398C74.9175 154.398 74.9166 154.398 74.9161 154.398C74.9158 154.398 74.9156 154.398 74.9154 154.398C74.9154 154.398 74.9153 154.398 74.9153 154.398C74.9153 154.398 74.9153 154.398 74.873 156.398C74.8307 158.397 74.8307 158.397 74.8307 158.397C74.8308 158.397 74.8308 158.397 74.8309 158.397C74.8311 158.397 74.8313 158.397 74.8316 158.397C74.8322 158.397 74.8331 158.397 74.8343 158.397C74.8367 158.397 74.8402 158.397 74.8448 158.397C74.8541 158.398 74.8678 158.398 74.8858 158.398C74.9217 158.399 74.9746 158.4 75.0425 158.401C75.1783 158.404 75.3741 158.408 75.6148 158.413C76.096 158.423 76.7565 158.435 77.4739 158.448C78.9013 158.474 80.5765 158.5 81.5005 158.5V154.5ZM74.873 156.398C75.1077 158.384 75.1078 158.384 75.1079 158.384C75.1079 158.384 75.108 158.384 75.1082 158.384C75.1085 158.384 75.1089 158.384 75.1095 158.384C75.1106 158.383 75.1123 158.383 75.1145 158.383C75.1189 158.382 75.1254 158.382 75.134 158.381C75.1511 158.379 75.1765 158.376 75.2096 158.372C75.2757 158.364 75.3727 158.352 75.4965 158.337C75.744 158.308 76.0984 158.265 76.5267 158.214C77.383 158.11 78.536 157.969 79.7206 157.82C80.9037 157.67 82.1249 157.512 83.1155 157.373C84.0252 157.246 84.9299 157.111 85.3304 157.002L84.2806 153.142C84.2997 153.137 84.2719 153.145 84.1627 153.166C84.0664 153.184 83.9383 153.206 83.7783 153.231C83.4589 153.283 83.0439 153.344 82.561 153.412C81.597 153.546 80.3967 153.702 79.2197 153.851C78.0442 153.999 76.8985 154.139 76.0463 154.243C75.6204 154.294 75.268 154.336 75.0223 154.366C74.8994 154.38 74.8032 154.392 74.7378 154.4C74.7051 154.403 74.6801 154.406 74.6634 154.408C74.655 154.409 74.6486 154.41 74.6444 154.411C74.6423 154.411 74.6407 154.411 74.6397 154.411C74.6392 154.411 74.6388 154.411 74.6385 154.411C74.6384 154.411 74.6383 154.411 74.6383 154.411C74.6382 154.411 74.6382 154.411 74.873 156.398ZM85.3304 157.002C87.6801 156.363 88.9088 154.626 89.3247 152.943C89.5262 152.127 89.5479 151.3 89.4236 150.562C89.3089 149.881 89.025 149.023 88.3762 148.389L85.5786 151.248C85.3812 151.054 85.436 150.97 85.4791 151.226C85.5127 151.425 85.5115 151.7 85.4415 151.983C85.3144 152.497 85.0057 152.945 84.2806 153.142L85.3304 157.002ZM88.3762 148.389C87.0624 147.103 85.1031 146.051 81.5596 146.051V150.051C84.1659 150.051 85.0865 150.766 85.5786 151.248L88.3762 148.389ZM81.5597 146.051L76.0006 146.051L76.0005 150.051L81.5596 150.051L81.5597 146.051ZM76.0005 148.051C75.8021 146.061 75.8019 146.061 75.8017 146.061C75.8016 146.061 75.8014 146.061 75.8012 146.061C75.8009 146.061 75.8004 146.061 75.8 146.061C75.799 146.061 75.7977 146.061 75.7962 146.061C75.7932 146.062 75.789 146.062 75.7838 146.063C75.7734 146.064 75.7588 146.065 75.7402 146.067C75.7029 146.071 75.6494 146.077 75.5813 146.084C75.4452 146.099 75.2504 146.122 75.0099 146.152C74.5298 146.212 73.8627 146.303 73.1124 146.427C71.6575 146.667 69.7236 147.056 68.2577 147.643L69.7432 151.356C70.7774 150.943 72.3435 150.608 73.7636 150.373C74.4509 150.26 75.065 150.176 75.5067 150.121C75.7272 150.093 75.9035 150.073 76.0233 150.06C76.0832 150.053 76.1288 150.048 76.1586 150.045C76.1735 150.044 76.1845 150.042 76.1913 150.042C76.1947 150.041 76.197 150.041 76.1983 150.041C76.199 150.041 76.1994 150.041 76.1995 150.041C76.1995 150.041 76.1995 150.041 76.1994 150.041C76.1994 150.041 76.1993 150.041 76.1993 150.041C76.1991 150.041 76.199 150.041 76.0005 148.051Z" fill="#825451"/>
</g>
<defs>
<linearGradient id="paint0_linear_4219_37472" x1="150.123" y1="39.9597" x2="132.278" y2="85.6196" gradientUnits="userSpaceOnUse">
<stop stop-color="white"/>
<stop offset="1" stop-color="#C0C8FE" stop-opacity="0"/>
</linearGradient>
<clipPath id="clip0_4219_37472">
<rect x="294.5" y="288" width="294" height="288" rx="10" transform="rotate(-180 294.5 288)" fill="white"/>
</clipPath>
</defs>
</svg>
