<svg width="200" height="64" viewBox="0 0 200 64" fill="none" xmlns="http://www.w3.org/2000/svg">
<g clip-path="url(#clip0_163_3343)">
<path d="M64.5342 20.8426C64.5511 19.8262 64.3692 18.8165 63.9988 17.8714C63.6667 17.0091 63.1514 16.2311 62.4893 15.592C61.804 14.949 60.9941 14.4567 60.1108 14.1463C59.1238 13.7986 58.0842 13.6275 57.039 13.6408H52.2119V28.0443H57.039C58.0842 28.0576 59.1238 27.8866 60.1108 27.5388C60.9941 27.2284 61.804 26.7361 62.4893 26.0931C63.1514 25.4541 63.6667 24.676 63.9988 23.8138C64.3692 22.8687 64.5511 21.8589 64.5342 20.8426ZM61.1728 22.8647C60.9611 23.4071 60.6205 23.8884 60.181 24.2661C59.7529 24.6326 59.2537 24.9045 58.7153 25.0643C58.1471 25.2421 57.5548 25.3289 56.96 25.3215H55.2047V16.337H56.96C57.5548 16.3296 58.1471 16.4164 58.7153 16.5942C59.2517 16.7544 59.7503 17.023 60.181 17.3836C60.625 17.7571 60.9665 18.2396 61.1728 18.7849C61.4153 19.4426 61.5315 20.1409 61.5151 20.8426C61.529 21.5325 61.4128 22.2187 61.1728 22.8647Z" fill="#B9371B"/>
<path d="M79.9461 28.0444V25.5344H73.7147V21.6231H79.5423V19.1752H73.7147V16.1508H79.9461V13.6408H73.7147H72.7405H70.8887V28.0444H72.7405H73.7147H79.9461Z" fill="#B9371B"/>
<path d="M89.8191 13.6408H86.9141V28.0444H95.5063V25.4546H89.8191V13.6408Z" fill="#B9371B"/>
<path d="M108.987 13.6408H98.3936V16.3104H102.203V28.0444H105.143V16.3104H108.987V13.6408Z" fill="#B9371B"/>
<path d="M125.628 28.0443L118.378 12.7716L111.146 28.0443H114.446L115.912 24.7982H120.801L122.293 28.0443H125.628ZM116.632 22.4301L118.387 18.3326L120.142 22.4301H116.632Z" fill="#B9371B"/>
<path d="M140.986 26.2616C141.456 25.5792 141.69 24.7595 141.653 23.929C141.667 23.3086 141.516 22.6958 141.214 22.1552C140.924 21.6513 140.517 21.2254 140.03 20.9135C139.606 20.6569 139.152 20.4572 138.678 20.3193C139.274 20.0861 139.802 19.7048 140.214 19.2106C140.638 18.6796 140.859 18.0123 140.837 17.3304C140.853 16.7742 140.732 16.2228 140.486 15.725C140.248 15.2703 139.905 14.8808 139.485 14.5898C139.024 14.2714 138.51 14.04 137.967 13.9069C137.335 13.7517 136.686 13.6773 136.036 13.6851H131.288V28.0887H136.317C137.265 28.1084 138.21 27.9614 139.108 27.6541C139.861 27.3964 140.517 26.9101 140.986 26.2616ZM134.202 15.9823H135.72C136.259 15.9529 136.791 16.1093 137.23 16.4257C137.413 16.5752 137.559 16.7665 137.655 16.9839C137.751 17.2012 137.795 17.4385 137.783 17.6763C137.794 17.9984 137.708 18.3165 137.535 18.5876C137.363 18.8587 137.112 19.07 136.817 19.1929C136.471 19.3423 136.097 19.4149 135.72 19.4058H134.158L134.202 15.9823ZM138.301 24.7716C138.084 25.0883 137.778 25.3323 137.423 25.4723C137.002 25.6307 136.556 25.7089 136.106 25.7029H134.237V21.5432H136.106C136.45 21.5414 136.792 21.5831 137.124 21.6674C137.414 21.7381 137.69 21.858 137.941 22.0222C138.17 22.1804 138.357 22.3937 138.485 22.643C138.613 22.9206 138.679 23.2235 138.678 23.5299C138.688 23.9768 138.549 24.4141 138.283 24.7716H138.301Z" fill="#B9371B"/>
<path d="M162.05 20.8426C162.064 19.8096 161.873 18.7843 161.489 17.8271C161.134 16.9315 160.592 16.1238 159.9 15.459C159.21 14.7923 158.399 14.2655 157.513 13.9069C155.589 13.1621 153.46 13.1621 151.536 13.9069C150.644 14.259 149.829 14.7865 149.14 15.459C148.46 16.132 147.922 16.9377 147.56 17.8271C147.18 18.7855 146.989 19.81 146.998 20.8426C146.988 21.8744 147.176 22.8985 147.551 23.8581C147.903 24.7602 148.435 25.5797 149.113 26.2662C149.79 26.9526 150.6 27.4914 151.492 27.8492C153.438 28.6062 155.593 28.6062 157.539 27.8492C158.433 27.4914 159.245 26.9517 159.925 26.2637C160.604 25.5756 161.136 24.7538 161.489 23.8492C161.869 22.8939 162.06 21.8723 162.05 20.8426ZM158.627 22.7317C158.437 23.2882 158.138 23.8008 157.75 24.2395C157.357 24.6651 156.878 25.0008 156.345 25.2239C155.195 25.6967 153.907 25.6967 152.756 25.2239C152.225 24.9985 151.747 24.6631 151.352 24.2395C150.967 23.7947 150.669 23.28 150.474 22.7228C150.252 22.1217 150.142 21.4842 150.149 20.8426C150.141 20.1951 150.251 19.5517 150.474 18.9446C150.673 18.3948 150.971 17.8868 151.352 17.4457C151.747 17.022 152.225 16.6867 152.756 16.4612C153.922 15.9885 155.223 15.9885 156.389 16.4612C156.92 16.6867 157.399 17.022 157.794 17.4457C158.188 17.8833 158.487 18.4001 158.671 18.9623C158.879 19.5668 158.983 20.2027 158.978 20.8426C158.976 21.4894 158.854 22.1302 158.619 22.7317H158.627Z" fill="#B9371B"/>
<path d="M180.077 15.459C179.385 14.7903 178.571 14.2633 177.681 13.9069C176.729 13.5263 175.712 13.3365 174.688 13.3481C173.667 13.339 172.654 13.5287 171.704 13.9069C170.816 14.2612 170.004 14.7886 169.317 15.459C168.631 16.1266 168.092 16.9337 167.737 17.827C167.353 18.7843 167.162 19.8096 167.175 20.8426C167.165 21.8744 167.353 22.8985 167.728 23.8581C168.077 24.7589 168.606 25.5772 169.282 26.2616C169.962 26.9506 170.774 27.491 171.669 27.8492C173.615 28.6062 175.77 28.6062 177.716 27.8492C178.608 27.4899 179.418 26.9496 180.095 26.2616C180.775 25.574 181.31 24.7531 181.666 23.8492C182.046 22.8939 182.237 21.8723 182.227 20.8426C182.241 19.8096 182.05 18.7843 181.666 17.827C181.304 16.9351 180.763 16.1287 180.077 15.459ZM178.804 22.7317C178.611 23.2867 178.313 23.7987 177.927 24.2395C177.53 24.6653 177.049 25.0009 176.514 25.2239C175.959 25.4628 175.361 25.5836 174.758 25.5787C174.156 25.5823 173.558 25.4616 173.003 25.2239C172.471 25.0008 171.992 24.6651 171.599 24.2395C171.208 23.799 170.909 23.2831 170.721 22.7228C170.496 22.1222 170.383 21.4847 170.388 20.8426C170.382 20.1945 170.495 19.5511 170.721 18.9446C170.913 18.3912 171.211 17.8818 171.599 17.4457C171.992 17.02 172.471 16.6843 173.003 16.4612C174.166 15.9881 175.465 15.9881 176.628 16.4612C177.16 16.6843 177.639 17.02 178.032 17.4457C178.427 17.8833 178.726 18.4 178.91 18.9623C179.122 19.5657 179.226 20.2024 179.217 20.8426C179.198 21.4928 179.058 22.1337 178.804 22.7317Z" fill="#B9371B"/>
<path d="M193.812 20.3903L199.719 13.6408H196.235L191.162 19.4856V13.6408H188.169V28.0444H191.162V21.5255L196.454 28.0444H200L193.812 20.3903Z" fill="#B9371B"/>
<path d="M57.2847 41.8714L54.2129 35.4944L52.1416 44.1419H53.6951L54.6429 39.4856L57.2759 44.6918L59.9615 39.4678L60.9094 44.1419H62.4628L60.3916 35.4944L57.2847 41.8714Z" fill="#676767"/>
<path d="M69.4843 36.5853C69.192 36.3637 68.8617 36.1983 68.5101 36.0975C68.1069 35.9865 67.6904 35.9328 67.2726 35.9379C66.6483 35.9196 66.0269 36.0313 65.4471 36.2661C65.0203 36.442 64.6141 36.6651 64.2359 36.9312L64.9029 37.9955C65.0346 37.9068 65.2101 37.7915 65.4383 37.6585C65.6918 37.513 65.9594 37.3941 66.237 37.3037C66.5732 37.2045 66.9223 37.1567 67.2726 37.1618C67.5501 37.1598 67.826 37.2048 68.0888 37.2949C68.3282 37.3782 68.5426 37.5216 68.712 37.7117C68.8765 37.8962 68.9645 38.1375 68.9577 38.3858V39.7162C68.7222 39.5588 68.4688 39.4308 68.2029 39.3348C67.7819 39.1913 67.3395 39.1223 66.8952 39.1308C66.2943 39.1209 65.6975 39.2325 65.1399 39.459C64.6726 39.636 64.2648 39.9436 63.9638 40.3459C63.6805 40.7758 63.5364 41.2841 63.5513 41.8004C63.5341 42.283 63.6627 42.7594 63.92 43.1663C64.1655 43.5372 64.5134 43.827 64.9205 44C65.3496 44.1877 65.8133 44.2814 66.2808 44.2749C66.7978 44.2844 67.3114 44.1878 67.7904 43.9911C68.2243 43.8017 68.5979 43.4948 68.8699 43.1042L69.0016 42.9002V44.1508H70.3795V38.3858C70.3859 38.0405 70.3094 37.6987 70.1566 37.3898C70.0037 37.0809 69.7791 36.814 69.5018 36.612L69.4843 36.5853ZM68.9577 41.0199C68.9777 41.4441 68.8706 41.8644 68.6505 42.2261C68.4358 42.5369 68.1282 42.7701 67.7729 42.8913C67.38 43.0389 66.9633 43.1111 66.5441 43.1042C66.2448 43.1104 65.947 43.0592 65.6665 42.9534C65.4299 42.8657 65.2208 42.7157 65.0609 42.5188C64.9079 42.3151 64.8275 42.065 64.8327 41.8093C64.8165 41.4969 64.8962 41.1872 65.0609 40.9224C65.2305 40.677 65.469 40.4886 65.7455 40.3814C66.1129 40.243 66.5032 40.1767 66.8952 40.1862C67.3594 40.1806 67.8215 40.2495 68.2644 40.3902C68.4775 40.4653 68.6856 40.5542 68.8875 40.6563L68.9577 41.0199Z" fill="#676767"/>
<path d="M73.1875 44.1419H74.5654V37.4191H77.4266V36.1064H73.1875V44.1419Z" fill="#676767"/>
<path d="M84.4393 36.5853C84.147 36.3636 83.8167 36.1983 83.4651 36.0975C83.0648 35.9871 82.6513 35.9334 82.2364 35.9379C81.6092 35.9197 80.985 36.0314 80.4021 36.266C79.9753 36.442 79.5691 36.665 79.1909 36.9312L79.8667 37.9955C79.9896 37.9068 80.1651 37.7915 80.3933 37.6585C80.6468 37.513 80.9145 37.3941 81.192 37.3037C81.5311 37.2036 81.8832 37.1558 82.2364 37.1618C82.511 37.1606 82.7839 37.2056 83.0438 37.2949C83.2832 37.3782 83.4976 37.5216 83.667 37.7117C83.7501 37.802 83.8146 37.9081 83.8567 38.0238C83.8989 38.1396 83.918 38.2626 83.9127 38.3858V39.7162C83.678 39.5574 83.4244 39.4293 83.1579 39.3348C82.7371 39.1906 82.2945 39.1215 81.8502 39.1308C81.2346 39.1149 80.6223 39.2266 80.051 39.459C79.5838 39.636 79.1759 39.9436 78.875 40.3459C78.5916 40.7758 78.4475 41.2841 78.4625 41.8004C78.4452 42.283 78.5738 42.7594 78.8311 43.1663C79.0789 43.5351 79.4261 43.8244 79.8316 44C80.2607 44.1877 80.7244 44.2814 81.192 44.2749C81.7091 44.2853 82.2228 44.1888 82.7015 43.9911C83.1354 43.8017 83.509 43.4948 83.7811 43.1042C83.83 43.0396 83.874 42.9714 83.9127 42.9002V44.1507H85.2906V38.3858C85.298 38.0274 85.2229 37.6722 85.0712 37.3481C84.9234 37.0468 84.7068 36.7853 84.4393 36.5853ZM83.9127 41.0199C83.9327 41.4441 83.8256 41.8644 83.6055 42.2261C83.3908 42.5369 83.0832 42.7701 82.7279 42.8913C82.335 43.0389 81.9183 43.1111 81.4992 43.1042C81.1998 43.1104 80.902 43.0592 80.6215 42.9534C80.3849 42.8657 80.1758 42.7157 80.0159 42.5188C79.8654 42.3142 79.7881 42.0641 79.7965 41.8093C79.7771 41.4978 79.8537 41.1879 80.0159 40.9224C80.1855 40.677 80.424 40.4886 80.7005 40.3813C81.0682 40.2438 81.4582 40.1776 81.8502 40.1862C82.3144 40.1806 82.7765 40.2495 83.2194 40.3902C83.4331 40.4637 83.6413 40.5527 83.8425 40.6563L83.9127 41.0199Z" fill="#676767"/>
<path d="M92.6015 39.8404H92.5226C92.8691 39.6941 93.1717 39.4586 93.4002 39.1574C93.6322 38.8628 93.7562 38.4962 93.7513 38.1197C93.7526 37.7288 93.6261 37.3485 93.3914 37.0377C93.1361 36.6974 92.8014 36.4263 92.4172 36.2483C91.9604 36.0484 91.4666 35.9489 90.9688 35.9566C90.4709 35.9642 89.9804 36.0788 89.5297 36.2927C89.1151 36.4938 88.7585 36.7992 88.4941 37.1796C88.2427 37.5471 88.108 37.9833 88.1079 38.4302H89.5122C89.5161 38.2304 89.5705 38.035 89.6702 37.8625C89.7876 37.6582 89.9574 37.4897 90.1617 37.3747C90.4307 37.2289 90.7345 37.1613 91.0393 37.1796C91.2814 37.1716 91.5228 37.2107 91.7502 37.2949C91.9297 37.3678 92.085 37.4908 92.1978 37.6497C92.3073 37.8078 92.3628 37.9978 92.3558 38.1907C92.357 38.3327 92.3269 38.4733 92.2677 38.6022C92.2085 38.731 92.1217 38.8449 92.0135 38.9357C91.679 39.1662 91.2759 39.2727 90.8726 39.2373V40.4612C91.2215 40.4524 91.5692 40.5065 91.8994 40.6208C92.151 40.7073 92.3732 40.8642 92.5401 41.0732C92.6851 41.2834 92.759 41.5354 92.7507 41.7916C92.7571 42.0351 92.6864 42.2744 92.5489 42.4745C92.3955 42.6785 92.1888 42.8352 91.9521 42.9268C91.649 43.0402 91.3273 43.0944 91.0042 43.0865C90.769 43.1079 90.5319 43.0779 90.3093 42.9983C90.0866 42.9187 89.8836 42.7914 89.7141 42.6253C89.4521 42.3363 89.2731 41.9806 89.1962 41.5965H87.792C87.8676 42.3434 88.2147 43.0355 88.7662 43.5388C89.3888 44.0718 90.1893 44.3446 91.0042 44.3016C91.5398 44.3096 92.0715 44.207 92.5664 44C93.0161 43.813 93.4073 43.5065 93.6986 43.1131C93.9844 42.724 94.1328 42.2493 94.1199 41.765C94.1393 41.3194 93.9991 40.8817 93.7249 40.5322C93.4223 40.1994 93.0329 39.9596 92.6015 39.8404Z" fill="#676767"/>
<path d="M98.1045 36.1064H96.7178V44.7539L101.992 38.9357V44.1419H103.379V35.4944L98.1045 41.3215V36.1064Z" fill="#676767"/>
<path d="M112.288 39.255H107.873V36.1064H106.486V44.1419H107.873V40.5676H112.288V44.1419H113.666V36.1064H112.288V39.255Z" fill="#676767"/>
<path d="M126.856 39.8404H126.777C127.124 39.6941 127.427 39.4586 127.655 39.1574C127.887 38.8628 128.011 38.4962 128.006 38.1197C128.007 37.7288 127.881 37.3485 127.646 37.0377C127.391 36.6974 127.056 36.4263 126.672 36.2483C126.215 36.0484 125.721 35.9489 125.224 35.9566C124.726 35.9642 124.235 36.0788 123.785 36.2927C123.37 36.4938 123.013 36.7992 122.749 37.1796C122.498 37.5471 122.363 37.9833 122.363 38.4302H123.767C123.771 38.2304 123.825 38.035 123.925 37.8625C124.042 37.6582 124.212 37.4897 124.417 37.3747C124.686 37.2302 124.99 37.1627 125.294 37.1796C125.536 37.1716 125.778 37.2107 126.005 37.2949C126.186 37.3651 126.342 37.4887 126.453 37.6497C126.562 37.8078 126.618 37.9978 126.611 38.1907C126.612 38.3327 126.582 38.4733 126.523 38.6022C126.463 38.731 126.377 38.8449 126.268 38.9357C125.934 39.1662 125.531 39.2727 125.127 39.2373V40.4612C125.476 40.4524 125.824 40.5065 126.154 40.6208C126.406 40.7073 126.628 40.8642 126.795 41.0732C126.94 41.2834 127.014 41.5354 127.006 41.7916C127.012 42.0351 126.941 42.2744 126.804 42.4745C126.65 42.6785 126.444 42.8352 126.207 42.9268C125.904 43.0402 125.582 43.0944 125.259 43.0865C125.024 43.1079 124.787 43.0779 124.564 42.9983C124.342 42.9187 124.138 42.7914 123.969 42.6253C123.707 42.3363 123.528 41.9806 123.451 41.5965H122.047C122.126 42.3425 122.472 43.0335 123.021 43.5388C123.644 44.0718 124.444 44.3446 125.259 44.3016C125.795 44.3096 126.326 44.207 126.821 44C127.271 43.813 127.662 43.5065 127.953 43.1131C128.239 42.724 128.388 42.2493 128.375 41.765C128.394 41.3194 128.254 40.8817 127.98 40.5322C127.677 40.1994 127.288 39.9596 126.856 39.8404Z" fill="#676767"/>
<path d="M136.686 39.255H132.271V36.1064H130.885V44.1419H132.271V40.5676H136.686V44.1419H138.064V36.1064H136.686V39.255Z" fill="#676767"/>
<path d="M146.252 36.5854C145.964 36.3622 145.636 36.1966 145.287 36.0976C144.269 35.8374 143.198 35.8962 142.215 36.2661C141.79 36.4459 141.384 36.6688 141.004 36.9313L141.679 37.9956L142.206 37.6585C142.463 37.5147 142.734 37.3959 143.013 37.3038C143.35 37.2045 143.699 37.1567 144.049 37.1619C144.327 37.1598 144.603 37.2048 144.865 37.2949C145.104 37.3805 145.317 37.5236 145.488 37.7118C145.65 37.8976 145.735 38.1388 145.725 38.3858V39.7162C145.493 39.5595 145.242 39.4315 144.979 39.3348C144.558 39.1913 144.116 39.1223 143.672 39.1308C143.071 39.121 142.474 39.2325 141.916 39.459C141.447 39.6329 141.039 39.9411 140.74 40.3459C140.453 40.774 140.309 41.2836 140.328 41.8004C140.311 42.283 140.439 42.7594 140.696 43.1663C140.941 43.5348 141.285 43.8243 141.688 44C142.121 44.1869 142.587 44.2806 143.057 44.2749C143.572 44.2854 144.082 44.1888 144.558 43.9911C144.995 43.8068 145.37 43.4988 145.638 43.1042C145.69 43.0418 145.734 42.9733 145.769 42.9002V44.1508H147.13V38.3858C147.134 38.0267 147.056 37.6714 146.902 37.3481C146.749 37.0449 146.526 36.7832 146.252 36.5854ZM145.725 41.02C145.748 41.4432 145.644 41.8635 145.427 42.2262C145.212 42.537 144.905 42.7701 144.549 42.8913C144.157 43.0403 143.74 43.1126 143.321 43.1042C143.021 43.1107 142.723 43.0595 142.443 42.9534C142.206 42.8657 141.997 42.7157 141.837 42.5188C141.684 42.3151 141.604 42.065 141.609 41.8093C141.593 41.497 141.673 41.1872 141.837 40.9224C142.007 40.677 142.245 40.4886 142.522 40.3814C142.889 40.2421 143.28 40.1759 143.672 40.1862C144.133 40.1816 144.592 40.2504 145.032 40.3902C145.246 40.4622 145.455 40.5511 145.655 40.6563L145.725 41.02Z" fill="#676767"/>
<path d="M155.705 39.255H151.29V36.1064H149.912V44.1419H151.29V40.5676H155.705V44.1419H157.083V36.1064H155.705V39.255Z" fill="#676767"/>
<path d="M161.585 36.1064H160.198V44.7539L165.473 38.9357V44.1419H166.86V35.4944L161.585 41.3215V36.1064Z" fill="#676767"/>
<path d="M171.915 34.0932C172.388 34.3267 172.907 34.448 173.434 34.448C173.96 34.448 174.479 34.3267 174.952 34.0932C175.318 33.883 175.622 33.5765 175.83 33.2062C176.028 32.8515 176.133 32.4517 176.137 32.0444H174.908C174.9 32.2308 174.859 32.4142 174.785 32.5854C174.691 32.8059 174.536 32.994 174.338 33.1264C174.057 33.2956 173.733 33.3759 173.407 33.357C173.079 33.3755 172.752 33.2953 172.468 33.1264C172.27 32.994 172.114 32.8059 172.021 32.5854C171.947 32.4142 171.905 32.2308 171.898 32.0444H170.669C170.674 32.4704 170.79 32.8875 171.004 33.2546C171.218 33.6217 171.523 33.9261 171.889 34.1375L171.915 34.0932Z" fill="#676767"/>
<path d="M171.441 36.1064H170.055V44.7539L175.329 38.9357V44.1419H176.716V35.4944L171.441 41.3215V36.1064Z" fill="#676767"/>
<path d="M41.1971 0.133046C41.0191 0.0383876 40.8191 -0.00582164 40.6182 0.00510862C40.4173 0.0160389 40.2231 0.081701 40.0562 0.19513L30.481 6.73171H7.4513C5.47733 6.73405 3.58474 7.52692 2.1881 8.93663C0.79147 10.3463 0.00465582 12.258 1.25291e-05 14.2528V25.6053C-0.00231238 26.8851 0.318959 28.1444 0.933355 29.2635C1.54775 30.3826 2.4349 31.3246 3.51063 32C2.43536 32.6781 1.54877 33.6219 0.934543 34.7423C0.320311 35.8627 -0.00131377 37.1227 1.25291e-05 38.4036V62.8825C-0.000217504 63.0874 0.0553365 63.2885 0.160595 63.4637C0.265854 63.6389 0.416764 63.7815 0.596818 63.8758C0.755666 63.9633 0.933725 64.0091 1.11463 64.0089C1.33655 64.0055 1.55284 63.9378 1.73777 63.8138L11.313 57.2772H34.3514C36.3269 57.2772 38.2218 56.4854 39.6203 55.0754C41.0188 53.6654 41.8068 51.7524 41.8115 49.7561V38.4036C41.8128 37.1227 41.4912 35.8627 40.877 34.7423C40.2627 33.6219 39.3761 32.6781 38.3009 32C39.3766 31.3246 40.2638 30.3826 40.8782 29.2635C41.4925 28.1444 41.8138 26.8851 41.8115 25.6053V1.12639C41.8101 0.919581 41.7519 0.71723 41.6434 0.541853C41.535 0.366475 41.3805 0.224958 41.1971 0.133046ZM39.5735 38.4036V49.7561C39.5735 51.1675 39.0187 52.521 38.0311 53.519C37.0436 54.517 35.7042 55.0776 34.3075 55.0776H10.9707C10.7494 55.0763 10.5326 55.1411 10.3476 55.2639L2.22048 60.816V38.4036C2.22048 36.9922 2.77528 35.6387 3.76283 34.6407C4.75039 33.6427 6.0898 33.0821 7.48641 33.0821H34.3514C35.7404 33.0937 37.0686 33.6596 38.0467 34.6563C39.0248 35.653 39.5735 36.9999 39.5735 38.4036ZM39.5735 25.6053C39.5619 27.009 39.002 28.3512 38.0157 29.3396C37.0294 30.328 35.6966 30.8825 34.3075 30.8825H7.4513C6.06226 30.8825 4.72946 30.328 3.74316 29.3396C2.75686 28.3512 2.19695 27.009 2.18537 25.6053V14.2528C2.18537 12.8414 2.74018 11.4879 3.72773 10.4899C4.71528 9.49192 6.05469 8.93127 7.4513 8.93127H30.8233C31.046 8.93331 31.2638 8.8651 31.4464 8.73615L39.5735 3.19291V25.6053Z" fill="#303030"/>
<path d="M30.0158 13.4901H15.6486C14.0432 13.4924 12.5042 14.1379 11.369 15.2851C10.2339 16.4322 9.5951 17.9875 9.59277 19.6098V20.1508C9.5951 21.7731 10.2339 23.3284 11.369 24.4755C12.5042 25.6227 14.0432 26.2682 15.6486 26.2705H30.0158C30.2951 26.2705 30.563 26.1584 30.7605 25.9588C30.958 25.7592 31.069 25.4885 31.069 25.2062V14.5632C31.0701 14.4227 31.0438 14.2834 30.9914 14.1532C30.9389 14.0231 30.8616 13.9047 30.7636 13.8049C30.6657 13.7051 30.5492 13.6259 30.4209 13.5719C30.2925 13.5179 30.1548 13.49 30.0158 13.4901Z" fill="#676767"/>
<path d="M26.2067 37.6496H11.9712C11.8333 37.6485 11.6965 37.6749 11.5688 37.7274C11.4411 37.7799 11.3249 37.8575 11.227 37.9556C11.1291 38.0537 11.0513 38.1705 10.9983 38.2991C10.9453 38.4277 10.918 38.5657 10.918 38.7051V49.3481C10.918 49.4874 10.9453 49.6254 10.9983 49.754C11.0513 49.8827 11.1291 49.9994 11.227 50.0975C11.3249 50.1957 11.4411 50.2732 11.5688 50.3257C11.6965 50.3782 11.8333 50.4047 11.9712 50.4035H26.2067C27.8066 50.4035 29.3412 49.7619 30.4733 48.6194C31.6055 47.477 32.2427 45.9272 32.245 44.3104V43.7339C32.2403 42.1186 31.6021 40.5711 30.4702 39.4306C29.3383 38.2901 27.8051 37.6496 26.2067 37.6496Z" fill="#B9371B"/>
</g>
<defs>
<clipPath id="clip0_163_3343">
<rect width="200" height="64" fill="white"/>
</clipPath>
</defs>
</svg>
