<svg width="85" height="61" viewBox="0 0 85 61" fill="none" xmlns="http://www.w3.org/2000/svg">
<g clip-path="url(#clip0_147_4764)">
<path d="M49.0246 15.8028H49.972C50.516 15.8097 51.0571 15.7241 51.5708 15.5497C52.0278 15.3943 52.4466 15.1479 52.8006 14.8262C53.1456 14.5065 53.4146 14.1171 53.5886 13.6854C53.9531 12.7258 53.9531 11.6708 53.5886 10.7113C53.4146 10.2795 53.1456 9.89014 52.8006 9.57047C52.4466 9.24877 52.0278 9.00236 51.5708 8.84692C51.0571 8.67254 50.516 8.58691 49.972 8.5939H47.4668V15.8028H49.0246ZM49.0246 9.94334H49.9356C50.2442 9.94042 50.5515 9.98384 50.8466 10.0721C51.1245 10.1533 51.3831 10.2876 51.6072 10.4671C51.8362 10.6554 52.0131 10.8965 52.122 11.1685C52.2478 11.4976 52.3081 11.8472 52.2996 12.1983C52.3086 12.5481 52.2483 12.8962 52.122 13.2237C52.0134 13.5009 51.8367 13.7478 51.6072 13.9428C51.3845 14.1254 51.1256 14.2614 50.8466 14.3423C50.5515 14.4306 50.2442 14.474 49.9356 14.4711H49.0246V9.94334Z" fill="#A63E26"/>
<path d="M58.4214 15.8026H61.6555V14.5464H58.4214V12.5888H61.4414V11.3593H58.4214V9.84558H61.6555V8.58936H58.4214H57.9113H56.9502V15.8026H57.9113H58.4214Z" fill="#A63E26"/>
<path d="M69.5179 14.502H66.5708V8.58936H65.0586V15.8026H69.5179V14.502Z" fill="#A63E26"/>
<path d="M72.7835 15.8026H74.3048V9.92992H76.3045V8.58936H70.8066V9.92992H72.7835V15.8026Z" fill="#A63E26"/>
<path d="M79.7116 14.178H82.2442L83.0185 15.8027H84.7221L80.9642 8.17212L77.2246 15.816H78.9373L79.7116 14.178ZM80.9779 10.942L81.8889 12.9928H80.0669L80.9779 10.942Z" fill="#A63E26"/>
<path d="M51.5298 24.6406C51.9163 24.5175 52.2549 24.282 52.5 23.9658C52.7355 23.6292 52.8536 23.2277 52.8371 22.8206C52.8421 22.5104 52.7635 22.2043 52.6093 21.9328C52.4554 21.6814 52.2432 21.4686 51.9899 21.3114C51.7707 21.1822 51.5348 21.0821 51.2884 21.0139C51.5985 20.8962 51.8739 20.7056 52.0901 20.4591C52.308 20.1922 52.4225 19.859 52.4135 19.518C52.4201 19.2393 52.356 18.9633 52.2267 18.7146C52.1037 18.4882 51.9273 18.2935 51.712 18.1464C51.4722 17.9878 51.2054 17.872 50.924 17.8046C50.5945 17.7272 50.2563 17.6899 49.9174 17.6936H47.4531V24.9025H50.1041C50.5912 24.8948 51.0733 24.8063 51.5298 24.6406ZM48.979 18.8255H49.7944C50.0738 18.8109 50.35 18.8891 50.5778 19.0475C50.6716 19.1232 50.7459 19.2193 50.7949 19.3279C50.844 19.4366 50.8663 19.5548 50.8602 19.6734C50.8662 19.8346 50.8214 19.9938 50.7319 20.1295C50.6423 20.2652 50.5122 20.3709 50.3592 20.4324C50.1808 20.5066 49.9883 20.5429 49.7944 20.539H48.979V18.8255ZM48.979 23.7084V21.6265H49.9538C50.1319 21.6259 50.3094 21.6467 50.4822 21.6887C50.632 21.7261 50.7749 21.786 50.9058 21.8662C51.0236 21.9455 51.1191 22.0524 51.1836 22.177C51.2524 22.3152 51.2867 22.4673 51.2838 22.6208C51.2932 22.8362 51.2326 23.049 51.1108 23.229C50.9915 23.3904 50.8247 23.5127 50.6325 23.5797C50.4156 23.659 50.1854 23.6982 49.9538 23.6951L48.979 23.7084Z" fill="#A63E26"/>
<path d="M57.1463 23.9659C57.4982 24.3097 57.9181 24.58 58.3807 24.7605C59.3923 25.1392 60.512 25.1392 61.5236 24.7605C61.9865 24.5807 62.4066 24.3103 62.758 23.9659C63.1113 23.6218 63.3888 23.2109 63.5733 22.7585C63.7692 22.2799 63.8682 21.769 63.8648 21.2537C63.8698 20.7369 63.7708 20.2242 63.5733 19.7445C63.3857 19.2981 63.1049 18.8945 62.7489 18.5593C62.3896 18.2246 61.9674 17.9609 61.5054 17.7825C60.5068 17.4097 59.4021 17.4097 58.4035 17.7825C57.9414 17.9609 57.5192 18.2246 57.1599 18.5593C56.8066 18.8948 56.5289 19.2985 56.3446 19.7445C56.1451 20.2236 56.046 20.7367 56.0531 21.2537C56.0488 21.7697 56.1446 22.2817 56.3355 22.763C56.518 23.214 56.794 23.6236 57.1463 23.9659ZM57.8159 20.3038C57.9178 20.028 58.0724 19.7735 58.2714 19.5536C58.4754 19.3406 58.7239 19.1726 59.0001 19.0609C59.6037 18.8241 60.2778 18.8241 60.8813 19.0609C61.1576 19.1726 61.4061 19.3406 61.6101 19.5536C61.815 19.7726 61.9702 20.0313 62.0656 20.3127C62.1734 20.6152 62.2273 20.9335 62.2251 21.2537C62.227 21.5762 62.1699 21.8963 62.0565 22.1992C61.9489 22.4786 61.7864 22.7349 61.5783 22.9539C61.3742 23.1669 61.1257 23.3349 60.8495 23.4466C60.2538 23.6834 59.5867 23.6834 58.991 23.4466C58.7148 23.3349 58.4663 23.1669 58.2622 22.9539C58.0612 22.7321 57.9064 22.4743 57.8068 22.1948C57.6937 21.8933 57.6366 21.5747 57.6382 21.2537C57.6391 20.9293 57.6993 20.6077 57.8159 20.3038Z" fill="#A63E26"/>
<path d="M72.4233 17.7823C71.9291 17.5919 71.4016 17.4969 70.8701 17.5027C70.3402 17.4981 69.8144 17.5931 69.3214 17.7823C68.8602 17.9597 68.4393 18.2236 68.0825 18.5592C67.7263 18.8933 67.4469 19.2973 67.2626 19.7444C67.0631 20.2235 66.9639 20.7366 66.9711 21.2536C66.9657 21.77 67.0632 22.2826 67.258 22.7628C67.4388 23.2137 67.7133 23.6233 68.0642 23.9658C68.417 24.3106 68.8387 24.5811 69.3032 24.7604C70.3132 25.1392 71.4316 25.1392 72.4416 24.7604C72.9046 24.5795 73.3251 24.3087 73.6774 23.9646C74.0298 23.6204 74.3067 23.2101 74.4913 22.7584C74.6887 22.2803 74.7877 21.769 74.7828 21.2536C74.7899 20.7366 74.6908 20.2235 74.4913 19.7444C74.3053 19.2971 74.0243 18.8932 73.6668 18.5592C73.3076 18.2245 72.8854 17.9607 72.4233 17.7823ZM73.0064 22.1991C72.9058 22.4769 72.7512 22.7331 72.5509 22.9537C72.3459 23.1657 72.0976 23.3336 71.8221 23.4464C71.2248 23.6831 70.5564 23.6831 69.9591 23.4464C69.6829 23.3348 69.4344 23.1668 69.2303 22.9537C69.0275 22.7333 68.8725 22.4751 68.7748 22.1947C68.6581 21.8941 68.5994 21.575 68.6017 21.2536C68.599 20.9293 68.6577 20.6072 68.7748 20.3037C68.8743 20.0267 69.0291 19.7717 69.2303 19.5535C69.4344 19.3404 69.6829 19.1724 69.9591 19.0608C70.5626 18.824 71.2368 18.824 71.8403 19.0608C72.1165 19.1724 72.365 19.3404 72.5691 19.5535C72.774 19.7725 72.9292 20.0311 73.0246 20.3125C73.1346 20.6145 73.1885 20.9332 73.184 21.2536C73.1781 21.5782 73.1102 21.8988 72.9836 22.1991H73.0064Z" fill="#A63E26"/>
<path d="M78.2725 17.6448V24.8581H79.8257V21.5954L82.5723 24.8581H84.4125L81.1967 21.0228L84.2622 17.6448H82.4539L79.8257 20.57V17.6448H78.2725Z" fill="#A63E26"/>
<path d="M53.5203 40.9449L52.2996 36.031L50.4685 39.6487L48.6647 36.031L47.4395 40.9449H48.3596L48.9153 38.2949L50.4639 41.2512L52.0445 38.286L52.6048 40.9449H53.5203Z" fill="#EEEDED"/>
<path d="M58.2027 40.9448V37.6689C58.2085 37.4721 58.166 37.2769 58.0789 37.0994C57.9918 36.9218 57.8625 36.7671 57.7017 36.6479C57.5298 36.5229 57.335 36.431 57.1278 36.3771C56.8928 36.3091 56.6486 36.2762 56.4035 36.2795C56.0342 36.2713 55.6669 36.3363 55.324 36.4704C55.0714 36.5686 54.8314 36.6953 54.6089 36.8477L55.0052 37.4514C55.0826 37.3981 55.1828 37.336 55.3149 37.2605C55.4588 37.1778 55.6115 37.1108 55.7704 37.0607C55.9697 37.0017 56.1771 36.9733 56.3853 36.9764C56.5407 36.9776 56.6947 37.0046 56.8408 37.0563C56.9796 37.1035 57.1046 37.1827 57.2052 37.2871C57.3009 37.392 57.3514 37.5287 57.3464 37.6689V38.4368C57.2047 38.3457 57.0516 38.2726 56.8909 38.2193C56.6428 38.1396 56.3824 38.102 56.1211 38.1083C55.7601 38.1009 55.401 38.1628 55.0644 38.2903C54.7884 38.397 54.5485 38.5769 54.372 38.8097C54.2028 39.0528 54.1167 39.3417 54.1261 39.6353C54.1109 39.8997 54.1803 40.162 54.3248 40.3863C54.4692 40.6105 54.6815 40.7855 54.9323 40.8871C55.1855 40.9932 55.4583 41.0476 55.734 41.0469C56.0459 41.0528 56.3558 40.9969 56.645 40.8827C56.8975 40.781 57.1177 40.6155 57.2826 40.4033C57.3106 40.3655 57.335 40.3254 57.3555 40.2834V40.9448H58.2027ZM57.2098 39.844C57.0906 40.0171 56.9185 40.1491 56.7178 40.2213C56.4862 40.305 56.2406 40.3456 55.9936 40.3411C55.8243 40.3422 55.6561 40.3136 55.4971 40.2568C55.3573 40.2052 55.2335 40.1197 55.1373 40.0082C55.048 39.8918 55.0015 39.7495 55.0052 39.6043C55.0024 39.437 55.0482 39.2723 55.1373 39.1293C55.2365 38.9886 55.3781 38.8816 55.5427 38.823C55.7574 38.7421 55.9867 38.7044 56.2168 38.712C56.4901 38.7088 56.7622 38.7477 57.023 38.8274C57.1487 38.8674 57.2706 38.9179 57.3874 38.9784V39.1604C57.3993 39.4004 57.3375 39.6384 57.2098 39.844Z" fill="#EEEDED"/>
<path d="M59.9385 40.9449H60.7538V37.1229H62.43V36.3772H59.9385V40.9449Z" fill="#EEEDED"/>
<path d="M64.7034 41.047C65.0062 41.0501 65.3066 40.9942 65.587 40.8828C65.8396 40.7811 66.0597 40.6156 66.2247 40.4034C66.2526 40.3647 66.2784 40.3247 66.3021 40.2835V40.9449H67.1175V37.669C67.1209 37.4658 67.074 37.2648 66.9808 37.083C66.8946 36.9093 66.7683 36.7574 66.6119 36.6391C66.4411 36.515 66.248 36.4231 66.0425 36.3684C65.8059 36.3006 65.5603 36.2677 65.3137 36.2707C64.9443 36.2626 64.5771 36.3275 64.2342 36.4616C63.9816 36.5599 63.7416 36.6865 63.5191 36.8389L63.9153 37.4426C63.9928 37.3893 64.0975 37.3272 64.2296 37.2517C64.3727 37.1676 64.5256 37.1005 64.6851 37.052C64.8828 36.9929 65.0888 36.9644 65.2955 36.9676C65.4585 36.9662 65.6205 36.9933 65.7738 37.0475C65.9126 37.0947 66.0376 37.1739 66.1382 37.2783C66.235 37.3827 66.2872 37.5194 66.2839 37.6601V38.428C66.1415 38.3382 65.9886 38.2652 65.8284 38.2105C65.5817 38.1313 65.3229 38.0937 65.0632 38.0995C64.7006 38.0921 64.3401 38.154 64.0019 38.2815C63.7259 38.3882 63.486 38.5682 63.3095 38.8009C63.1403 39.044 63.0542 39.3329 63.0636 39.6265C63.0484 39.8909 63.1178 40.1533 63.2623 40.3775C63.4067 40.6017 63.619 40.7767 63.8698 40.8783C64.1324 40.991 64.4164 41.0485 64.7034 41.047ZM64.052 39.1294C64.1484 38.988 64.2889 38.8806 64.4528 38.8231C64.6676 38.7422 64.8969 38.7045 65.127 38.7121C65.4003 38.7088 65.6724 38.7478 65.9332 38.8275C66.06 38.8683 66.1834 38.9188 66.3021 38.9785V39.1605C66.314 39.4005 66.2522 39.6385 66.1245 39.8441C66.0024 40.0163 65.8291 40.1479 65.628 40.2214C65.3964 40.3051 65.1507 40.3457 64.9038 40.3412C64.7345 40.3419 64.5664 40.3133 64.4073 40.2569C64.2683 40.2063 64.1456 40.1205 64.052 40.0083C63.9591 39.8935 63.9107 39.7505 63.9153 39.6043C63.911 39.4363 63.9586 39.2708 64.052 39.1294Z" fill="#EEEDED"/>
<path d="M71.454 40.8694C71.7167 40.7659 71.9464 40.5958 72.119 40.3767C72.2887 40.1537 72.3769 39.8818 72.3695 39.6043C72.3803 39.3524 72.2978 39.1051 72.1372 38.9074C71.9589 38.7114 71.7265 38.5696 71.4676 38.499H71.4221C71.6329 38.4162 71.8192 38.2835 71.9641 38.1128C72.0949 37.9424 72.1652 37.7352 72.1645 37.5224C72.1659 37.3007 72.094 37.0844 71.9596 36.9054C71.8072 36.7133 71.6085 36.5608 71.3811 36.4615C71.1128 36.3459 70.8219 36.2884 70.5286 36.293C70.2352 36.2976 69.9464 36.3642 69.6821 36.4882C69.4359 36.6068 69.2256 36.7858 69.0717 37.0075C68.9252 37.2184 68.8474 37.4675 68.8485 37.7222H69.6912C69.692 37.6097 69.7234 37.4994 69.7823 37.4026C69.8486 37.2846 69.9482 37.1876 70.0693 37.1229C70.2245 37.0418 70.3988 37.002 70.5749 37.0075C70.7179 37.0056 70.86 37.0296 70.9939 37.0786C71.0843 37.1136 71.1637 37.1709 71.2244 37.245C71.2851 37.319 71.325 37.4071 71.3402 37.5007C71.3553 37.5943 71.3453 37.6901 71.3109 37.7788C71.2765 37.8674 71.2191 37.9458 71.1442 38.0063C70.9487 38.1387 70.7118 38.2 70.4746 38.1794V38.8763C70.6804 38.8702 70.8856 38.9003 71.0805 38.9651C71.2294 39.0134 71.3607 39.1029 71.4585 39.2226C71.5431 39.3425 71.5861 39.4855 71.5815 39.6309C71.5822 39.7683 71.541 39.9027 71.4631 40.0171C71.3721 40.1341 71.2489 40.2234 71.1078 40.2746C70.9313 40.3372 70.7444 40.3673 70.5566 40.3634C70.4176 40.377 70.2771 40.361 70.145 40.3166C70.0129 40.2721 69.8922 40.2002 69.7914 40.1059C69.6389 39.94 69.5336 39.7379 69.4862 39.52H68.6436C68.6874 39.9438 68.8921 40.3364 69.2175 40.6208C69.583 40.9286 70.056 41.0875 70.5384 41.0647C70.8541 41.0612 71.1656 40.9947 71.454 40.8694Z" fill="#EEEDED"/>
<path d="M73.9492 36.3772V41.2912L77.0557 37.9841V40.9449H77.871V36.031L74.7646 39.338V36.3772H73.9492Z" fill="#EEEDED"/>
<path d="M83.1646 38.1661H80.5683V36.3772H79.7529V40.9449H80.5683V38.9074H83.1646V40.9449H83.9799V36.3772H83.1646V38.1661Z" fill="#EEEDED"/>
<path d="M50.1769 46.0984H50.1314C50.3416 46.0168 50.5268 45.8838 50.6689 45.7122C50.8034 45.5435 50.8756 45.3355 50.8739 45.1218C50.8755 44.8993 50.8019 44.6824 50.6643 44.5048C50.5141 44.3124 50.3168 44.1598 50.0904 44.0609C49.8324 43.9442 49.5504 43.8865 49.266 43.8922C48.9615 43.8864 48.66 43.9519 48.3868 44.0831C48.1402 44.2032 47.9299 44.3837 47.7765 44.6069C47.6294 44.8176 47.5516 45.0668 47.5533 45.3216H48.3777C48.3807 45.208 48.412 45.0968 48.4688 44.9975C48.5396 44.8813 48.64 44.785 48.7604 44.7179C48.9158 44.6377 49.0903 44.5994 49.266 44.6069C49.4072 44.6032 49.5479 44.6258 49.6805 44.6735C49.7866 44.7135 49.8785 44.7829 49.9446 44.8732C50.0094 44.9627 50.0429 45.0701 50.0403 45.1795C50.0448 45.2641 50.0285 45.3484 49.9929 45.4256C49.9572 45.5028 49.9032 45.5706 49.8353 45.6234C49.639 45.758 49.4003 45.8209 49.1612 45.801V46.4935C49.3669 46.4888 49.5718 46.5188 49.767 46.5822C49.9157 46.631 50.0469 46.7204 50.1451 46.8397C50.2324 46.9585 50.2772 47.102 50.2726 47.2481C50.2752 47.3863 50.2321 47.5217 50.1496 47.6343C50.0631 47.7536 49.9405 47.8436 49.7989 47.8917C49.6215 47.9568 49.4326 47.987 49.2432 47.9805C49.1048 47.9938 48.9652 47.9776 48.8338 47.9332C48.7025 47.8887 48.5826 47.817 48.4825 47.723C48.3273 47.5588 48.2217 47.3561 48.1773 47.1371H47.3711C47.4148 47.5619 47.6214 47.9551 47.9496 48.238C48.3137 48.545 48.785 48.7039 49.266 48.6819C49.5785 48.6848 49.8884 48.6259 50.1769 48.5087C50.4413 48.4035 50.6723 48.232 50.8465 48.0116C51.0149 47.7897 51.103 47.5196 51.097 47.2436C51.1085 46.9895 51.0242 46.7401 50.8602 46.5423C50.6822 46.332 50.4446 46.1776 50.1769 46.0984Z" fill="#EEEDED"/>
<path d="M55.9664 45.7654H53.37V43.981H52.5547V48.5442H53.37V46.5112H55.9664V48.5442H56.7817V43.981H55.9664V45.7654Z" fill="#EEEDED"/>
<path d="M61.6241 44.2475C61.4512 44.1242 61.2567 44.0324 61.0502 43.9767C60.8145 43.9124 60.5707 43.881 60.3259 43.8835C59.9569 43.874 59.5896 43.9374 59.2464 44.0699C58.9955 44.1718 58.7559 44.2982 58.5313 44.4473L58.9276 45.0554C59.005 45.0021 59.1098 44.9355 59.2419 44.8601C59.3858 44.7776 59.5386 44.7107 59.6974 44.6603C59.8954 44.6031 60.1011 44.5747 60.3077 44.576C60.4708 44.5746 60.6327 44.6017 60.786 44.6559C60.9252 44.7043 61.0503 44.7851 61.1504 44.8912C61.2469 44.9955 61.2976 45.1326 61.2916 45.2729V46.0364C61.1496 45.9469 60.9966 45.8753 60.8361 45.8233C60.5882 45.7421 60.3278 45.703 60.0663 45.7079C59.7052 45.7005 59.3462 45.7623 59.0096 45.8899C58.7323 45.9968 58.4922 46.1785 58.3172 46.4137C58.1481 46.6552 58.0619 46.9427 58.0712 47.2349C58.0609 47.5109 58.1372 47.7835 58.2899 48.0162C58.4361 48.224 58.6399 48.3872 58.8775 48.4867C59.1315 48.5953 59.4063 48.6497 59.6837 48.6465C59.9867 48.6513 60.2874 48.5954 60.5674 48.4823C60.8196 48.3822 61.0398 48.2182 61.205 48.0073C61.2324 47.9673 61.2551 47.9274 61.2779 47.8874V48.5666H62.0933V45.2907C62.0981 45.0878 62.0528 44.8869 61.9612 44.7047C61.8866 44.529 61.7712 44.3725 61.6241 44.2475ZM61.3098 46.7599C61.3223 47 61.2604 47.2382 61.1322 47.4435C61.013 47.6166 60.8409 47.7487 60.6402 47.8209C60.4086 47.9046 60.163 47.9452 59.916 47.9407C59.7465 47.9439 59.5779 47.9153 59.4195 47.8564C59.2789 47.8063 59.1547 47.7205 59.0597 47.6078C58.9704 47.4931 58.9238 47.3522 58.9276 47.2083C58.9169 47.0381 58.9637 46.8692 59.0607 46.7273C59.1578 46.5855 59.2998 46.4785 59.4651 46.4226C59.6809 46.346 59.9096 46.3098 60.1392 46.316C60.4122 46.3114 60.6843 46.3489 60.9454 46.427C61.0712 46.4686 61.1931 46.5206 61.3098 46.5824V46.7599Z" fill="#EEEDED"/>
<path d="M67.1675 45.7654H64.5712V43.981H63.7559V48.5442H64.5712V46.5112H67.1675V48.5442H67.9829V43.981H67.1675V45.7654Z" fill="#EEEDED"/>
<path d="M70.6288 43.981H69.8135V48.8905L72.92 45.5879V48.5443H73.7353V43.6304L70.6288 46.9374V43.981Z" fill="#EEEDED"/>
<path d="M77.0564 42.2588C76.9382 42.1855 76.846 42.0786 76.7922 41.9525C76.7478 41.8575 76.7231 41.7549 76.7194 41.6506H75.9951C75.9969 41.8807 76.058 42.1066 76.1728 42.3076C76.298 42.5305 76.4861 42.7138 76.7148 42.8358C76.9923 42.97 77.2978 43.0398 77.6076 43.0398C77.9173 43.0398 78.2229 42.97 78.5003 42.8358C78.7157 42.7167 78.8952 42.5445 79.0207 42.3365C79.1462 42.1285 79.2134 41.892 79.2155 41.6506H78.4912C78.4875 41.7549 78.4628 41.8575 78.4184 41.9525C78.3646 42.0786 78.2724 42.1855 78.1542 42.2588C77.9851 42.3462 77.7967 42.3919 77.6053 42.3919C77.4139 42.3919 77.2255 42.3462 77.0564 42.2588Z" fill="#EEEDED"/>
<path d="M76.4364 43.981H75.6211V48.8905L78.7276 45.5879V48.5443H79.5429V43.6304L76.4364 46.9374V43.981Z" fill="#EEEDED"/>
<path d="M40.7168 0.128016C40.541 0.0363295 40.3428 -0.00675721 40.1437 0.00341411C39.9446 0.0135854 39.7521 0.0766295 39.5871 0.185724L30.1219 6.39581H7.34715C5.39453 6.40051 3.52373 7.16065 2.146 8.50911C0.768274 9.85758 -0.00361592 11.684 1.27361e-05 13.5869V24.4002C0.000931762 25.6242 0.323818 26.8275 0.93784 27.8953C1.55186 28.963 2.43652 29.8596 3.50733 30.4993C2.43676 31.1403 1.5524 32.0378 0.938466 33.1062C0.324531 34.1746 0.0014585 35.3783 1.27361e-05 36.6028V59.9295C-0.000598665 60.1239 0.0534086 60.3148 0.156183 60.4815C0.258957 60.6482 0.406577 60.7842 0.583046 60.875C0.75912 60.9657 0.957134 61.0083 1.15604 60.9981C1.35494 60.988 1.5473 60.9255 1.71267 60.8173L11.1779 54.6028H33.9526C35.9029 54.6004 37.7726 53.8444 39.1516 52.5004C40.5307 51.1565 41.3065 49.3344 41.3089 47.4339V36.6028C41.3084 35.3787 40.9862 34.175 40.373 33.1066C39.7599 32.0382 38.8762 31.1406 37.8061 30.4993C38.8781 29.8604 39.7639 28.9642 40.3788 27.8963C40.9937 26.8285 41.317 25.6247 41.318 24.4002V1.06907C41.3161 0.873548 41.2589 0.682317 41.1529 0.516329C41.0468 0.35034 40.8959 0.215997 40.7168 0.128016ZM39.1043 36.6028V47.4161C39.1031 48.75 38.5591 50.029 37.5917 50.9726C36.6243 51.9163 35.3123 52.4475 33.9435 52.4499H10.8408C10.6218 52.4494 10.4076 52.5128 10.2259 52.6319L2.1955 57.9187V36.6117C2.1967 35.2778 2.74067 33.9988 3.70811 33.0552C4.67555 32.1115 5.9875 31.5803 7.35627 31.5779H33.9435C35.3107 31.5803 36.6213 32.1103 37.5885 33.052C38.5557 33.9937 39.1007 35.2705 39.1043 36.6028ZM39.1043 24.4002C39.1019 25.7333 38.5574 27.0112 37.5901 27.9538C36.6228 28.8965 35.3115 29.4272 33.9435 29.4295H7.35627C5.98792 29.4283 4.67595 28.8981 3.70838 27.9551C2.74082 27.0122 2.19671 25.7337 2.1955 24.4002V13.5869C2.1967 12.253 2.74067 10.974 3.70811 10.0304C4.67555 9.08672 5.9875 8.55549 7.35627 8.55314H30.459C30.6767 8.55437 30.8896 8.49088 31.0694 8.37114L39.1043 3.08436V24.4002Z" fill="#EEEDED"/>
<path d="M29.6622 12.7175H15.4598C13.8736 12.7187 12.3526 13.333 11.2306 14.4256C10.1085 15.5183 9.47702 17.0001 9.47461 18.5459V19.0652C9.47702 20.611 10.1085 22.0928 11.2306 23.1854C12.3526 24.2781 13.8736 24.8924 15.4598 24.8936H29.6622C29.9388 24.8936 30.2041 24.7865 30.3997 24.5958C30.5954 24.4052 30.7053 24.1466 30.7053 23.877V13.734C30.7053 13.4645 30.5954 13.2059 30.3997 13.0153C30.2041 12.8246 29.9388 12.7175 29.6622 12.7175Z" fill="#EEEDED"/>
<path d="M25.8995 36.4483H11.8065C11.6697 36.4488 11.5344 36.4757 11.4083 36.5274C11.2823 36.5791 11.1679 36.6545 11.0718 36.7494C10.9758 36.8443 10.8999 36.9567 10.8485 37.0802C10.7971 37.2037 10.7713 37.3359 10.7725 37.4692V47.6166C10.7725 47.8843 10.8813 48.1411 11.0751 48.3307C11.2688 48.5204 11.5318 48.6276 11.8065 48.6287H25.8995C26.6862 48.6311 27.4655 48.4818 28.1928 48.1895C28.92 47.8972 29.5808 47.4677 30.1371 46.9256C30.6933 46.3835 31.1341 45.7396 31.434 45.0308C31.7339 44.3221 31.8871 43.5626 31.8847 42.796V42.2455C31.8787 40.7036 31.245 39.2271 30.1228 38.1402C29.0006 37.0532 27.4817 36.4447 25.8995 36.4483Z" fill="#A63E26"/>
<path d="M46.7383 30.3757V30.753H84.9999V30.5622V30.3757H46.7383Z" fill="#EEEDED"/>
</g>
<defs>
<clipPath id="clip0_147_4764">
<rect width="85" height="61" fill="white"/>
</clipPath>
</defs>
</svg>
