<svg width="49" height="71" viewBox="0 0 49 71" fill="none" xmlns="http://www.w3.org/2000/svg">
<path d="M20.0423 19.388L16.7756 11.4687L21.8117 3.82251L37.1923 6.9629L42.3645 28.3995L25.4867 46.5591L16.5034 30.1744L27.8006 31.1302L28.7534 17.4764L20.0423 19.388Z" fill="#65D0DD" stroke="#65D0DD" stroke-width="0.222222"/>
<path fill-rule="evenodd" clip-rule="evenodd" d="M20.0535 0.12853C13.4329 0.832571 7.47534 4.48461 3.71898 10.1418C2.05658 12.6454 1.00584 15.1949 0.368937 18.2693C0.0613987 19.7547 0.00845952 20.3598 0.000545926 22.4814C-0.00914139 25.0946 0.105742 26.0724 0.695714 28.4001C1.77292 32.6494 3.20692 34.9547 9.95325 43.2832C15.4774 50.1028 17.6945 53.3367 19.9255 57.828C21.8986 61.8 23.0706 65.4879 23.7945 70.0022L23.9545 71H24.4818C24.9858 71 25.0125 70.9771 25.0897 70.4839C26.4061 62.0619 29.399 55.5629 35.7222 47.3946C36.2497 46.7132 37.7625 44.8241 39.0838 43.1965C41.933 39.6869 44.811 35.9125 45.5978 34.6537C49.6643 28.1467 50.1178 19.8064 46.7836 12.8465C43.3754 5.73231 36.6926 1.00916 28.7735 0.117656C27.3339 -0.0444855 21.6127 -0.0373287 20.0535 0.12853ZM30.1819 9.36454C31.1401 9.93603 32.7207 11.4923 33.4393 12.5713C34.8427 14.679 35.8483 17.3482 36.4287 20.5058C36.7583 22.2991 36.83 26.5407 36.565 28.5646C35.9644 33.1497 34.396 36.8687 32.0481 39.2749C30.5646 40.7951 29.7447 41.201 28.1596 41.2C27.1563 41.1994 26.8905 41.1453 26.1896 40.7986C24.7381 40.0811 22.9353 38.0182 21.8496 35.8327C21.4419 35.0122 20.5864 32.7122 20.4544 32.0819L20.3607 31.6346H21.1754C21.9514 31.6346 21.9945 31.6527 22.0805 32.0131C22.1302 32.2213 22.4378 32.9491 22.7642 33.6304C23.9479 36.1026 25.7556 37.5364 27.4885 37.3779C32.3748 36.931 35.1723 26.5406 32.574 18.4899C31.74 15.9062 30.3098 13.9019 28.7784 13.171C27.8206 12.7139 27.0331 12.6669 26.0349 13.0068C25.1037 13.3241 23.6175 14.8439 22.9277 16.1843L22.4142 17.1823H21.5882H20.7622L20.8535 16.8038C21.0226 16.1038 21.8665 14.2574 22.5257 13.1451C23.6478 11.2517 25.8233 9.24961 27.1323 8.90564C27.3596 8.84591 27.9676 8.82264 28.4832 8.85389C29.2375 8.89945 29.5698 8.99951 30.1819 9.36454ZM27.2044 24.8942V29.4404L25.3966 29.4019L23.5887 29.3636L23.5522 26.0258L23.5156 22.6879H20.2018H16.8881L16.7192 23.7021C16.5229 24.881 15.8521 26.3636 15.1432 27.1858C14.0826 28.4159 12.2411 29.333 10.4563 29.5199L9.60355 29.6092V27.8862V26.1631L10.3321 26.1021C12.2819 25.939 13.1073 24.6625 13.3632 21.4148L13.4472 20.348H20.3258H27.2044V24.8942Z" fill="#783CBD"/>
</svg>
