<svg width="182" height="192" viewBox="0 0 182 192" fill="none" xmlns="http://www.w3.org/2000/svg">
<path d="M83.3355 191.996C115.615 191.996 141.782 186.692 141.782 180.148C141.782 173.605 115.615 168.301 83.3355 168.301C51.0562 168.301 24.8887 173.605 24.8887 180.148C24.8887 186.692 51.0562 191.996 83.3355 191.996Z" fill="#FAEDEA"/>
<path d="M36.8047 88.8648C37.0835 87.5308 39.548 86.9203 42.314 87.5007" stroke="#3F3F46" stroke-width="2.0961" stroke-miterlimit="10"/>
<path d="M36.8047 98.6109C37.0835 97.2769 39.548 96.6664 42.314 97.2468" stroke="#3F3F46" stroke-width="2.0961" stroke-miterlimit="10"/>
<path d="M36.8047 108.345C37.0835 107.011 39.548 106.401 42.314 106.981" stroke="#3F3F46" stroke-width="2.0961" stroke-miterlimit="10"/>
<path d="M36.8047 118.091C37.0835 116.757 39.548 116.147 42.314 116.727" stroke="#3F3F46" stroke-width="2.0961" stroke-miterlimit="10"/>
<path d="M36.8047 127.837C37.0835 126.503 39.548 125.893 42.314 126.473" stroke="#3F3F46" stroke-width="2.0961" stroke-miterlimit="10"/>
<path d="M36.8047 137.576C37.0835 136.242 39.548 135.631 42.314 136.212" stroke="#3F3F46" stroke-width="2.0961" stroke-miterlimit="10"/>
<path d="M36.8047 40.1539C37.0835 38.8199 39.548 38.2094 42.314 38.7897" stroke="#3F3F46" stroke-width="2.0961" stroke-miterlimit="10"/>
<path d="M36.8047 49.9C37.0835 48.566 39.548 47.9555 42.314 48.5358" stroke="#3F3F46" stroke-width="2.0961" stroke-miterlimit="10"/>
<path d="M36.8047 59.646C37.0835 58.3121 39.548 57.7016 42.314 58.2819" stroke="#3F3F46" stroke-width="2.0961" stroke-miterlimit="10"/>
<path d="M36.8047 69.3824C37.0835 68.0484 39.548 67.4379 42.314 68.0182" stroke="#3F3F46" stroke-width="2.0961" stroke-miterlimit="10"/>
<path d="M36.8047 79.1265C37.0835 77.7925 39.548 77.1821 42.314 77.7624" stroke="#3F3F46" stroke-width="2.0961" stroke-miterlimit="10"/>
<path d="M36.8047 30.4195C37.0835 29.0855 39.548 28.475 42.314 29.0553" stroke="#3F3F46" stroke-width="2.0961" stroke-miterlimit="10"/>
<path d="M49.5657 76.5542C49.3924 76.5542 49.219 76.524 49.0532 76.4487C48.6538 76.2753 8.98832 58.5642 3.83324 16.1478C3.75034 15.4469 4.24776 14.8063 4.94867 14.7234C5.64958 14.6329 6.2902 15.1379 6.3731 15.8388C11.3548 56.7704 49.6863 73.9314 50.0707 74.0972C50.7188 74.3761 51.0203 75.1373 50.7339 75.7854C50.5304 76.2678 50.0556 76.5542 49.5657 76.5542Z" fill="#18181B"/>
<path opacity="0.3" d="M49.9732 76.0558C49.5738 75.8824 9.90828 58.1713 4.7532 15.7549C4.70798 15.3555 4.85117 14.9862 5.09988 14.7148C5.04713 14.7148 5.00191 14.7148 4.94915 14.7224C4.24824 14.8053 3.74329 15.4459 3.83373 16.1468C8.99634 58.5632 48.6543 76.2743 49.0537 76.4477C49.2195 76.523 49.3929 76.5532 49.5662 76.5532C49.9129 76.5532 50.237 76.4025 50.4782 76.1613C50.3124 76.1613 50.139 76.1236 49.9732 76.0558Z" fill="#18181B"/>
<path d="M5.88919 18.3932C5.88919 18.3932 13.6369 10.5024 12.0391 9.14575C10.4413 7.78915 9.04705 9.86926 9.04705 9.86926C9.04705 9.86926 11.293 3.47064 7.32115 1.42067C3.34179 -0.614233 -6.13933 4.68404 5.88919 18.3932Z" fill="#18181B"/>
<g opacity="0.3">
<path d="M8.24231 2.87602C8.65683 3.08705 8.99598 3.35838 9.28238 3.65984C8.93569 2.75544 8.33276 1.94902 7.3153 1.42899C3.69771 -0.432571 -4.45697 3.78042 3.11738 14.8518C-2.7989 4.8657 4.79052 1.09737 8.24231 2.87602Z" fill="#18181B"/>
</g>
<path d="M132.434 75.8804C132.608 75.8804 132.781 75.8502 132.947 75.7748C133.346 75.6015 173.012 57.8903 178.167 15.474C178.25 14.7731 177.752 14.1325 177.051 14.0495C176.35 13.9591 175.71 14.4641 175.627 15.165C170.645 56.0966 132.314 73.2576 131.929 73.4234C131.281 73.7023 130.98 74.4635 131.266 75.1116C131.47 75.594 131.944 75.8804 132.434 75.8804Z" fill="#18181B"/>
<path opacity="0.3" d="M132.027 75.3839C132.426 75.2106 172.092 57.4994 177.247 15.083C177.292 14.6836 177.149 14.3143 176.9 14.043C176.953 14.043 176.998 14.043 177.051 14.0505C177.752 14.1334 178.257 14.774 178.166 15.4749C173.004 57.8913 133.346 75.6025 132.946 75.7758C132.78 75.8512 132.607 75.8813 132.434 75.8813C132.087 75.8813 131.763 75.7306 131.522 75.4894C131.688 75.4894 131.861 75.4517 132.027 75.3839Z" fill="#18181B"/>
<path d="M176.111 17.7214C176.111 17.7214 168.363 9.83048 169.961 8.47388C171.559 7.11728 172.953 9.19739 172.953 9.19739C172.953 9.19739 170.707 2.79877 174.679 0.748792C178.658 -1.28611 188.139 4.01216 176.111 17.7214Z" fill="#18181B"/>
<g opacity="0.3">
<path d="M173.758 2.20415C173.343 2.41518 173.004 2.6865 172.718 2.98797C173.064 2.08357 173.667 1.27714 174.685 0.75711C178.302 -1.10445 186.457 3.10855 178.883 14.1799C184.799 4.19383 177.209 0.425496 173.758 2.20415Z" fill="#18181B"/>
</g>
<path d="M137.269 171.441C136.87 171.441 136.478 171.275 136.191 170.958L109.044 140.269C108.517 139.674 108.577 138.769 109.165 138.242C109.76 137.714 110.672 137.774 111.192 138.362L138.339 169.051C138.867 169.647 138.807 170.551 138.219 171.079C137.947 171.328 137.608 171.441 137.269 171.441Z" fill="#18181B"/>
<path opacity="0.3" d="M138.347 169.052L111.2 138.363C110.673 137.767 109.768 137.715 109.173 138.242C108.879 138.506 108.713 138.86 108.69 139.222C109.263 138.936 109.972 139.049 110.409 139.546L137.556 170.235C137.82 170.537 137.94 170.914 137.91 171.283C138.016 171.23 138.121 171.162 138.219 171.079C138.814 170.559 138.875 169.648 138.347 169.052Z" fill="#18181B"/>
<path d="M135.711 169.738C135.711 169.738 142.238 160.784 144.853 163.739C147.468 166.693 137.369 171.675 137.369 171.675L135.711 169.738Z" fill="#18181B"/>
<path d="M69.4405 181.516C68.6491 181.516 68.001 180.876 68.001 180.077V139.107C68.001 138.316 68.6416 137.668 69.4405 137.668C70.2318 137.668 70.88 138.309 70.88 139.107V180.077C70.88 180.876 70.2394 181.516 69.4405 181.516Z" fill="#18181B"/>
<path d="M70.4262 178.841C70.4262 178.841 59.6035 176.452 59.6035 180.401C59.6035 184.35 70.4639 181.389 70.4639 181.389L70.4262 178.841Z" fill="#18181B"/>
<path opacity="0.3" d="M69.4398 137.668C69.0026 137.668 68.6183 137.864 68.3545 138.173C68.3922 138.173 68.4223 138.158 68.46 138.158C69.1534 138.158 69.7111 138.798 69.7111 139.597V180.567C69.7111 180.928 69.5905 181.252 69.4021 181.509C69.4172 181.509 69.4247 181.516 69.4398 181.516C70.2311 181.516 70.8793 180.876 70.8793 180.077V139.107C70.8793 138.309 70.2387 137.668 69.4398 137.668Z" fill="#18181B"/>
<path d="M40.4112 37.0781L38.9489 25.6426H130.974V37.0781H40.4112Z" fill="#ECB8AC" stroke="#ECB8AC"/>
<path d="M41.9307 25.6406H135.016V38.0761H43.5284L41.9307 25.6406Z" fill="#FFEDD5"/>
<path d="M40.5508 26.1309H133.629V38.5664H42.1486L40.5508 26.1309Z" fill="#FFEDD5"/>
<path d="M42.1338 26.8242H135.212V39.2597H43.724L42.1338 26.8242Z" fill="#FFEDD5"/>
<path d="M135.641 27.6973H43.3242V144.131H135.641V27.6973Z" fill="#ECB8AC"/>
<path d="M43.3251 27.6958C43.3251 27.6958 39.5719 28.3364 38.3735 25.1484V139.6C38.3735 139.6 37.748 143.248 43.3251 144.13V27.6958Z" fill="#ECB8AC"/>
<path opacity="0.16" d="M40.2354 27.2383V135.676C40.2354 136.995 39.3837 137.816 38.3814 138.08V139.602C38.3814 139.602 37.7558 143.25 43.3329 144.132V27.698C43.3254 27.698 41.6899 27.9693 40.2354 27.2383Z" fill="#ECB8AC"/>
<path d="M49.8887 27.6074V144.215L51.4035 144.599L52.9486 144.215L52.9712 27.6074H49.8887Z" fill="white"/>
<path d="M37.6348 65.6582L55.7755 70.2179" stroke="#18181B" stroke-width="2.0961" stroke-miterlimit="10"/>
<path d="M85.8096 86.4512C85.8096 91.0787 89.5628 94.8395 94.1979 94.8395C98.8329 94.8395 102.586 91.0862 102.586 86.4512H85.8096Z" fill="#18181B"/>
<path d="M98.5147 69.1562H88.5889V72.7437H98.5147V69.1562Z" fill="#18181B"/>
<path opacity="0.21" d="M98.5156 71.1621H88.5898V72.7448H98.5156V71.1621Z" fill="#18181B"/>
<path d="M75.37 86.8058C75.37 88.3207 72.1669 89.5492 68.2177 89.5492C64.2685 89.5492 61.0654 88.3207 61.0654 86.8058C61.0654 85.291 64.2685 84.0625 68.2177 84.0625C72.1669 84.0625 75.37 85.291 75.37 86.8058Z" fill="#ECB8AC"/>
<path d="M127.312 86.8058C127.312 88.3207 124.109 89.5492 120.16 89.5492C116.211 89.5492 113.008 88.3207 113.008 86.8058C113.008 85.291 116.211 84.0625 120.16 84.0625C124.109 84.0625 127.312 85.291 127.312 86.8058Z" fill="#ECB8AC"/>
<path d="M116.994 75.9454C116.994 72.9081 114.537 70.4512 111.5 70.4512C108.47 70.4512 106.006 72.9081 106.006 75.9454C106.006 78.9751 108.463 81.4396 111.5 81.4396C114.53 81.4321 116.994 78.9751 116.994 75.9454Z" fill="#18181B"/>
<path d="M111.042 72.735C110.28 73.4962 110.28 74.7246 111.042 75.4858C111.803 76.247 113.031 76.247 113.792 75.4858C114.554 74.7246 114.554 73.4962 113.792 72.735C113.031 71.9738 111.803 71.9738 111.042 72.735Z" fill="#ECB8AC"/>
<path d="M71.3926 75.9454C71.3926 72.9081 73.8495 70.4512 76.8868 70.4512C79.9165 70.4512 82.381 72.9081 82.381 75.9454C82.381 78.9751 79.9241 81.4396 76.8868 81.4396C73.8495 81.4321 71.3926 78.9751 71.3926 75.9454Z" fill="#18181B"/>
<path d="M79.9758 74.1144C79.9758 75.1846 79.1016 76.0588 78.0314 76.0588C76.9536 76.0588 76.0869 75.1846 76.0869 74.1144C76.0869 73.0366 76.9612 72.1699 78.0314 72.1699C79.1016 72.1699 79.9758 73.0366 79.9758 74.1144Z" fill="#ECB8AC"/>
<path d="M72.537 53.3789C62.7771 53.3789 54.8711 61.2924 54.8711 71.0449C54.8711 80.8048 62.7846 88.7108 72.537 88.7108C82.297 88.7108 90.203 80.7973 90.203 71.0449C90.2105 61.2849 82.297 53.3789 72.537 53.3789ZM72.6953 86.4724C64.1713 86.4724 57.2678 79.5613 57.2678 71.0449C57.2678 62.5209 64.1789 55.6173 72.6953 55.6173C81.2193 55.6173 88.1229 62.5284 88.1229 71.0449C88.1304 79.5688 81.2193 86.4724 72.6953 86.4724Z" fill="#18181B"/>
<g opacity="0.22">
<path d="M87.1655 61.125C88.6804 63.7327 89.5547 66.7549 89.5547 69.9881C89.5547 79.7481 81.6412 87.6541 71.8887 87.6541C65.8066 87.6541 60.4405 84.5791 57.2676 79.9064C60.3275 85.167 66.0252 88.7092 72.5519 88.7092C82.3119 88.7092 90.2179 80.7957 90.2179 71.0433C90.2103 67.3654 89.0874 63.9512 87.1655 61.125Z" fill="#18181B"/>
</g>
<path d="M115.074 53.3789C105.314 53.3789 97.4082 61.2924 97.4082 71.0449C97.4082 80.8048 105.322 88.7108 115.074 88.7108C124.834 88.7108 132.74 80.7973 132.74 71.0449C132.748 61.2849 124.834 53.3789 115.074 53.3789ZM115.232 86.4724C106.708 86.4724 99.8049 79.5613 99.8049 71.0449C99.8049 62.5209 106.716 55.6173 115.232 55.6173C123.749 55.6173 130.66 62.5284 130.66 71.0449C130.668 79.5688 123.756 86.4724 115.232 86.4724Z" fill="#18181B"/>
<g opacity="0.22">
<path d="M129.704 61.125C131.218 63.7327 132.093 66.7549 132.093 69.9881C132.093 79.7481 124.179 87.6541 114.427 87.6541C108.345 87.6541 102.986 84.5791 99.8057 79.9064C102.866 85.167 108.563 88.7092 115.09 88.7092C124.85 88.7092 132.756 80.7957 132.756 71.0433C132.748 67.3654 131.625 63.9512 129.704 61.125Z" fill="#18181B"/>
</g>
<path d="M46.8063 32.5132C46.5274 33.8472 44.0629 34.4576 41.297 33.8773C38.5385 33.297 36.5263 31.752 36.8051 30.418" stroke="#3F3F46" stroke-width="2.0961" stroke-miterlimit="10" stroke-linecap="round"/>
<path d="M46.8063 42.2593C46.5274 43.5932 44.0629 44.2037 41.297 43.6234C38.5385 43.0431 36.5263 41.4981 36.8051 40.1641" stroke="#3F3F46" stroke-width="2.0961" stroke-miterlimit="10" stroke-linecap="round"/>
<path d="M46.8063 51.9956C46.5274 53.3296 44.0629 53.9401 41.297 53.3597C38.5385 52.7794 36.5263 51.2344 36.8051 49.9004" stroke="#3F3F46" stroke-width="2.0961" stroke-miterlimit="10" stroke-linecap="round"/>
<path d="M46.8063 61.7397C46.5275 63.0737 44.063 63.6842 41.297 63.1039C38.5311 62.5235 36.5263 60.9785 36.8052 59.6445" stroke="#3F3F46" stroke-width="2.0961" stroke-miterlimit="10" stroke-linecap="round"/>
<path d="M46.8063 71.478C46.5274 72.812 44.0629 73.4225 41.297 72.8421C38.5385 72.2618 36.5263 70.7168 36.8051 69.3828" stroke="#3F3F46" stroke-width="2.0961" stroke-miterlimit="10" stroke-linecap="round"/>
<path d="M46.8063 81.2241C46.5274 82.5581 44.0629 83.1686 41.297 82.5883C38.5385 82.0079 36.5263 80.4629 36.8051 79.1289" stroke="#3F3F46" stroke-width="2.0961" stroke-miterlimit="10" stroke-linecap="round"/>
<path d="M46.8063 90.9604C46.5274 92.2944 44.0629 92.9049 41.297 92.3246C38.5385 91.7442 36.5263 90.1992 36.8051 88.8652" stroke="#3F3F46" stroke-width="2.0961" stroke-miterlimit="10" stroke-linecap="round"/>
<path d="M46.8063 100.705C46.5274 102.039 44.0629 102.649 41.297 102.069C38.5385 101.488 36.5263 99.9434 36.8051 98.6094" stroke="#3F3F46" stroke-width="2.0961" stroke-miterlimit="10" stroke-linecap="round"/>
<path d="M46.8063 110.451C46.5274 111.785 44.0629 112.395 41.297 111.815C38.5385 111.234 36.5263 109.689 36.8051 108.355" stroke="#3F3F46" stroke-width="2.0961" stroke-miterlimit="10" stroke-linecap="round"/>
<path d="M46.8063 120.187C46.5274 121.521 44.0629 122.131 41.297 121.551C38.5385 120.971 36.5263 119.426 36.8051 118.092" stroke="#3F3F46" stroke-width="2.0961" stroke-miterlimit="10" stroke-linecap="round"/>
<path d="M46.8063 129.931C46.5274 131.265 44.0629 131.876 41.297 131.295C38.5385 130.715 36.5263 129.17 36.8051 127.836" stroke="#3F3F46" stroke-width="2.0961" stroke-miterlimit="10" stroke-linecap="round"/>
<path d="M46.8063 139.669C46.5274 141.003 44.0629 141.614 41.297 141.034C38.5385 140.453 36.5263 138.908 36.8051 137.574" stroke="#3F3F46" stroke-width="2.0961" stroke-miterlimit="10" stroke-linecap="round"/>
<path opacity="0.16" d="M126.959 27.6973V47.074C126.959 95.1278 90.2402 134.605 43.332 138.984V144.131H135.649V27.6973H126.959Z" fill="#ECB8AC"/>
<path opacity="0.15" d="M54.1546 30.4713C54.1546 30.4713 54.75 61.2737 53.7627 66.4137C53.7627 66.4137 60.0784 31.4586 97.9954 29.6875L54.1546 30.4713Z" fill="white"/>
</svg>
