<svg width="1046" height="322" viewBox="0 0 1046 322" fill="none" xmlns="http://www.w3.org/2000/svg">
<path d="M488.067 201.451C488.067 201.451 372.907 31.8352 21.9331 32.7728L33.7218 99.298L476.278 217.859L488.067 201.451Z" fill="white"/>
<path d="M441.354 160.198C264.524 56.3824 44.2682 60.3032 26.7856 60.1327L33.7225 99.2551L476.279 217.816L488.067 201.451C488.067 201.451 485.742 198.041 480.77 192.203C468.58 180.228 456.03 168.849 441.354 160.198Z" fill="white"/>
<path d="M963.462 19.7317C935.113 25.6128 905.962 20.6266 877.333 20.5414C798.301 20.2857 718.547 34.5624 646.371 69.551C601.622 91.2431 558.838 118.561 523.031 154.657C512.205 165.567 502.02 177.244 492.517 189.475C489.269 193.652 485.38 197.871 482.613 202.431L504.386 263.16L983.19 168.678L1005.85 0C993.696 10.3986 978.9 16.5354 963.462 19.7317Z" fill="white"/>
<path d="M594.686 99.0421C613.933 88.9418 633.38 79.2678 653.509 71.2558C673.838 63.1585 694.649 56.3398 715.7 50.6291C757.843 39.2504 800.987 32.1333 844.373 28.937C865.103 27.4028 885.954 26.5931 906.765 26.7636C919.235 26.8488 931.705 27.2324 944.176 26.4226C966.069 25.0163 992.694 20.2432 1005.69 0.170532C993.536 10.4412 978.82 16.5355 963.503 19.6891C935.154 25.5703 906.003 20.5841 877.373 20.4989C798.341 20.2432 718.587 34.5199 646.412 69.5085C625.4 79.6939 604.79 91.1579 585.183 104.156C588.31 102.451 591.478 100.747 594.686 99.0421Z" fill="#27272A"/>
<path d="M909.131 46.0263C888.04 46.7934 866.828 49.18 845.817 51.0978C823.763 53.1434 801.71 55.6152 779.857 59.3655C737.674 66.653 695.772 78.8841 655.594 94.3967C635.225 102.281 615.096 111.188 595.488 120.99C586.065 125.72 576.642 130.621 567.781 136.545C559.721 141.915 551.782 147.881 542.68 151.035C542.159 151.205 541.717 150.651 541.838 150.14C543.602 142.639 546.85 135.693 550.94 129.3C541.276 137.227 531.974 145.622 523.072 154.572C512.246 165.482 502.061 177.159 492.558 189.39C489.31 193.567 485.421 197.786 482.654 202.346L504.427 263.075L983.191 168.678C983.191 168.678 994.619 83.6146 1001.23 34.3066C973.568 50.3306 939.405 44.8757 909.131 46.0263Z" fill="white"/>
<path d="M998.748 145.367C998.788 127.681 999.47 109.995 1000.47 92.3514C1001.27 78.8844 1001.96 65.4174 1003.8 52.0356C655.433 45.6431 482.613 202.431 482.613 202.431L504.386 263.16L1003.32 217.39C999.911 193.609 998.668 169.446 998.748 145.367Z" fill="white"/>
<path d="M998.75 145.367C998.79 127.681 999.471 109.995 1000.47 92.3513C1000.75 87.3651 1001.04 82.3363 1001.4 77.3075C1001.36 77.3075 1001.28 77.3075 1001.24 77.3075C990.089 76.2847 978.942 75.3897 967.794 74.6226C923.286 71.5968 878.898 71.6394 834.55 76.7961C790.844 81.9101 747.619 90.8171 704.915 101.897C662.773 112.807 621.392 125.678 581.575 144.131C561.967 153.208 542.48 163.138 523.434 173.409C519.264 175.668 515.254 178.012 511.364 180.569C507.876 182.998 504.708 185.214 501.861 187.302C500.458 188.367 499.054 189.476 497.691 190.584C492.719 194.632 487.827 198.809 482.815 202.772L504.468 263.118L1003.32 217.39C999.913 193.609 998.669 169.446 998.75 145.367Z" fill="white"/>
<path d="M475.195 212.872C488.548 209.335 503.825 212.787 517.297 216.197C532.575 220.032 539.632 226.68 551.661 237.335C560.683 245.347 568.743 254.935 575.198 265.547L1020.4 141.404L1016.23 91.5417C753.271 48.2854 486.102 195.314 486.102 195.314C255.822 37.2049 7.05648 72.9606 7.05648 72.9606L6.49512 88.3028L24.8598 117.495L415.811 255.788C425.795 234.735 454.264 218.413 475.195 212.872Z" fill="white"/>
<path d="M1016.23 91.4988C992.934 87.6633 969.597 85.3193 946.421 84.2539C978.379 89.2827 1004.6 97.3799 976.053 100.065C932.427 104.199 888.159 114.555 888.159 114.555C903.637 112.552 928.457 117.58 928.457 117.58C819.633 116.089 657.839 168.124 647.414 167.869C636.989 167.57 644.848 160.581 644.848 160.581C674.52 134.372 817.468 110.762 817.468 110.762C712.532 118.049 587.067 167.229 587.067 167.229C617.982 144.941 700.663 120.649 700.663 120.649C637.229 137.27 544.644 177.67 536.865 179.375C529.126 181.08 532.374 176.861 532.374 176.861C537.747 170.98 560.883 160.624 582.697 151.759C522.871 175.028 485.981 195.314 485.981 195.314C473.11 186.492 460.159 178.267 447.207 170.596C458.354 183.679 453.382 189.39 453.382 189.39C395.962 145.622 352.296 146.432 352.296 146.432C407.671 164.544 435.499 194.973 435.499 194.973C360.035 140.807 134.246 109.441 117.325 105.349C100.404 101.301 113.395 99.4682 113.395 99.4682C143.548 90.9022 243.311 102.75 243.311 102.75C161.592 79.3529 61.4287 80.7167 49.9608 77.5204C42.7032 75.4748 53.4493 71.9376 62.351 69.5936C27.6265 70.0624 7.05648 73.003 7.05648 73.003L6.49512 88.3451L24.8598 117.538L415.811 255.83C425.795 234.735 454.264 218.412 475.195 212.872C488.548 209.335 503.825 212.787 517.297 216.196C532.575 220.032 539.632 226.68 551.661 237.334C560.683 245.346 568.743 254.935 575.198 265.547L1020.4 141.403L1016.23 91.4988Z" fill="white"/>
<path d="M53.9702 73.5142C53.9702 73.5142 55.6944 73.4716 58.9423 73.429C62.1902 73.3864 66.9618 73.3437 73.0165 73.4716C79.0713 73.5994 86.4492 73.7273 94.8697 74.1108C99.0799 74.2813 103.571 74.4944 108.302 74.7501C113.034 75.0058 118.006 75.3894 123.179 75.7729C128.351 76.1991 133.764 76.5826 139.338 77.1367C142.145 77.3924 144.951 77.6481 147.839 77.9464C150.726 78.2447 153.653 78.543 156.62 78.884C168.489 80.1625 180.959 81.7393 193.83 83.6571C206.702 85.7027 219.974 87.7909 233.407 90.561C236.775 91.2429 240.143 91.8821 243.511 92.6066C246.879 93.3311 250.248 94.0982 253.656 94.8227C260.432 96.2291 267.169 98.019 273.945 99.5958C280.722 101.301 287.418 103.176 294.114 104.966C300.77 106.969 307.427 108.844 313.963 110.889C327.074 115.023 339.825 119.498 352.055 124.271C358.15 126.7 364.205 128.959 369.939 131.601C375.713 134.158 381.407 136.545 386.82 139.272C397.726 144.386 407.831 149.799 417.053 154.955C421.624 157.64 425.955 160.197 430.125 162.626C434.175 165.269 437.984 167.783 441.593 170.17C443.397 171.363 445.162 172.471 446.766 173.664C448.41 174.858 449.973 176.008 451.457 177.116C454.464 179.332 457.231 181.335 459.717 183.168C464.609 186.961 468.298 190.2 470.904 192.288C473.47 194.419 474.834 195.527 474.834 195.527C474.834 195.527 473.43 194.461 470.784 192.458C468.138 190.498 464.288 187.515 459.276 183.85C456.71 182.102 453.903 180.185 450.855 178.096C449.332 177.031 447.728 175.966 446.084 174.815C444.44 173.707 442.635 172.684 440.791 171.533C437.142 169.317 433.253 166.931 429.163 164.459C424.993 162.115 420.582 159.686 416.011 157.129C406.748 152.228 396.604 147.071 385.657 142.213C380.244 139.613 374.51 137.397 368.736 134.968C362.962 132.496 356.947 130.28 350.852 127.936C349.329 127.34 347.805 126.743 346.281 126.189C344.757 125.635 343.194 125.081 341.63 124.527C338.502 123.461 335.375 122.353 332.207 121.245C329.039 120.095 325.831 119.114 322.624 118.092C319.416 117.069 316.168 116.003 312.92 114.981C306.384 112.978 299.768 111.102 293.152 109.142C286.456 107.395 279.799 105.52 273.063 103.858C266.327 102.238 259.63 100.448 252.854 99.0418C249.486 98.2747 246.118 97.5502 242.789 96.7831C239.421 96.0586 236.093 95.4194 232.725 94.6949C219.372 91.9248 206.18 89.5808 193.349 87.45C180.518 85.447 168.128 83.5292 156.339 82.0376C153.372 81.6541 150.485 81.2705 147.598 80.9296C144.711 80.5886 141.904 80.2903 139.137 79.9494C133.564 79.2675 128.191 78.7987 123.018 78.2447C112.673 77.2645 103.21 76.4122 94.7895 75.7729C86.369 75.091 79.0312 74.7075 72.9764 74.3665C66.9217 74.0682 62.1902 73.8125 58.9423 73.7273C55.6944 73.5568 53.9702 73.5142 53.9702 73.5142Z" fill="#27272A"/>
<path d="M40.0562 86.1714C40.0562 86.1714 41.8204 86.0862 45.1084 85.9583C48.3964 85.8305 53.2482 85.7026 59.3832 85.6174C65.5582 85.5748 73.0163 85.5748 81.5972 85.7026C90.1781 85.8305 99.8415 86.1288 110.387 86.6402C120.933 87.2369 132.361 87.8761 144.43 88.9415C156.499 89.9217 169.21 91.2429 182.322 92.8623C195.434 94.6096 208.987 96.4421 222.66 98.8713C226.069 99.4679 229.517 100.065 232.965 100.661C236.414 101.343 239.862 102.025 243.31 102.707C250.207 103.985 257.104 105.562 264.001 107.096C267.449 107.821 270.898 108.673 274.306 109.526C277.714 110.378 281.163 111.23 284.571 112.083C291.387 113.873 298.164 115.748 304.86 117.623C311.516 119.668 318.173 121.586 324.668 123.76C327.916 124.868 331.124 125.976 334.332 127.041C337.54 128.107 340.707 129.172 343.835 130.408C356.345 134.968 368.254 139.869 379.401 144.983C382.168 146.261 384.935 147.54 387.621 148.818C388.985 149.458 390.308 150.054 391.631 150.694C392.954 151.333 394.238 152.015 395.521 152.697C400.653 155.382 405.625 157.811 410.317 160.453C414.968 163.138 419.419 165.695 423.669 168.124C427.839 170.681 431.689 173.281 435.378 175.625C437.222 176.818 438.986 177.926 440.67 179.077C442.314 180.27 443.918 181.421 445.482 182.529C448.57 184.745 451.376 186.79 453.903 188.623C456.469 190.455 458.554 192.33 460.479 193.865C462.363 195.442 463.967 196.72 465.29 197.828C467.897 199.959 469.3 201.11 469.3 201.11C469.3 201.11 467.857 200.044 465.17 197.999C462.443 195.996 458.554 192.97 453.462 189.305C450.855 187.557 448.008 185.597 444.881 183.509C443.317 182.443 441.673 181.378 439.989 180.227C438.265 179.162 436.46 178.096 434.576 176.946C430.847 174.73 426.917 172.258 422.707 169.871C418.456 167.57 413.966 165.098 409.274 162.541C404.583 160.069 399.53 157.725 394.398 155.168C393.115 154.529 391.832 153.89 390.508 153.293C389.185 152.697 387.822 152.1 386.499 151.503C383.812 150.31 381.045 149.117 378.279 147.881C367.091 143.065 355.142 138.463 342.712 134.03C339.625 132.837 336.457 131.814 333.249 130.791C330.041 129.769 326.834 128.703 323.626 127.638C320.418 126.53 317.09 125.677 313.802 124.655C310.514 123.674 307.186 122.694 303.898 121.671C297.202 119.839 290.465 117.964 283.689 116.216C280.28 115.407 276.872 114.554 273.464 113.745C270.056 112.892 266.647 112.083 263.199 111.358C256.342 109.824 249.486 108.247 242.589 106.926C239.14 106.244 235.732 105.562 232.324 104.88C228.875 104.284 225.467 103.644 222.059 103.048C215.242 101.769 208.466 100.746 201.769 99.6384C195.073 98.573 188.417 97.678 181.921 96.6978C168.849 94.9932 156.219 93.3737 144.189 92.1378C132.2 90.8593 120.813 89.9217 110.267 89.112C99.7614 88.3875 90.0979 87.7483 81.5571 87.3221C73.0163 86.8533 65.5181 86.6402 59.3832 86.4698C53.2482 86.3419 48.3964 86.214 45.1084 86.1714C41.8204 86.1714 40.0562 86.1714 40.0562 86.1714Z" fill="#27272A"/>
<path d="M205.379 115.194C205.379 115.194 206.421 115.151 208.386 115.151C210.351 115.108 213.238 115.151 216.927 115.279C218.771 115.364 220.776 115.449 223.022 115.577C225.227 115.662 227.633 115.833 230.199 116.046C232.766 116.259 235.452 116.472 238.339 116.685C241.186 117.026 244.193 117.367 247.321 117.751C250.449 118.092 253.696 118.56 257.065 119.072C260.433 119.583 263.921 120.095 267.49 120.691C271.059 121.373 274.707 122.055 278.437 122.737C280.321 123.078 282.206 123.419 284.09 123.845C285.975 124.271 287.9 124.74 289.824 125.166C293.674 126.061 297.603 126.956 301.573 127.893C305.502 128.916 309.512 130.024 313.522 131.132C321.581 133.221 329.601 135.948 337.661 138.463C339.665 139.144 341.71 139.741 343.675 140.466C345.64 141.19 347.645 141.957 349.61 142.682C353.579 144.131 357.509 145.622 361.398 147.071C365.328 148.435 369.097 150.182 372.866 151.802C376.635 153.421 380.364 154.998 384.013 156.575C387.702 158.066 391.191 159.856 394.639 161.561C398.088 163.266 401.456 164.928 404.744 166.505C411.36 169.573 417.334 173.153 422.908 176.264C425.675 177.841 428.361 179.332 430.887 180.781C432.13 181.506 433.373 182.188 434.576 182.869C435.779 183.551 436.862 184.318 437.985 185.043C442.355 187.856 446.205 190.285 449.332 192.33C452.5 194.333 454.906 195.953 456.59 197.061C458.274 198.169 459.156 198.723 459.156 198.723C459.156 198.723 458.234 198.212 456.47 197.231C454.745 196.251 452.139 194.887 448.931 193.055C445.683 191.222 441.754 189.006 437.263 186.449C436.14 185.81 434.977 185.128 433.774 184.489C432.531 183.892 431.288 183.253 430.005 182.614C427.439 181.293 424.712 179.929 421.865 178.48C416.172 175.625 410.117 172.343 403.461 169.445C400.173 167.954 396.764 166.377 393.316 164.8C389.827 163.266 386.339 161.518 382.65 160.069C379.001 158.578 375.272 157.044 371.503 155.509C369.618 154.742 367.734 153.975 365.809 153.208C363.924 152.398 362 151.674 360.035 150.992C356.146 149.586 352.216 148.137 348.286 146.73C346.322 146.006 344.357 145.281 342.352 144.557C340.387 143.832 338.342 143.278 336.377 142.596C328.398 140.039 320.419 137.269 312.439 135.138C308.47 133.988 304.54 132.88 300.61 131.772C296.681 130.791 292.791 129.811 288.982 128.874C287.058 128.405 285.173 127.936 283.288 127.467C281.404 127.041 279.519 126.658 277.675 126.231C273.986 125.422 270.377 124.612 266.848 123.845C263.32 123.12 259.871 122.524 256.543 121.884C253.215 121.245 250.007 120.606 246.88 120.137C243.792 119.626 240.785 119.157 237.978 118.688C235.131 118.305 232.445 117.921 229.919 117.58C227.392 117.197 225.027 116.941 222.821 116.685C220.616 116.43 218.611 116.216 216.767 116.003C213.118 115.705 210.231 115.407 208.266 115.279C206.421 115.236 205.379 115.194 205.379 115.194Z" fill="#27272A"/>
<path d="M211.033 134.883C211.033 134.883 211.995 134.84 213.84 134.712C215.684 134.627 218.371 134.499 221.779 134.499C225.227 134.457 229.397 134.499 234.169 134.584C238.941 134.712 244.354 134.883 250.208 135.309C256.102 135.693 262.438 136.247 269.174 136.971C275.87 137.738 282.968 138.633 290.225 139.826C293.874 140.38 297.563 141.105 301.292 141.744C305.021 142.469 308.79 143.193 312.6 144.045C316.369 144.898 320.218 145.708 324.028 146.688C325.952 147.157 327.837 147.625 329.761 148.094L335.495 149.628C343.114 151.717 350.652 154.146 358.03 156.618C361.719 157.853 365.328 159.26 368.937 160.581C372.505 161.945 375.994 163.436 379.442 164.8C382.851 166.249 386.219 167.741 389.507 169.19C392.755 170.681 395.882 172.258 398.97 173.75C405.065 176.861 410.799 179.886 415.931 182.955C421.144 185.853 425.715 189.006 429.805 191.606C433.815 194.376 437.303 196.805 440.15 198.851C442.957 200.982 445.122 202.687 446.606 203.837C448.089 204.988 448.891 205.627 448.891 205.627C448.891 205.627 448.049 205.073 446.485 204.05C444.922 203.027 442.636 201.536 439.749 199.575C436.822 197.7 433.213 195.527 429.083 193.012C426.998 191.819 424.752 190.583 422.387 189.262C421.184 188.623 420.021 187.898 418.738 187.217C417.495 186.577 416.212 185.895 414.888 185.214C409.676 182.401 403.862 179.631 397.767 176.733C394.679 175.369 391.512 173.92 388.264 172.514C384.976 171.15 381.648 169.786 378.239 168.38C374.791 167.101 371.302 165.695 367.774 164.416C365.97 163.777 364.205 163.181 362.401 162.541C360.596 161.902 358.792 161.22 356.948 160.666C349.61 158.237 342.152 155.893 334.573 153.89L328.919 152.313C327.035 151.844 325.15 151.333 323.226 150.864C319.456 149.841 315.647 149.032 311.918 148.137C308.149 147.284 304.42 146.517 300.731 145.708C297.042 144.983 293.393 144.216 289.784 143.577C282.567 142.256 275.59 141.105 268.934 140.167C262.277 139.23 255.982 138.377 250.168 137.738C244.354 137.099 238.981 136.587 234.249 136.161C229.478 135.778 225.348 135.479 221.939 135.309C218.531 135.139 215.844 134.968 214 134.925C211.995 134.925 211.033 134.883 211.033 134.883Z" fill="#27272A"/>
<path d="M243.874 156.021C243.874 156.021 247.041 155.808 252.615 155.765C258.188 155.722 266.168 155.85 275.711 156.532C280.483 156.873 285.655 157.299 291.108 157.896C296.562 158.493 302.296 159.26 308.23 160.197C314.164 161.135 320.259 162.2 326.434 163.521C329.522 164.203 332.609 164.842 335.737 165.61C338.865 166.334 341.952 167.101 345.08 167.911C351.295 169.53 357.43 171.406 363.484 173.323C366.492 174.261 369.459 175.326 372.386 176.349C375.313 177.415 378.16 178.523 381.007 179.545C383.814 180.696 386.54 181.804 389.267 182.912C391.914 184.105 394.52 185.256 397.046 186.364C402.058 188.708 406.79 191.009 411.04 193.353C415.371 195.527 419.14 197.913 422.588 199.874C425.956 201.962 428.843 203.794 431.209 205.371C435.86 208.61 438.547 210.485 438.547 210.485C438.547 210.485 435.74 208.909 430.808 206.138C428.322 204.817 425.315 203.198 421.866 201.365C420.102 200.513 418.258 199.575 416.293 198.595C414.328 197.615 412.243 196.635 410.078 195.612C405.747 193.566 400.936 191.521 395.883 189.39C393.317 188.367 390.711 187.344 388.064 186.279C385.378 185.256 382.611 184.233 379.804 183.21C376.997 182.23 374.11 181.25 371.223 180.227C368.296 179.29 365.329 178.352 362.362 177.372C356.387 175.539 350.292 173.749 344.117 172.173C341.03 171.363 337.982 170.553 334.895 169.829C331.807 169.062 328.76 168.38 325.713 167.698C322.665 167.016 319.618 166.419 316.61 165.78C313.603 165.183 310.636 164.587 307.709 164.075C301.855 163.01 296.201 162.03 290.788 161.22C285.374 160.41 280.282 159.686 275.551 159.089C256.625 156.617 243.874 156.021 243.874 156.021Z" fill="#27272A"/>
<path d="M915.145 92.564C915.145 92.564 913.501 92.6492 910.374 92.8197C907.246 92.9901 902.675 93.3311 896.861 93.7572C891.047 94.1834 883.99 94.78 875.93 95.5472C867.87 96.3569 858.728 97.3371 848.824 98.4451C843.852 98.9991 838.719 99.681 833.346 100.363C828.013 101.087 822.48 101.769 816.826 102.664C811.172 103.474 805.358 104.369 799.424 105.349C793.489 106.329 787.435 107.309 781.26 108.332C775.085 109.398 768.87 110.548 762.534 111.699C756.239 112.978 749.823 114.128 743.408 115.492C736.992 116.813 730.496 118.134 724.041 119.626C720.793 120.35 717.545 121.075 714.297 121.799L704.593 124.143C691.602 127.212 678.73 130.621 666.059 134.158C659.724 135.948 653.509 137.823 647.294 139.613C641.119 141.531 635.064 143.449 629.09 145.281C623.155 147.284 617.301 149.245 611.567 151.162C605.873 153.123 600.3 155.168 594.886 157.086C584.1 161.135 573.956 164.97 564.653 168.934C562.327 169.914 560.042 170.851 557.836 171.746C555.631 172.641 553.466 173.664 551.381 174.559C547.17 176.392 543.201 178.139 539.432 179.801C532.013 183.296 525.558 186.321 520.225 188.878C509.679 194.206 503.665 197.231 503.665 197.231C503.665 197.231 509.559 193.907 519.864 188.154C525.077 185.384 531.452 182.102 538.79 178.352C546.208 174.815 554.468 170.596 563.771 166.675C572.993 162.541 583.098 158.407 593.844 154.103C599.257 152.057 604.791 149.884 610.444 147.796C616.138 145.75 621.992 143.704 627.927 141.659C633.901 139.698 639.996 137.738 646.131 135.735C652.306 133.86 658.561 131.899 664.937 130.11C677.648 126.53 690.559 123.035 703.591 119.924L713.375 117.623C716.622 116.898 719.91 116.174 723.158 115.449C729.654 113.958 736.15 112.679 742.606 111.358C749.061 109.994 755.477 108.929 761.812 107.736C768.148 106.67 774.443 105.562 780.618 104.582C792.968 102.579 804.957 100.96 816.345 99.5532C822.039 98.8287 827.572 98.232 832.945 97.6354C838.318 97.0814 843.491 96.5273 848.463 96.1012C858.407 95.121 867.55 94.5243 875.689 94.0129C883.789 93.5441 890.886 93.2032 896.7 92.9901C902.515 92.7344 907.126 92.7344 910.253 92.6918C913.461 92.564 915.145 92.564 915.145 92.564Z" fill="#27272A"/>
<path d="M944.859 101.343C944.859 101.343 943.135 101.386 939.887 101.514C936.639 101.642 931.907 101.897 925.853 102.238C919.798 102.579 912.5 103.048 904.08 103.73C895.699 104.412 886.236 105.264 875.891 106.244C865.586 107.267 854.399 108.503 842.61 109.995C830.821 111.444 818.431 113.276 805.6 115.151C799.184 116.174 792.689 117.197 786.113 118.305C779.537 119.456 772.88 120.564 766.184 121.842C762.856 122.481 759.488 123.078 756.12 123.717C752.752 124.399 749.383 125.038 746.015 125.72C739.239 127.041 732.502 128.533 725.726 129.982C718.949 131.388 712.213 133.05 705.517 134.542C698.82 136.119 692.164 137.823 685.548 139.443C678.972 141.19 672.396 142.938 665.94 144.642C659.525 146.475 653.149 148.265 646.894 150.055C640.679 151.972 634.544 153.805 628.57 155.637C622.595 157.555 616.781 159.473 611.087 161.305C599.82 165.184 589.154 168.891 579.41 172.642C576.964 173.537 574.558 174.432 572.233 175.326C569.907 176.264 567.661 177.159 565.456 178.054C561.045 179.801 556.835 181.463 552.906 183.04C545.086 186.407 538.27 189.262 532.696 191.734C521.589 196.805 515.214 199.703 515.214 199.703C515.214 199.703 521.469 196.507 532.376 190.967C537.869 188.282 544.645 185.171 552.344 181.549C556.234 179.844 560.404 178.011 564.774 176.136C566.98 175.199 569.225 174.218 571.511 173.238C573.836 172.301 576.202 171.363 578.648 170.383C588.352 166.42 598.978 162.456 610.205 158.322C615.859 156.362 621.673 154.316 627.607 152.271C633.582 150.353 639.717 148.393 645.932 146.432C652.187 144.6 658.522 142.682 664.978 140.764C671.434 138.974 677.97 137.184 684.586 135.394C691.242 133.732 697.898 131.985 704.635 130.408C711.371 128.874 718.107 127.169 724.924 125.763C731.7 124.314 738.517 122.822 745.293 121.544C748.702 120.862 752.07 120.223 755.438 119.541C758.806 118.944 762.215 118.305 765.543 117.708C778.975 115.236 792.248 113.276 805.119 111.401C817.99 109.611 830.461 108.077 842.289 106.841C854.118 105.562 865.345 104.582 875.691 103.815C896.381 102.196 913.703 101.684 925.812 101.386C931.867 101.258 936.599 101.258 939.847 101.258C943.135 101.301 944.859 101.343 944.859 101.343Z" fill="#27272A"/>
<path d="M928.257 112.466C928.257 112.466 926.653 112.552 923.646 112.722C920.639 112.893 916.268 113.234 910.654 113.66C905.081 114.086 898.264 114.683 890.526 115.45C882.747 116.217 874.005 117.24 864.462 118.305C854.919 119.456 844.574 120.777 833.707 122.396C822.801 123.93 811.333 125.848 799.504 127.809C787.675 129.854 775.446 132.113 763.096 134.585C750.705 137.014 738.195 139.784 725.685 142.682C719.429 144.131 713.214 145.665 706.999 147.157C700.824 148.776 694.649 150.353 688.514 151.93C682.419 153.592 676.365 155.297 670.39 156.916C664.456 158.663 658.561 160.325 652.787 162.073C647.053 163.863 641.36 165.653 635.826 167.357C630.293 169.147 624.92 170.937 619.667 172.642C614.454 174.474 609.362 176.264 604.47 177.969C599.578 179.716 594.887 181.549 590.315 183.211C588.07 184.063 585.824 184.873 583.659 185.725C581.494 186.577 579.409 187.43 577.364 188.24C573.234 189.859 569.344 191.393 565.696 192.842C558.438 195.911 552.103 198.51 546.93 200.769C536.585 205.372 530.69 207.971 530.69 207.971C530.69 207.971 536.505 205.073 546.609 199.959C551.702 197.487 557.997 194.632 565.134 191.308C568.743 189.731 572.592 188.026 576.642 186.279C578.687 185.384 580.772 184.489 582.897 183.594C585.063 182.742 587.268 181.847 589.513 180.909C594.004 179.119 598.696 177.159 603.588 175.327C608.48 173.494 613.532 171.576 618.745 169.616C623.997 167.783 629.37 165.866 634.864 163.948C640.357 162.03 646.051 160.283 651.785 158.408C657.559 156.532 663.453 154.828 669.388 152.995C675.362 151.205 681.417 149.543 687.512 147.839C693.647 146.219 699.822 144.6 706.037 142.98C712.252 141.489 718.507 139.869 724.803 138.42C737.353 135.565 749.944 132.837 762.374 130.451C774.804 127.979 787.074 125.976 798.983 124.016C822.801 120.265 845.095 117.708 864.262 115.876C883.428 114.043 899.467 113.234 910.654 112.807C916.268 112.552 920.679 112.509 923.686 112.466C926.653 112.466 928.257 112.466 928.257 112.466Z" fill="#27272A"/>
<path d="M838.599 134.627C838.599 134.627 833.867 135.607 825.567 137.355C821.397 138.25 816.385 139.315 810.611 140.508C804.837 141.787 798.341 143.193 791.204 144.727C784.106 146.304 776.408 148.052 768.308 149.841C760.168 151.674 751.627 153.634 742.766 155.723C738.355 156.788 733.864 157.811 729.293 158.919C724.762 160.027 720.151 161.135 715.499 162.286C706.197 164.459 696.854 166.974 687.431 169.36C678.048 171.747 668.706 174.346 659.443 176.775C650.261 179.375 641.199 181.932 632.458 184.404C623.756 187.046 615.336 189.603 607.356 192.032C599.417 194.632 591.919 197.061 584.982 199.32C578.125 201.749 571.79 203.965 566.216 205.925C560.603 207.801 555.831 209.846 551.861 211.38C547.892 212.915 544.764 214.151 542.639 214.96C540.514 215.77 539.351 216.196 539.351 216.196C539.351 216.196 540.474 215.685 542.519 214.705C544.604 213.724 547.651 212.361 551.541 210.571C555.47 208.866 560.122 206.565 565.695 204.391C571.229 202.175 577.444 199.618 584.26 196.933C591.157 194.462 598.615 191.777 606.474 188.921C614.414 186.236 622.794 183.552 631.495 180.739C640.236 178.097 649.258 175.369 658.441 172.727C667.703 170.255 677.046 167.613 686.469 165.141C695.892 162.84 705.315 160.325 714.617 158.194C723.92 155.978 733.102 153.933 742.004 152.015C750.865 150.012 759.527 148.307 767.706 146.688C775.886 144.983 783.625 143.619 790.762 142.298C805.077 139.699 817.026 137.823 825.407 136.502C829.577 135.82 832.905 135.394 835.15 135.096C837.396 134.798 838.599 134.627 838.599 134.627Z" fill="#27272A"/>
<path d="M1026.22 109.483C1025.73 106.969 1024.81 104.838 1023.61 102.707C1022.61 101.983 1021.56 101.343 1020.44 100.875L546.528 210.145C546.528 210.145 482.092 297.424 431.288 202.261L3.96899 80.8872C2.28489 82.2936 0.841384 83.9983 0.119629 85.9586V86.5127L155.818 613.813L547.451 749.122C547.451 749.122 572.953 778.699 618.022 757.433L1045.58 629.454L1026.22 109.483Z" fill="#27272A"/>
<path d="M0 86.1289L155.659 622.507L547.291 757.816C547.291 757.816 581.334 794.68 620.309 757.134L1045.38 638.105L1025.65 108.247L546.329 218.838C546.329 218.838 481.892 306.118 431.088 210.954L0 86.1289Z" fill="#27272A"/>
<path d="M1025.61 108.29L548.374 218.37L548.534 219.179L620.268 757.177L1045.34 638.148L1025.61 108.29Z" fill="#27272A"/>
<path opacity="0.5" d="M548.373 218.37L546.328 218.838C546.328 218.838 482.854 304.797 432.251 213L547.251 757.816C547.251 757.816 581.293 794.68 620.268 757.134L548.534 219.179L548.373 218.37Z" fill="#27272A"/>
<path d="M432.131 221.097C432.131 221.097 424.432 202.09 466.735 195.996C509.078 189.901 539.994 205.925 548.494 219.179L552.103 239.508L440.231 251.696L432.131 221.097Z" fill="#3F3F46"/>
<path d="M431.93 230.516C431.93 230.516 424.231 211.508 466.534 205.414C508.877 199.32 539.792 215.344 548.293 228.598L551.902 248.926L440.03 261.115L431.93 230.516Z" fill="#71717A"/>
<path d="M431.81 234.82C431.81 234.82 424.112 215.813 466.415 209.719C508.758 203.624 539.673 219.648 548.173 232.902L551.782 253.231L439.91 265.419L431.81 234.82Z" fill="#27272A"/>
<path d="M515.333 257.194L551.782 253.23L548.173 232.902C542.8 224.592 528.605 215.173 508.276 210.827C510.441 226.339 512.887 241.767 515.333 257.194Z" fill="#27272A"/>
<path d="M458.998 211.04C425.075 218.157 431.811 234.82 431.811 234.82L439.911 265.419L470.064 262.138C466.215 245.176 462.967 228.001 458.998 211.04Z" fill="#27272A"/>
<g opacity="0.6">
<path d="M1025.61 108.29L546.329 218.839C546.329 218.839 481.892 306.118 431.088 210.954L0 86.129L155.659 622.507L547.291 757.816C547.291 757.816 581.334 794.68 620.309 757.134L1045.38 638.105L1025.61 108.29ZM208.267 519.672C138.417 423.784 38.1728 176.69 29.3915 146.091C20.6101 115.492 38.2931 114.512 38.2931 114.512C38.2931 114.512 370.902 203.028 393.798 213.767C416.693 224.507 419.741 266.527 419.741 266.527C419.741 266.527 475.757 542.813 482.293 610.958C488.829 679.103 278.076 615.561 208.267 519.672ZM537.227 627.365C527.122 632.863 518.862 598.897 518.942 595.999C519.022 593.101 452.781 288.603 453.182 273.175C453.543 257.748 475.075 267.976 475.075 267.976C498.372 280.164 498.733 302.368 498.733 302.368C498.733 302.368 551.902 583.385 551.381 605.546C550.86 627.749 537.227 627.365 537.227 627.365ZM1007.13 399.961C974.69 505.14 756.119 579.251 706.719 595.275C657.359 611.299 653.95 563.014 653.95 563.014C653.95 563.014 611.447 291.927 610.485 256.214C609.522 220.501 655.915 215.003 655.915 215.003L954.201 144.941L991.531 139.187C1008.69 142.554 1006.37 163.692 1006.37 163.692C1006.37 163.692 1014.03 336.462 1015.43 353.849C1016.87 371.322 1007.13 399.961 1007.13 399.961Z" fill="#71717A"/>
</g>
<path d="M1024.61 123.717C1024.61 123.717 1028.54 528.75 1025.13 557.601C1021.72 586.453 961.458 603.628 961.458 603.628C961.458 603.628 669.308 701.306 646.091 705.056C622.875 708.764 623.877 666.871 623.877 666.871C623.877 666.871 577.364 278.034 575.399 246.156C573.956 222.589 589.313 211.338 597.413 207.076L546.369 218.838C546.369 218.838 497.771 284.639 451.698 239.636C462.364 259.112 495.365 261.413 509.68 263.16C524.596 264.993 524.155 283.787 524.155 283.787C524.155 283.787 591.118 671.73 593.042 705.056C594.967 738.383 578.687 736.465 578.687 736.465C554.268 743.667 542.68 711.491 542.68 711.491L455.227 322.398C455.227 322.398 522.671 690.098 522.19 710.341C521.709 730.584 496.127 718.31 496.127 718.31C496.127 718.31 207.184 623.743 189.661 617.478C172.099 611.214 162.996 595.062 162.996 595.062L83.7236 374.604L155.659 622.507L547.291 757.816C547.291 757.816 581.334 794.68 620.309 757.134L1045.38 638.105L1026.18 123.206L1024.61 123.717Z" fill="#52525B"/>
<path d="M620.068 756.921C619.747 756.921 619.466 756.666 619.426 756.282L546.168 222.759C546.128 222.376 546.368 221.992 546.729 221.95C547.13 221.907 547.451 222.163 547.491 222.546L620.749 756.069C620.789 756.453 620.549 756.836 620.188 756.879C620.148 756.921 620.108 756.921 620.068 756.921Z" fill="#27272A"/>
<path d="M548.132 758.03C547.811 758.03 547.571 757.774 547.49 757.476L431.328 210.528C431.248 210.145 431.488 209.761 431.849 209.676C432.21 209.591 432.571 209.847 432.651 210.23L548.774 757.135C548.854 757.518 548.613 757.902 548.252 757.987C548.212 757.987 548.172 758.03 548.132 758.03Z" fill="#27272A"/>
<path d="M402.819 126.615C331.766 81.3133 211.113 32.2611 21.9326 32.7725L22.7346 37.2899C62.7118 36.1393 252.654 35.9262 402.819 126.615Z" fill="#18181B"/>
<path d="M796.415 215.833C796.16 214.479 795.643 213.188 794.894 212.034C794.217 210.98 793.321 210.087 792.267 209.42C791.182 208.753 789.972 208.32 788.715 208.149C787.309 207.957 785.882 208.013 784.498 208.316L778.089 209.633L782.019 228.758L788.429 227.441C789.82 227.173 791.154 226.663 792.369 225.931C793.457 225.278 794.398 224.404 795.133 223.363C795.838 222.334 796.31 221.16 796.515 219.924C796.749 218.568 796.715 217.178 796.415 215.833ZM792.504 219.435C792.371 220.213 792.05 220.945 791.569 221.567C791.101 222.17 790.512 222.668 789.841 223.027C789.135 223.418 788.372 223.695 787.581 223.847L785.25 224.326L782.798 212.397L785.129 211.918C785.917 211.745 786.727 211.699 787.53 211.78C788.286 211.846 789.021 212.067 789.691 212.428C790.383 212.803 790.968 213.351 791.391 214.018C791.892 214.825 792.237 215.721 792.407 216.657C792.613 217.569 792.646 218.512 792.504 219.435Z" fill="#D97159"/>
<path d="M818.844 221.19L818.159 217.857L809.885 219.558L808.818 214.364L816.556 212.774L815.888 209.524L808.15 211.114L807.325 207.098L815.599 205.398L814.914 202.065L806.64 203.765L805.346 204.031L802.887 204.536L806.818 223.661L809.277 223.156L810.57 222.89L818.844 221.19Z" fill="#D97159"/>
<path d="M828.024 199.37L824.167 200.163L828.098 219.288L839.506 216.943L838.8 213.505L831.248 215.057L828.024 199.37Z" fill="#D97159"/>
<path d="M853.475 194.14L839.409 197.031L840.138 200.575L845.195 199.536L848.397 215.116L852.301 214.314L849.099 198.733L854.203 197.684L853.475 194.14Z" fill="#D97159"/>
<path d="M879.5 208.724L865.707 190.423L860.272 212.676L864.654 211.775L865.714 207.065L872.205 205.731L875.072 209.634L879.5 208.724ZM866.024 203.724L867.236 197.804L870.685 202.766L866.024 203.724Z" fill="#D97159"/>
<path d="M899.408 202.165C899.846 201.131 899.933 199.979 899.657 198.886C899.507 198.058 899.139 197.286 898.591 196.651C898.067 196.061 897.411 195.606 896.679 195.325C896.047 195.1 895.389 194.959 894.722 194.905C895.45 194.433 896.047 193.782 896.459 193.014C896.877 192.193 896.988 191.247 896.773 190.347C896.642 189.604 896.331 188.905 895.869 188.311C895.429 187.772 894.867 187.349 894.23 187.077C893.531 186.78 892.785 186.613 892.028 186.585C891.147 186.551 890.265 186.629 889.404 186.817L883.099 188.113L887.03 207.238L893.707 205.865C894.972 205.633 896.186 205.18 897.295 204.527C898.224 203.979 898.962 203.154 899.408 202.165ZM887.595 190.368L889.611 189.953C890.318 189.768 891.067 189.83 891.737 190.13C892.021 190.279 892.266 190.493 892.453 190.755C892.64 191.018 892.763 191.321 892.812 191.64C892.915 192.065 892.887 192.51 892.732 192.917C892.577 193.325 892.302 193.673 891.944 193.917C891.525 194.21 891.048 194.409 890.545 194.499L888.471 194.925L887.595 190.368ZM895.436 200.92C895.234 201.399 894.895 201.807 894.462 202.09C893.946 202.415 893.375 202.64 892.777 202.755L890.294 203.265L889.159 197.742L891.641 197.232C892.097 197.136 892.562 197.098 893.027 197.119C893.431 197.134 893.831 197.218 894.208 197.367C894.556 197.515 894.862 197.747 895.1 198.043C895.346 198.377 895.516 198.761 895.598 199.168C895.733 199.759 895.668 200.377 895.412 200.925L895.436 200.92Z" fill="#D97159"/>
<path d="M925.897 189.222C925.633 187.847 925.1 186.537 924.328 185.371C923.612 184.279 922.672 183.354 921.572 182.66C920.474 181.964 919.254 181.485 917.979 181.251C915.221 180.787 912.395 181.368 910.043 182.882C908.954 183.593 908.017 184.516 907.285 185.597C906.566 186.676 906.072 187.892 905.834 189.172C905.59 190.549 905.616 191.961 905.911 193.329C906.179 194.702 906.708 196.011 907.468 197.182C908.182 198.284 909.111 199.227 910.198 199.954C911.285 200.68 912.508 201.175 913.789 201.407C916.58 201.881 919.441 201.293 921.819 199.756C922.909 199.037 923.84 198.099 924.554 197C925.268 195.901 925.751 194.665 925.971 193.367C926.216 191.995 926.19 190.587 925.897 189.222ZM921.867 192.664C921.766 193.455 921.51 194.217 921.113 194.906C920.707 195.578 920.163 196.155 919.517 196.596C918.118 197.538 916.408 197.89 914.751 197.576C913.985 197.421 913.258 197.107 912.618 196.652C911.985 196.166 911.45 195.564 911.039 194.878C910.58 194.14 910.26 193.324 910.094 192.47C909.907 191.612 909.878 190.728 910.008 189.861C910.122 189.076 910.379 188.321 910.764 187.631C911.173 186.961 911.716 186.385 912.36 185.941C913.779 184.995 915.507 184.64 917.184 184.949C917.951 185.104 918.678 185.418 919.318 185.873C919.961 186.346 920.499 186.951 920.897 187.647C921.338 188.393 921.649 189.209 921.818 190.06C921.991 190.92 922.004 191.804 921.856 192.667L921.867 192.664Z" fill="#D97159"/>
<path d="M948.364 177.154C947.262 176.455 946.038 175.977 944.759 175.747C943.391 175.502 941.989 175.527 940.633 175.822C939.275 176.088 937.981 176.617 936.823 177.378C935.74 178.091 934.807 179.013 934.077 180.09C933.348 181.164 932.853 182.383 932.625 183.666C932.376 185.042 932.402 186.455 932.702 187.823C932.97 189.196 933.499 190.504 934.26 191.676C934.968 192.777 935.893 193.719 936.978 194.444C938.069 195.173 939.295 195.669 940.581 195.9C943.372 196.374 946.233 195.786 948.61 194.25C949.697 193.53 950.624 192.591 951.335 191.493C952.052 190.394 952.537 189.158 952.763 187.861C953.007 186.489 952.982 185.08 952.688 183.716C952.424 182.34 951.891 181.031 951.119 179.865C950.396 178.779 949.458 177.856 948.364 177.154ZM948.659 187.158C948.553 187.948 948.297 188.709 947.905 189.4C947.495 190.073 946.947 190.65 946.297 191.092C945.626 191.561 944.866 191.884 944.064 192.042C943.264 192.212 942.438 192.214 941.636 192.05C940.868 191.899 940.141 191.584 939.503 191.126C938.864 190.648 938.326 190.045 937.924 189.352C937.461 188.616 937.137 187.8 936.968 186.946C936.784 186.087 936.758 185.202 936.893 184.335C936.996 183.548 937.253 182.79 937.649 182.106C938.055 181.433 938.599 180.857 939.245 180.415C940.66 179.47 942.384 179.115 944.058 179.426C944.825 179.577 945.553 179.892 946.191 180.35C946.834 180.823 947.373 181.428 947.77 182.124C948.216 182.868 948.528 183.685 948.691 184.537C948.843 185.406 948.832 186.295 948.659 187.158Z" fill="#D97159"/>
<path d="M967.948 179.954L973.949 169.38L969.322 170.331L964.182 179.476L962.587 171.715L958.613 172.532L962.543 191.657L966.517 190.84L964.738 182.184L973.544 189.396L978.252 188.428L967.948 179.954Z" fill="#D97159"/>
</svg>
