<svg width="839" height="426" viewBox="0 0 839 426" fill="none" xmlns="http://www.w3.org/2000/svg">
<path d="M0 -51.5H839L540.711 414.12L356.284 426L0 -51.5Z" fill="url(#paint0_linear_2119_47161)" fill-opacity="0.6"/>
<g opacity="0.4" filter="url(#filter0_f_2119_47161)">
<path fill-rule="evenodd" clip-rule="evenodd" d="M317.986 114.207V-51H277.974V44.1875H276.597L211.314 -51H176.809V114.207H216.902V18.858H217.955L283.967 114.207H317.986ZM343.196 -51V114.207H458.859V81.7785H383.289V47.8176H452.946V15.3086H383.289V-18.5717H458.859V-51H343.196ZM523.737 114.207L475.463 -51H519.768L544.796 57.2556H546.173L574.765 -51H610.889L639.481 57.4977H640.858L665.967 -51H710.191L661.998 114.207H623.363L593.475 14.0179H592.179L562.292 114.207H523.737ZM385.964 337V261.477H367.622V304.991H366.99L337.064 261.477H321.247V337H339.626V293.412H340.109L370.369 337H385.964ZM397.52 261.477V337H450.541V322.176H415.899V306.651H447.83V291.789H415.899V276.301H450.541V261.477H397.52ZM480.281 337L458.152 261.477H478.462L489.935 310.965H490.566L503.673 261.477H520.233L533.339 311.076H533.97L545.48 261.477H565.753L543.661 337H525.95L512.25 291.199H511.656L497.955 337H480.281ZM354.863 129.311V246.372H330.839L284.222 178.811H283.478V246.372H255.164V129.311H279.531L325.634 196.759H326.606V129.311H354.863ZM372.666 246.372V129.311H454.346V152.289H400.98V176.296H450.171V199.331H400.98V223.395H454.346V246.372H372.666ZM466.072 129.311L500.163 246.372H527.39L548.496 175.381H549.412L570.518 246.372H597.802L631.836 129.311H600.605L582.873 206.19H581.901L561.71 129.311H536.199L516.007 206.018H515.035L497.36 129.311H466.072Z" fill="#E29483"/>
</g>
<defs>
<filter id="filter0_f_2119_47161" x="168.809" y="-59" width="549.382" height="404" filterUnits="userSpaceOnUse" color-interpolation-filters="sRGB">
<feFlood flood-opacity="0" result="BackgroundImageFix"/>
<feBlend mode="normal" in="SourceGraphic" in2="BackgroundImageFix" result="shape"/>
<feGaussianBlur stdDeviation="4" result="effect1_foregroundBlur_2119_47161"/>
</filter>
<linearGradient id="paint0_linear_2119_47161" x1="427.566" y1="-207.615" x2="440.578" y2="370.559" gradientUnits="userSpaceOnUse">
<stop stop-color="white" stop-opacity="0"/>
<stop offset="0.817708" stop-color="white"/>
</linearGradient>
</defs>
</svg>
