<svg width="259" height="214" viewBox="0 0 259 214" fill="none" xmlns="http://www.w3.org/2000/svg">
<path d="M20.5673 129.618C31.374 162.814 86.5581 174.612 143.824 155.97C146.707 155.032 177 172 177 172C177 172 157.953 150.769 160.682 149.58C208.26 128.859 237.653 91.9228 227.947 62.1075C217.14 28.911 161.956 17.1126 104.69 35.755C47.4235 54.3974 9.76058 96.4211 20.5673 129.618Z" fill="#18181B"/>
<path d="M23.5683 127.618C34.375 160.814 89.5591 172.613 146.825 153.97C149.708 153.032 180.001 170 180.001 170C180.001 170 160.954 148.769 163.683 147.58C211.261 126.859 240.654 89.923 230.948 60.1076C220.141 26.9112 164.957 15.1127 107.691 33.7551C50.4245 52.3975 12.7616 94.4212 23.5683 127.618Z" fill="#FAEDEA"/>
<path d="M68.2044 92.6467L70.5854 99.1885L52.5084 105.768L50.1273 99.2262L68.2044 92.6467ZM82.439 113.614L80.2411 107.576L89.5955 89.3762C90.3728 87.7782 90.9989 86.3667 91.4736 85.1418C91.9613 83.9123 92.256 82.7748 92.3577 81.7296C92.4548 80.6714 92.3131 79.6197 91.9327 78.5746C91.51 77.4133 90.8816 76.5096 90.0473 75.8634C89.2083 75.2044 88.2486 74.8158 87.1681 74.6976C86.0829 74.5666 84.9597 74.7124 83.7984 75.135C82.5855 75.5765 81.6167 76.2067 80.892 77.0258C80.1672 77.8448 79.7264 78.8016 79.5695 79.8962C79.4127 80.9908 79.5643 82.1703 80.0246 83.4348L72.0699 86.3301C71.1259 83.7366 70.8935 81.2713 71.3726 78.9343C71.8518 76.5973 72.9592 74.5212 74.6949 72.7058C76.4305 70.8905 78.679 69.4803 81.4402 68.4753C84.2789 67.4421 86.933 67.046 89.4025 67.2869C91.8802 67.5103 94.0278 68.2921 95.8454 69.6324C97.6629 70.9728 98.9873 72.7849 99.8186 75.0687C100.363 76.5654 100.604 78.1509 100.541 79.8249C100.492 81.4943 100.042 83.4917 99.1935 85.8171C98.3402 88.1295 97.0031 91.0199 95.1823 94.4882L91.4593 102.265L91.5579 102.536L108.203 96.4781L110.696 103.33L82.439 113.614ZM132.628 96.3336C129.294 97.5324 126.131 97.7556 123.14 97.0034C120.161 96.2464 117.465 94.5608 115.052 91.9466C112.653 89.3278 110.67 85.8483 109.105 81.5082C107.532 77.1857 106.83 73.2694 106.999 69.7594C107.181 66.2446 108.176 63.2593 109.986 60.8035C111.803 58.33 114.37 56.4898 117.686 55.2828C121.002 54.0759 124.145 53.838 127.115 54.5691C130.097 55.2956 132.787 56.9465 135.186 59.522C137.58 62.0846 139.557 65.5295 141.117 69.8567C142.7 74.205 143.407 78.1558 143.239 81.7093C143.084 85.258 142.109 88.2797 140.314 90.7743C138.519 93.2689 135.957 95.122 132.628 96.3336ZM130.099 89.3854C132.37 88.5588 133.767 86.7571 134.29 83.9801C134.814 81.2032 134.238 77.5333 132.563 72.9703C131.468 69.9639 130.248 67.5734 128.9 65.7989C127.566 64.0197 126.154 62.8311 124.666 62.2333C123.19 61.6307 121.697 61.6042 120.187 62.1536C117.929 62.9755 116.534 64.762 116.001 67.5131C115.468 70.2643 116.014 73.8937 117.64 78.4016C118.749 81.4467 119.977 83.8782 121.326 85.6961C122.682 87.4965 124.107 88.702 125.601 89.3128C127.09 89.9107 128.589 89.9348 130.099 89.3854ZM173.284 72.133L172.523 70.0427C171.945 68.4557 171.75 66.8755 171.937 65.3023C172.133 63.7115 172.73 62.2813 173.729 61.0117C174.736 59.7244 176.176 58.7404 178.047 58.0594C179.943 57.369 181.682 57.189 183.264 57.5194C184.858 57.845 186.229 58.5591 187.375 59.6615C188.53 60.7463 189.398 62.0887 189.981 63.6886L190.741 65.7789C191.319 67.366 191.517 68.9526 191.334 70.5387C191.147 72.1119 190.547 73.5357 189.535 74.81C188.528 76.0972 187.089 77.0813 185.218 77.7622C183.321 78.4526 181.58 78.6261 179.993 78.2829C178.412 77.9525 177.044 77.245 175.889 76.1602C174.73 75.0625 173.861 73.7201 173.284 72.133ZM178.155 67.9928L178.916 70.0831C179.249 70.9992 179.783 71.7838 180.518 72.4371C181.265 73.0856 182.226 73.1962 183.4 72.7688C184.575 72.3414 185.229 71.6503 185.364 70.6953C185.511 69.7356 185.413 68.7849 185.071 67.8429L184.31 65.7527C183.967 64.8107 183.441 64.0085 182.732 63.3459C182.024 62.6833 181.063 62.5727 179.85 63.0141C178.689 63.4368 178.03 64.1368 177.874 65.114C177.719 66.0913 177.812 67.0509 178.155 67.9928ZM144.686 56.8533L143.925 54.763C143.343 53.163 143.152 51.5741 143.352 49.9962C143.547 48.4054 144.145 46.9752 145.144 45.7055C146.156 44.4312 147.584 43.4583 149.43 42.7867C151.339 42.0917 153.085 41.9093 154.666 42.2397C156.248 42.57 157.618 43.2841 158.777 44.3818C159.932 45.4666 160.801 46.8089 161.383 48.4089L162.144 50.4992C162.726 52.0992 162.917 53.6881 162.717 55.266C162.53 56.8392 161.93 58.263 160.918 59.5373C159.914 60.794 158.471 61.7652 156.587 62.4509C154.703 63.1365 152.964 63.3165 151.369 62.9909C149.783 62.6476 148.415 61.94 147.265 60.8681C146.123 59.7786 145.264 58.4404 144.686 56.8533ZM149.596 52.699L150.357 54.7893C150.7 55.7312 151.236 56.5223 151.966 57.1626C152.709 57.7982 153.648 57.9094 154.783 57.4961C155.97 57.0641 156.631 56.3705 156.766 55.4156C156.913 54.4559 156.816 53.5051 156.473 52.5632L155.712 50.4729C155.369 49.531 154.844 48.7288 154.135 48.0661C153.426 47.4035 152.459 47.2953 151.233 47.7415C150.085 48.1594 149.441 48.8611 149.303 49.8466C149.165 50.8321 149.263 51.7829 149.596 52.699ZM158.202 86.039L171.026 36.4824L176.097 34.6368L163.273 84.1933L158.202 86.039Z" fill="#18181B"/>
<path d="M95.1084 135.283L96.1238 138.073L85.3707 141.986L84.3554 139.197L95.1084 135.283ZM82.0193 130.569L89.1085 150.046L86.1159 151.136L79.0267 131.658L82.0193 130.569ZM94.3448 126.083L101.434 145.56L98.4413 146.649L91.3522 127.172L94.3448 126.083ZM112.797 141.941C111.563 142.391 110.358 142.566 109.183 142.467C108.005 142.36 106.958 141.97 106.043 141.298C105.125 140.617 104.436 139.643 103.974 138.375C103.568 137.259 103.458 136.274 103.646 135.421C103.83 134.559 104.217 133.796 104.808 133.131C105.399 132.466 106.103 131.875 106.92 131.357C107.742 130.828 108.584 130.34 109.445 129.892C110.574 129.309 111.492 128.846 112.199 128.502C112.912 128.147 113.403 127.811 113.67 127.493C113.946 127.172 113.996 126.771 113.821 126.289L113.784 126.188C113.328 124.937 112.632 124.089 111.695 123.645C110.767 123.198 109.613 123.225 108.235 123.727C106.807 124.247 105.8 124.967 105.217 125.888C104.633 126.809 104.305 127.685 104.234 128.515L101.024 128.534C101.101 127.166 101.442 125.999 102.047 125.032C102.658 124.053 103.418 123.25 104.329 122.621C105.245 121.982 106.193 121.483 107.174 121.126C107.8 120.899 108.546 120.713 109.413 120.57C110.285 120.415 111.185 120.428 112.112 120.607C113.047 120.784 113.936 121.24 114.779 121.977C115.621 122.714 116.324 123.856 116.887 125.403L121.558 138.236L118.565 139.325L117.605 136.687L117.453 136.743C117.404 137.239 117.231 137.815 116.933 138.469C116.635 139.123 116.154 139.762 115.491 140.386C114.828 141.011 113.93 141.529 112.797 141.941ZM112.275 139.087C113.459 138.656 114.371 138.061 115.014 137.3C115.665 136.537 116.063 135.712 116.21 134.826C116.365 133.937 116.295 133.086 115.999 132.275L115.002 129.536C114.931 129.734 114.703 129.975 114.318 130.259C113.938 130.531 113.486 130.815 112.962 131.111C112.443 131.396 111.934 131.667 111.435 131.925C110.941 132.172 110.541 132.375 110.235 132.534C109.494 132.919 108.827 133.348 108.234 133.823C107.646 134.286 107.226 134.817 106.975 135.415C106.729 136.003 106.745 136.677 107.022 137.438C107.4 138.477 108.071 139.124 109.034 139.376C110.003 139.617 111.083 139.521 112.275 139.087ZM137.063 132.592L129.974 113.115L137.937 110.217C140.034 109.454 141.871 109.321 143.45 109.818C145.029 110.316 146.102 111.343 146.668 112.898C147.099 114.081 147.082 115.126 146.617 116.033C146.149 116.931 145.407 117.694 144.391 118.322C145.147 118.162 145.936 118.162 146.76 118.321C147.593 118.478 148.362 118.83 149.069 119.377C149.772 119.915 150.31 120.696 150.682 121.719C151.046 122.716 151.117 123.7 150.895 124.671C150.674 125.642 150.174 126.528 149.393 127.329C148.612 128.13 147.562 128.771 146.244 129.251L137.063 132.592ZM138.907 128.819L145.247 126.512C146.278 126.136 146.996 125.597 147.401 124.895C147.806 124.192 147.855 123.418 147.547 122.573C147.181 121.567 146.601 120.883 145.809 120.52C145.013 120.149 144.1 120.151 143.068 120.527L136.728 122.834L138.907 128.819ZM135.787 120.247L140.91 118.383C141.713 118.091 142.362 117.73 142.856 117.301C143.348 116.863 143.671 116.382 143.824 115.857C143.983 115.321 143.958 114.765 143.749 114.19C143.451 113.37 142.874 112.852 142.02 112.636C141.163 112.412 140.135 112.519 138.934 112.956L133.811 114.82L135.787 120.247ZM165.174 122.82C163.348 123.485 161.619 123.626 159.986 123.244C158.354 122.861 156.907 122.043 155.646 120.788C154.385 119.533 153.401 117.934 152.693 115.989C151.973 114.011 151.702 112.133 151.878 110.355C152.059 108.566 152.65 107.006 153.65 105.675C154.655 104.333 156.036 103.342 157.795 102.702C159.164 102.203 160.491 102.008 161.774 102.115C163.058 102.222 164.217 102.605 165.251 103.262C166.284 103.92 167.108 104.827 167.72 105.982L164.727 107.072C164.176 106.267 163.382 105.666 162.347 105.267C161.317 104.857 160.142 104.892 158.824 105.372C157.657 105.796 156.745 106.473 156.087 107.402C155.435 108.319 155.064 109.416 154.973 110.693C154.889 111.959 155.114 113.328 155.649 114.799C156.197 116.304 156.91 117.528 157.79 118.471C158.678 119.412 159.67 120.032 160.765 120.332C161.869 120.629 163.012 120.563 164.196 120.132C164.974 119.849 165.63 119.457 166.166 118.955C166.701 118.454 167.097 117.87 167.352 117.203C167.607 116.535 167.698 115.813 167.625 115.035L170.618 113.946C170.867 115.157 170.826 116.345 170.493 117.509C170.166 118.662 169.556 119.708 168.662 120.646C167.774 121.572 166.612 122.297 165.174 122.82ZM185.374 115.468C183.498 116.151 181.728 116.326 180.066 115.993C178.408 115.648 176.94 114.862 175.66 113.633C174.385 112.393 173.384 110.775 172.658 108.78C171.932 106.785 171.656 104.894 171.829 103.108C172.007 101.31 172.596 99.7461 173.596 98.4154C174.601 97.0731 175.983 96.082 177.741 95.442C178.755 95.0728 179.819 94.8773 180.931 94.8554C182.043 94.8336 183.143 95.0554 184.232 95.5208C185.317 95.9778 186.327 96.74 187.261 97.8073C188.195 98.8746 188.993 100.317 189.655 102.135L190.116 103.403L175.103 108.867L174.161 106.28L186.131 101.923C185.731 100.824 185.155 99.9238 184.401 99.2216C183.656 98.5162 182.791 98.0603 181.807 97.8538C180.831 97.6443 179.802 97.7364 178.719 98.1303C177.527 98.5641 176.604 99.2354 175.948 100.144C175.299 101.041 174.912 102.044 174.788 103.151C174.665 104.259 174.799 105.349 175.189 106.423L175.817 108.148C176.352 109.618 177.06 110.773 177.939 111.611C178.824 112.438 179.82 112.952 180.927 113.152C182.031 113.344 183.187 113.22 184.396 112.78C185.182 112.493 185.852 112.125 186.406 111.675C186.966 111.212 187.396 110.673 187.698 110.056C187.997 109.43 188.15 108.733 188.158 107.964L191.344 107.723C191.397 108.815 191.199 109.863 190.751 110.869C190.301 111.866 189.622 112.763 188.716 113.562C187.807 114.353 186.693 114.988 185.374 115.468ZM172.848 93.834C172.315 94.0279 171.768 93.9973 171.206 93.7423C170.649 93.4757 170.274 93.0762 170.08 92.5436C169.868 91.9603 169.895 91.4046 170.163 90.8765C170.435 90.3368 170.838 89.9701 171.371 89.7763C171.954 89.5639 172.507 89.583 173.029 89.8334C173.556 90.0723 173.926 90.4834 174.138 91.0667C174.332 91.5993 174.31 92.1434 174.072 92.6992C173.839 93.2434 173.431 93.6217 172.848 93.834ZM180.152 91.1756C179.619 91.3694 179.072 91.3388 178.51 91.0838C177.953 90.8173 177.578 90.4177 177.384 89.8852C177.172 89.3019 177.199 88.7461 177.467 88.218C177.739 87.6784 178.142 87.3117 178.675 87.1178C179.258 86.9055 179.811 86.9246 180.333 87.175C180.86 87.4139 181.23 87.8249 181.442 88.4083C181.636 88.9408 181.614 89.485 181.376 90.0408C181.143 90.585 180.735 90.9633 180.152 91.1756Z" fill="#18181B"/>
</svg>
